<svg width="180" height="53" viewBox="0 0 180 53" fill="none" xmlns="http://www.w3.org/2000/svg">
<path d="M179 46.8373C179 49.6085 176.709 51.8532 173.874 51.8532H6.13243C3.2995 51.8532 1 49.6085 1 46.8373V6.8378C1 4.06797 3.2995 1.81543 6.13243 1.81543H173.873C176.709 1.81543 178.999 4.06797 178.999 6.8378L179 46.8373Z" fill="white"/>
<path d="M173.333 1.87585C176.42 1.87585 178.932 4.32473 178.932 7.33423V46.3342C178.932 49.3437 176.42 51.7926 173.333 51.7926H6.66667C3.58 51.7926 1.06833 49.3437 1.06833 46.3342V7.33423C1.06833 4.32473 3.58 1.87585 6.66667 1.87585H173.333ZM173.333 0.834231H6.66667C3.00167 0.834231 0 3.76086 0 7.33423V46.3342C0 49.9076 3.00167 52.8342 6.66667 52.8342H173.333C176.998 52.8342 180 49.9076 180 46.3342V7.33423C180 3.76086 176.998 0.834231 173.333 0.834231Z" fill="#A6A6A6"/>
<path d="M40.1707 26.5534C40.132 22.3635 43.6894 20.3251 43.852 20.2302C41.8374 17.3663 38.7147 16.975 37.6174 16.9438C34.9947 16.6747 32.4507 18.4739 31.1147 18.4739C29.752 18.4739 27.6947 16.9698 25.4774 17.014C22.624 17.0569 19.9547 18.6676 18.4907 21.1688C15.4694 26.2687 17.7227 33.7632 20.6174 37.8855C22.0654 39.9044 23.7574 42.1586 25.972 42.0793C28.1387 41.9922 28.948 40.7325 31.5627 40.7325C34.1534 40.7325 34.9134 42.0793 37.172 42.0286C39.4974 41.9922 40.9614 40.0006 42.3587 37.9635C44.032 35.6495 44.704 33.3706 44.7307 33.2536C44.676 33.2354 40.2147 31.5753 40.1707 26.5534Z" fill="black"/>
<path d="M35.904 14.232C37.0694 12.8111 37.8667 10.878 37.6454 8.91626C35.9587 8.98906 33.8494 10.0538 32.6347 11.4435C31.56 12.6681 30.6 14.6753 30.848 16.5629C32.7427 16.7007 34.688 15.6308 35.904 14.232Z" fill="black"/>
<path d="M71.5266 41.7894H68.4986L66.84 36.7077H61.0746L59.4946 41.7894H56.5466L62.2586 24.489H65.7866L71.5266 41.7894ZM66.34 34.5757L64.84 30.0582C64.6813 29.5967 64.384 28.5099 63.9453 26.7991H63.892C63.7173 27.5349 63.436 28.6217 63.0493 30.0582L61.576 34.5757H66.34V34.5757Z" fill="black"/>
<path d="M86.216 35.3987C86.216 37.5203 85.628 39.1973 84.452 40.4284C83.3987 41.5243 82.0907 42.0716 80.5293 42.0716C78.844 42.0716 77.6333 41.4814 76.896 40.301H76.8427V46.8725H74V33.4214C74 32.0876 73.964 30.7187 73.8947 29.3147H76.3947L76.5533 31.292H76.6067C77.5547 29.8022 78.9933 29.0586 80.924 29.0586C82.4333 29.0586 83.6933 29.6397 84.7013 30.8032C85.712 31.968 86.216 33.4994 86.216 35.3987ZM83.32 35.5001C83.32 34.2859 83.04 33.2849 82.4773 32.4971C81.8627 31.6755 81.0373 31.2647 80.0027 31.2647C79.3013 31.2647 78.664 31.4935 78.0947 31.9446C77.524 32.3996 77.1506 32.9937 76.976 33.7295C76.888 34.0727 76.844 34.3535 76.844 34.5745V36.6545C76.844 37.5619 77.1293 38.3276 77.7 38.9529C78.2707 39.5782 79.012 39.8902 79.924 39.8902C80.9947 39.8902 81.828 39.4872 82.424 38.6838C83.0213 37.8791 83.32 36.8183 83.32 35.5001Z" fill="black"/>
<path d="M100.932 35.3987C100.932 37.5203 100.344 39.1973 99.1666 40.4284C98.1146 41.5243 96.8066 42.0716 95.2453 42.0716C93.5599 42.0716 92.3493 41.4814 91.6133 40.301H91.5599V46.8725H88.7173V33.4214C88.7173 32.0876 88.6813 30.7187 88.6119 29.3147H91.1119L91.2706 31.292H91.3239C92.2706 29.8022 93.7093 29.0586 95.6413 29.0586C97.1493 29.0586 98.4093 29.6397 99.4199 30.8032C100.427 31.968 100.932 33.4994 100.932 35.3987ZM98.0359 35.5001C98.0359 34.2859 97.7546 33.2849 97.1919 32.4971C96.5773 31.6755 95.7546 31.2647 94.7186 31.2647C94.0159 31.2647 93.3799 31.4935 92.8093 31.9446C92.2386 32.3996 91.8666 32.9937 91.6919 33.7295C91.6053 34.0727 91.5599 34.3535 91.5599 34.5745V36.6545C91.5599 37.5619 91.8453 38.3276 92.4133 38.9529C92.9839 39.5769 93.7253 39.8902 94.6399 39.8902C95.7106 39.8902 96.5439 39.4872 97.1399 38.6838C97.7373 37.8791 98.0359 36.8183 98.0359 35.5001Z" fill="black"/>
<path d="M117.385 36.9379C117.385 38.4095 116.861 39.6068 115.809 40.5311C114.653 41.5412 113.044 42.0456 110.976 42.0456C109.067 42.0456 107.536 41.6868 106.377 40.9679L107.036 38.6578C108.284 39.3936 109.653 39.7628 111.145 39.7628C112.216 39.7628 113.049 39.5262 113.648 39.0556C114.244 38.585 114.541 37.9532 114.541 37.1654C114.541 36.4634 114.296 35.8719 113.804 35.3922C113.315 34.9125 112.497 34.4666 111.356 34.0545C108.249 32.9248 106.697 31.2699 106.697 29.0937C106.697 27.6715 107.241 26.5054 108.331 25.598C109.416 24.6893 110.864 24.2356 112.675 24.2356C114.289 24.2356 115.631 24.5099 116.701 25.0572L115.991 27.3166C114.991 26.7862 113.86 26.521 112.595 26.521C111.595 26.521 110.813 26.7615 110.253 27.2399C109.78 27.6676 109.543 28.1889 109.543 28.8064C109.543 29.4902 109.813 30.0557 110.357 30.5003C110.831 30.9111 111.691 31.3557 112.939 31.8354C114.465 32.4347 115.587 33.1354 116.308 33.9388C117.027 34.7396 117.385 35.7419 117.385 36.9379Z" fill="black"/>
<path d="M126.784 31.3948H123.651V37.4515C123.651 38.992 124.203 39.7616 125.309 39.7616C125.817 39.7616 126.239 39.7187 126.572 39.6329L126.651 41.7376C126.091 41.9417 125.353 42.0444 124.44 42.0444C123.317 42.0444 122.44 41.7103 121.807 41.0434C121.176 40.3752 120.859 39.2546 120.859 37.6803V31.3922H118.992V29.3122H120.859V27.0281L123.651 26.2065V29.3122H126.784V31.3948Z" fill="black"/>
<path d="M140.921 35.4496C140.921 37.3671 140.359 38.9414 139.236 40.1725C138.059 41.44 136.496 42.0718 134.548 42.0718C132.671 42.0718 131.176 41.4647 130.061 40.2505C128.947 39.0363 128.389 37.5036 128.389 35.6563C128.389 33.7232 128.963 32.1398 130.113 30.9087C131.261 29.6763 132.811 29.0601 134.759 29.0601C136.636 29.0601 138.147 29.6672 139.287 30.8827C140.377 32.0618 140.921 33.5841 140.921 35.4496ZM137.972 35.5393C137.972 34.3888 137.72 33.4021 137.209 32.5792C136.613 31.5834 135.761 31.0868 134.657 31.0868C133.515 31.0868 132.647 31.5847 132.051 32.5792C131.54 33.4034 131.288 34.4057 131.288 35.5913C131.288 36.7418 131.54 37.7285 132.051 38.5501C132.665 39.5459 133.524 40.0425 134.632 40.0425C135.717 40.0425 136.569 39.5355 137.184 38.5241C137.708 37.6856 137.972 36.6885 137.972 35.5393Z" fill="black"/>
<path d="M150.161 31.7522C149.88 31.7015 149.58 31.6755 149.265 31.6755C148.265 31.6755 147.492 32.0434 146.948 32.7805C146.475 33.4305 146.237 34.2521 146.237 35.244V41.7895H143.396L143.423 33.2433C143.423 31.8055 143.387 30.4964 143.316 29.316H145.792L145.896 31.7028H145.975C146.275 30.8825 146.748 30.2221 147.396 29.7268C148.029 29.2809 148.713 29.0586 149.451 29.0586C149.713 29.0586 149.951 29.0768 150.161 29.1093V31.7522Z" fill="black"/>
<path d="M162.875 34.9619C162.875 35.4585 162.841 35.8771 162.771 36.219H154.243C154.276 37.4514 154.688 38.3939 155.48 39.0439C156.199 39.625 157.128 39.9162 158.269 39.9162C159.532 39.9162 160.684 39.7199 161.72 39.326L162.165 41.25C160.955 41.7648 159.525 42.0209 157.876 42.0209C155.892 42.0209 154.335 41.4515 153.201 40.314C152.071 39.1765 151.504 37.649 151.504 35.7328C151.504 33.8517 152.031 32.2852 153.085 31.0359C154.189 29.7021 155.681 29.0352 157.559 29.0352C159.403 29.0352 160.799 29.7021 161.747 31.0359C162.497 32.0954 162.875 33.4058 162.875 34.9619ZM160.164 34.243C160.183 33.4214 159.997 32.7116 159.612 32.1123C159.12 31.3414 158.364 30.9566 157.347 30.9566C156.417 30.9566 155.661 31.3323 155.084 32.0863C154.611 32.6856 154.329 33.4045 154.243 34.2417H160.164V34.243Z" fill="black"/>
<path d="M65.4 13.846C65.4 15.3761 64.9293 16.5279 63.9893 17.3014C63.1186 18.0151 61.8813 18.3726 60.2786 18.3726C59.484 18.3726 58.804 18.3388 58.2346 18.2712V9.91093C58.9773 9.79393 59.7773 9.73413 60.6413 9.73413C62.168 9.73413 63.3186 10.0578 64.0946 10.7052C64.964 11.4371 65.4 12.4836 65.4 13.846ZM63.9266 13.8837C63.9266 12.8918 63.6573 12.1313 63.1186 11.6009C62.58 11.0718 61.7933 10.8066 60.7573 10.8066C60.3173 10.8066 59.9426 10.8352 59.632 10.895V17.2507C59.804 17.2767 60.1186 17.2884 60.576 17.2884C61.6453 17.2884 62.4706 16.9985 63.052 16.4187C63.6333 15.8389 63.9266 14.9939 63.9266 13.8837Z" fill="black"/>
<path d="M73.2119 15.1824C73.2119 16.1249 72.9359 16.8971 72.3839 17.5029C71.8052 18.1256 71.0386 18.4363 70.0812 18.4363C69.1586 18.4363 68.4239 18.1386 67.8759 17.5406C67.3292 16.9439 67.0559 16.1912 67.0559 15.2838C67.0559 14.3348 67.3372 13.5561 67.9026 12.9516C68.4679 12.3471 69.2279 12.0442 70.1852 12.0442C71.1079 12.0442 71.8492 12.3419 72.4106 12.9386C72.9439 13.5184 73.2119 14.2672 73.2119 15.1824ZM71.7626 15.2266C71.7626 14.6611 71.6372 14.1762 71.3879 13.7719C71.0946 13.2831 70.6772 13.0387 70.1346 13.0387C69.5732 13.0387 69.1466 13.2831 68.8532 13.7719C68.6026 14.1762 68.4786 14.6689 68.4786 15.2513C68.4786 15.8168 68.6039 16.3017 68.8532 16.706C69.1559 17.1948 69.5772 17.4392 70.1212 17.4392C70.6546 17.4392 71.0732 17.1909 71.3746 16.693C71.6332 16.2809 71.7626 15.7921 71.7626 15.2266Z" fill="black"/>
<path d="M83.6866 12.1689L81.72 18.2971H80.44L79.6253 15.636C79.4186 14.9717 79.2506 14.3113 79.12 13.6561H79.0946C78.9733 14.3295 78.8053 14.9886 78.5893 15.636L77.724 18.2971H76.4293L74.58 12.1689H76.016L76.7266 15.0822C76.8986 15.7712 77.04 16.4277 77.1533 17.0491H77.1786C77.2826 16.5369 77.4546 15.8843 77.6973 15.0952L78.5893 12.1702H79.728L80.5826 15.0328C80.7893 15.7309 80.9573 16.403 81.0866 17.0504H81.1253C81.22 16.4199 81.3626 15.7478 81.552 15.0328L82.3146 12.1702H83.6866V12.1689Z" fill="black"/>
<path d="M90.9306 18.2972H89.5333V14.7872C89.5333 13.7056 89.1119 13.1648 88.2666 13.1648C87.8519 13.1648 87.5173 13.313 87.2573 13.6107C86.9999 13.9084 86.8693 14.2594 86.8693 14.6611V18.2959H85.4719V13.9201C85.4719 13.3819 85.4546 12.7982 85.4213 12.1664H86.6493L86.7146 13.1245H86.7533C86.9159 12.8268 87.1586 12.5811 87.4773 12.3848C87.8559 12.156 88.2799 12.0403 88.7439 12.0403C89.3306 12.0403 89.8186 12.2249 90.2066 12.5954C90.6892 13.0491 90.9306 13.7264 90.9306 14.626V18.2972V18.2972Z" fill="black"/>
<path d="M94.7839 18.2973H93.3879V9.35718H94.7839V18.2973Z" fill="black"/>
<path d="M103.011 15.1824C103.011 16.1249 102.735 16.8971 102.183 17.5029C101.604 18.1256 100.836 18.4363 99.88 18.4363C98.956 18.4363 98.2213 18.1386 97.6746 17.5406C97.1279 16.9439 96.8546 16.1912 96.8546 15.2838C96.8546 14.3348 97.136 13.5561 97.7013 12.9516C98.2666 12.3471 99.0266 12.0442 99.9826 12.0442C100.907 12.0442 101.647 12.3419 102.209 12.9386C102.743 13.5184 103.011 14.2672 103.011 15.1824ZM101.56 15.2266C101.56 14.6611 101.435 14.1762 101.185 13.7719C100.893 13.2831 100.475 13.0387 99.9333 13.0387C99.3706 13.0387 98.9439 13.2831 98.6519 13.7719C98.4013 14.1762 98.2773 14.6689 98.2773 15.2513C98.2773 15.8168 98.4026 16.3017 98.6519 16.706C98.9546 17.1948 99.376 17.4392 99.92 17.4392C100.453 17.4392 100.871 17.1909 101.172 16.693C101.432 16.2809 101.56 15.7921 101.56 15.2266Z" fill="black"/>
<path d="M109.773 18.2972H108.519L108.415 17.5913H108.376C107.947 18.1542 107.335 18.4363 106.54 18.4363C105.947 18.4363 105.467 18.2504 105.105 17.8812C104.777 17.5458 104.613 17.1285 104.613 16.6332C104.613 15.8844 104.933 15.3137 105.577 14.9185C106.22 14.5233 107.124 14.3296 108.288 14.3387V14.2243C108.288 13.417 107.853 13.014 106.983 13.014C106.363 13.014 105.816 13.1661 105.344 13.4677L105.06 12.5733C105.644 12.221 106.365 12.0442 107.216 12.0442C108.859 12.0442 109.683 12.8892 109.683 14.5792V16.836C109.683 17.4483 109.713 17.9358 109.773 18.2972ZM108.323 16.1912V15.2461C106.781 15.2201 106.011 15.6322 106.011 16.4811C106.011 16.8009 106.099 17.0401 106.279 17.2C106.459 17.3599 106.688 17.4392 106.961 17.4392C107.268 17.4392 107.555 17.3443 107.816 17.1558C108.079 16.966 108.24 16.7255 108.3 16.4304C108.315 16.3641 108.323 16.2835 108.323 16.1912Z" fill="black"/>
<path d="M117.713 18.2973H116.473L116.408 17.3132H116.369C115.973 18.062 115.299 18.4364 114.351 18.4364C113.593 18.4364 112.963 18.1465 112.463 17.5667C111.963 16.9869 111.713 16.2342 111.713 15.3099C111.713 14.318 111.984 13.5146 112.528 12.901C113.055 12.329 113.7 12.043 114.468 12.043C115.312 12.043 115.903 12.3199 116.239 12.875H116.265V9.35718H117.664V16.6463C117.664 17.243 117.68 17.7929 117.713 18.2973ZM116.265 15.7129V14.6911C116.265 14.5143 116.252 14.3713 116.227 14.2621C116.148 13.9345 115.979 13.6589 115.721 13.4366C115.461 13.2143 115.148 13.1025 114.787 13.1025C114.265 13.1025 113.857 13.304 113.557 13.7083C113.26 14.1126 113.109 14.6287 113.109 15.2592C113.109 15.865 113.252 16.3564 113.539 16.7347C113.841 17.1377 114.249 17.3392 114.76 17.3392C115.219 17.3392 115.585 17.1715 115.864 16.8348C116.133 16.5241 116.265 16.1497 116.265 15.7129Z" fill="black"/>
<path d="M129.664 15.1824C129.664 16.1249 129.388 16.8971 128.836 17.5029C128.257 18.1256 127.492 18.4363 126.533 18.4363C125.612 18.4363 124.877 18.1386 124.328 17.5406C123.781 16.9439 123.508 16.1912 123.508 15.2838C123.508 14.3348 123.789 13.5561 124.355 12.9516C124.92 12.3471 125.68 12.0442 126.639 12.0442C127.56 12.0442 128.303 12.3419 128.863 12.9386C129.396 13.5184 129.664 14.2672 129.664 15.1824ZM128.216 15.2266C128.216 14.6611 128.091 14.1762 127.841 13.7719C127.547 13.2831 127.131 13.0387 126.587 13.0387C126.027 13.0387 125.6 13.2831 125.305 13.7719C125.055 14.1762 124.931 14.6689 124.931 15.2513C124.931 15.8168 125.056 16.3017 125.305 16.706C125.608 17.1948 126.029 17.4392 126.573 17.4392C127.107 17.4392 127.527 17.1909 127.828 16.693C128.085 16.2809 128.216 15.7921 128.216 15.2266Z" fill="black"/>
<path d="M137.177 18.2972H135.781V14.7872C135.781 13.7056 135.36 13.1648 134.513 13.1648C134.099 13.1648 133.764 13.313 133.505 13.6107C133.247 13.9084 133.117 14.2594 133.117 14.6611V18.2959H131.719V13.9201C131.719 13.3819 131.703 12.7982 131.669 12.1664H132.896L132.961 13.1245H133C133.164 12.8268 133.407 12.5811 133.724 12.3848C134.104 12.156 134.527 12.0403 134.992 12.0403C135.577 12.0403 136.065 12.2249 136.453 12.5954C136.937 13.0491 137.177 13.7264 137.177 14.626V18.2972V18.2972Z" fill="black"/>
<path d="M146.581 13.1895H145.043V16.1665C145.043 16.9231 145.316 17.3014 145.857 17.3014C146.108 17.3014 146.316 17.2806 146.48 17.2377L146.516 18.2712C146.24 18.3726 145.877 18.4233 145.431 18.4233C144.879 18.4233 144.449 18.2595 144.139 17.9319C143.827 17.6043 143.672 17.0531 143.672 16.2796V13.1895H142.753V12.169H143.672V11.0458L145.041 10.6428V12.1677H146.58V13.1895H146.581Z" fill="black"/>
<path d="M153.979 18.2973H152.58V14.8133C152.58 13.7148 152.159 13.1649 151.315 13.1649C150.667 13.1649 150.224 13.4834 149.981 14.1204C149.94 14.2543 149.916 14.4181 149.916 14.6105V18.296H148.52V9.35718H149.916V13.0505H149.943C150.383 12.3784 151.013 12.043 151.831 12.043C152.409 12.043 152.888 12.2276 153.268 12.5981C153.741 13.0596 153.979 13.746 153.979 14.6534V18.2973V18.2973Z" fill="black"/>
<path d="M161.609 14.9432C161.609 15.1876 161.591 15.393 161.557 15.5607H157.367C157.385 16.1665 157.585 16.628 157.973 16.9478C158.328 17.2338 158.785 17.3768 159.345 17.3768C159.965 17.3768 160.531 17.2806 161.04 17.0869L161.259 18.0333C160.663 18.2855 159.961 18.4116 159.149 18.4116C158.176 18.4116 157.409 18.1321 156.855 17.5731C156.297 17.0141 156.021 16.264 156.021 15.3228C156.021 14.3985 156.279 13.6289 156.797 13.0153C157.339 12.3601 158.071 12.0325 158.995 12.0325C159.899 12.0325 160.585 12.3601 161.049 13.0153C161.424 13.5353 161.609 14.1788 161.609 14.9432ZM160.276 14.5909C160.287 14.1866 160.195 13.8382 160.005 13.5444C159.763 13.1661 159.393 12.9763 158.893 12.9763C158.437 12.9763 158.065 13.1609 157.781 13.5314C157.549 13.8265 157.412 14.1788 157.367 14.5909H160.276Z" fill="black"/>
</svg>
