<svg width="180" height="53" viewBox="0 0 180 53" fill="none" xmlns="http://www.w3.org/2000/svg">
<path d="M173.095 52.8342H6.6575C2.99754 52.8342 0 49.9076 0 46.3342V7.33423C0 3.76086 2.99754 0.834231 6.6575 0.834231H173.095C176.755 0.834231 179.753 3.76086 179.753 7.33423V46.3342C179.753 49.9076 176.755 52.8342 173.095 52.8342Z" fill="white"/>
<path d="M173.095 1.87585C176.177 1.87585 178.686 4.32473 178.686 7.33423V46.3342C178.686 49.3437 176.177 51.7926 173.095 51.7926H6.6575C3.57508 51.7926 1.06686 49.3437 1.06686 46.3342V7.33423C1.06686 4.32473 3.57508 1.87585 6.6575 1.87585H173.095ZM173.095 0.834231H6.6575C2.99754 0.834231 0 3.76086 0 7.33423V46.3342C0 49.9076 2.99754 52.8342 6.6575 52.8342H173.095C176.755 52.8342 179.753 49.9076 179.753 46.3342V7.33423C179.753 3.76086 176.755 0.834231 173.095 0.834231Z" fill="#A6A6A6"/>
<path d="M63.1365 14.1512C63.1365 15.2367 62.8036 16.106 62.1478 16.7544C61.3939 17.523 60.4119 17.9098 59.2085 17.9098C58.0585 17.9098 57.0765 17.5165 56.2709 16.7414C55.4637 15.9549 55.0609 14.9897 55.0609 13.8343C55.0609 12.6789 55.4637 11.7137 56.2709 10.9337C57.0765 10.152 58.0585 9.75879 59.2085 9.75879C59.7811 9.75879 60.327 9.87416 60.8479 10.0887C61.3672 10.3048 61.79 10.5973 62.0962 10.958L61.4005 11.6438C60.8663 11.0279 60.1389 10.724 59.2085 10.724C58.3697 10.724 57.6424 11.01 57.0249 11.5869C56.4141 12.1654 56.1078 12.9145 56.1078 13.8343C56.1078 14.754 56.4141 15.5097 57.0249 16.0882C57.6424 16.6585 58.3697 16.951 59.2085 16.951C60.099 16.951 60.8479 16.6585 61.4388 16.0817C61.8283 15.6998 62.0496 15.1733 62.1079 14.5005H59.2085V13.5613H63.0765C63.1231 13.7644 63.1365 13.961 63.1365 14.1512V14.1512Z" fill="black"/>
<path d="M69.273 10.8946H65.6397V13.3646H68.9152V14.3039H65.6397V16.7739H69.273V17.731H64.6111V9.9375H69.273V10.8946Z" fill="black"/>
<path d="M73.6036 17.731H72.575V10.8946H70.3464V9.9375H75.8339V10.8946H73.6036V17.731V17.731Z" fill="black"/>
<path d="M79.8052 17.731V9.9375H80.8321V17.731H79.8052Z" fill="black"/>
<path d="M85.3841 17.731H84.3639V10.8946H82.127V9.9375H87.621V10.8946H85.3841V17.731Z" fill="black"/>
<path d="M98.0101 16.7284C97.2228 17.5165 96.2475 17.9098 95.0841 17.9098C93.914 17.9098 92.9387 17.5165 92.1514 16.7284C91.3659 15.9419 90.9747 14.9767 90.9747 13.8343C90.9747 12.6919 91.3659 11.7267 92.1514 10.9402C92.9387 10.152 93.914 9.75879 95.0841 9.75879C96.2408 9.75879 97.2161 10.152 98.0034 10.9467C98.7956 11.7397 99.1868 12.6984 99.1868 13.8343C99.1868 14.9767 98.7956 15.9419 98.0101 16.7284ZM92.9121 16.0752C93.5046 16.6585 94.2253 16.951 95.0841 16.951C95.9362 16.951 96.6636 16.6585 97.2494 16.0752C97.8403 15.4918 98.1399 14.7427 98.1399 13.8343C98.1399 12.9259 97.8403 12.1768 97.2494 11.5934C96.6636 11.01 95.9362 10.7175 95.0841 10.7175C94.2253 10.7175 93.5046 11.01 92.9121 11.5934C92.3212 12.1768 92.0216 12.9259 92.0216 13.8343C92.0216 14.7427 92.3212 15.4918 92.9121 16.0752V16.0752Z" fill="black"/>
<path d="M100.63 17.731V9.9375H101.878L105.759 15.9987H105.804L105.759 14.5005V9.9375H106.786V17.731H105.714L101.65 11.3707H101.605L101.65 12.8755V17.731H100.63V17.731Z" fill="black"/>
<path d="M90.7218 29.1125C87.5944 29.1125 85.0396 31.4363 85.0396 34.6424C85.0396 37.8225 87.5944 40.1706 90.7218 40.1706C93.8558 40.1706 96.4106 37.8225 96.4106 34.6424C96.4106 31.4363 93.8558 29.1125 90.7218 29.1125ZM90.7218 37.9931C89.0058 37.9931 87.5295 36.6103 87.5295 34.6424C87.5295 32.6485 89.0058 31.29 90.7218 31.29C92.4377 31.29 93.9207 32.6485 93.9207 34.6424C93.9207 36.6103 92.4377 37.9931 90.7218 37.9931V37.9931ZM78.3238 29.1125C75.1898 29.1125 72.6417 31.4363 72.6417 34.6424C72.6417 37.8225 75.1898 40.1706 78.3238 40.1706C81.4562 40.1706 84.006 37.8225 84.006 34.6424C84.006 31.4363 81.4562 29.1125 78.3238 29.1125ZM78.3238 37.9931C76.6062 37.9931 75.1249 36.6103 75.1249 34.6424C75.1249 32.6485 76.6062 31.29 78.3238 31.29C80.0398 31.29 81.5161 32.6485 81.5161 34.6424C81.5161 36.6103 80.0398 37.9931 78.3238 37.9931ZM63.5708 30.8074V33.1571H69.3179C69.1498 34.4701 68.7004 35.4354 68.0114 36.1081C67.1725 36.9206 65.866 37.8225 63.5708 37.8225C60.034 37.8225 57.2645 35.0356 57.2645 31.5825C57.2645 28.1294 60.034 25.3425 63.5708 25.3425C65.4832 25.3425 66.8746 26.0721 67.9015 27.0179L69.5975 25.362C68.1612 24.023 66.2505 22.9944 63.5708 22.9944C58.7208 22.9944 54.6448 26.8473 54.6448 31.5825C54.6448 36.3178 58.7208 40.1706 63.5708 40.1706C66.1922 40.1706 68.1612 39.3321 69.709 37.7591C71.2952 36.2105 71.7895 34.033 71.7895 32.2748C71.7895 31.7288 71.7429 31.2266 71.6597 30.8074H63.5708ZM123.898 32.629C123.43 31.3924 121.987 29.1125 119.048 29.1125C116.135 29.1125 113.71 31.3534 113.71 34.6424C113.71 37.7396 116.11 40.1706 119.327 40.1706C121.929 40.1706 123.43 38.622 124.048 37.7201L122.117 36.464C121.473 37.3838 120.596 37.9931 119.327 37.9931C118.067 37.9931 117.164 37.4293 116.584 36.3178L124.159 33.2579L123.898 32.629V32.629ZM116.175 34.4701C116.11 32.3381 117.871 31.2461 119.133 31.2461C120.121 31.2461 120.96 31.7288 121.24 32.4194L116.175 34.4701V34.4701ZM110.019 39.8343H112.508V23.5843H110.019V39.8343ZM105.941 30.3443H105.858C105.298 29.6975 104.232 29.1125 102.88 29.1125C100.044 29.1125 97.4508 31.5435 97.4508 34.6603C97.4508 37.7591 100.044 40.1706 102.88 40.1706C104.232 40.1706 105.298 39.5808 105.858 38.9145H105.941V39.7075C105.941 41.8216 104.784 42.9575 102.918 42.9575C101.397 42.9575 100.453 41.885 100.064 40.9831L97.8986 41.8655C98.5227 43.3313 100.175 45.135 102.918 45.135C105.838 45.135 108.301 43.458 108.301 39.3776V29.4489H105.941V30.3443V30.3443ZM103.093 37.9931C101.377 37.9931 99.9407 36.5908 99.9407 34.6603C99.9407 32.7119 101.377 31.29 103.093 31.29C104.784 31.29 106.117 32.7119 106.117 34.6603C106.117 36.5908 104.784 37.9931 103.093 37.9931V37.9931ZM135.555 23.5843H129.6V39.8343H132.083V33.6771H135.555C138.313 33.6771 141.018 31.7288 141.018 28.6299C141.018 25.5326 138.306 23.5843 135.555 23.5843V23.5843ZM135.62 31.4168H132.083V25.8446H135.62C137.474 25.8446 138.533 27.3478 138.533 28.6299C138.533 29.8876 137.474 31.4168 135.62 31.4168ZM150.97 29.0816C149.176 29.0816 147.311 29.8551 146.543 31.5695L148.747 32.4714C149.221 31.5695 150.093 31.277 151.015 31.277C152.304 31.277 153.61 32.0326 153.63 33.3668V33.5374C153.181 33.2839 152.219 32.9085 151.035 32.9085C148.662 32.9085 146.244 34.1841 146.244 36.5648C146.244 38.7423 148.188 40.1446 150.373 40.1446C152.044 40.1446 152.966 39.4085 153.545 38.5521H153.63V39.8083H156.029V33.5748C156.029 30.6936 153.825 29.0816 150.97 29.0816ZM150.671 37.9866C149.859 37.9866 148.727 37.5934 148.727 36.6103C148.727 35.3525 150.138 34.8699 151.36 34.8699C152.453 34.8699 152.966 35.1055 153.63 35.4159C153.435 36.9206 152.109 37.9866 150.671 37.9866V37.9866ZM164.766 29.4375L161.912 36.4819H161.827L158.876 29.4375H156.198L160.632 39.2818L158.102 44.7596H160.697L167.529 29.4375H164.766V29.4375ZM142.382 39.8343H144.872V23.5843H142.382V39.8343Z" fill="black"/>
<path d="M13.8942 10.6347C13.5031 11.0344 13.2767 11.6568 13.2767 12.4628V41.2123C13.2767 42.0183 13.5031 42.6407 13.8942 43.0404L13.9908 43.1282L30.4914 27.0244V26.6442L13.9908 10.5404L13.8942 10.6347Z" fill="url(#paint0_linear_481_167)"/>
<path d="M35.9854 32.395L30.4913 27.0244V26.6441L35.9921 21.2735L36.1153 21.3434L42.6296 24.9623C44.4887 25.9893 44.4887 27.6793 42.6296 28.7128L36.1153 32.3251L35.9854 32.395V32.395Z" fill="url(#paint1_linear_481_167)"/>
<path d="M36.1152 32.3252L30.4913 26.8343L13.8942 43.0404C14.5116 43.6742 15.5186 43.7506 16.6637 43.1168L36.1152 32.3252" fill="url(#paint2_linear_481_167)"/>
<path d="M36.1152 21.3434L16.6637 10.5517C15.5186 9.92448 14.5116 10.0009 13.8942 10.6346L30.4913 26.8342L36.1152 21.3434Z" fill="url(#paint3_linear_481_167)"/>
<defs>
<linearGradient id="paint0_linear_481_167" x1="29.0263" y1="41.5117" x2="7.21544" y2="19.1723" gradientUnits="userSpaceOnUse">
<stop stop-color="#00A0FF"/>
<stop offset="0.0066" stop-color="#00A1FF"/>
<stop offset="0.2601" stop-color="#00BEFF"/>
<stop offset="0.5122" stop-color="#00D2FF"/>
<stop offset="0.7604" stop-color="#00DFFF"/>
<stop offset="1" stop-color="#00E3FF"/>
</linearGradient>
<linearGradient id="paint1_linear_481_167" x1="45.0505" y1="26.8325" x2="12.8323" y2="26.8325" gradientUnits="userSpaceOnUse">
<stop stop-color="#FFE000"/>
<stop offset="0.4087" stop-color="#FFBD00"/>
<stop offset="0.7754" stop-color="#FFA500"/>
<stop offset="1" stop-color="#FF9C00"/>
</linearGradient>
<linearGradient id="paint2_linear_481_167" x1="33.0571" y1="23.8494" x2="3.47981" y2="-6.44461" gradientUnits="userSpaceOnUse">
<stop stop-color="#FF3A44"/>
<stop offset="1" stop-color="#C31162"/>
</linearGradient>
<linearGradient id="paint3_linear_481_167" x1="9.71632" y1="52.6052" x2="22.9239" y2="39.0777" gradientUnits="userSpaceOnUse">
<stop stop-color="#32A071"/>
<stop offset="0.0685" stop-color="#2DA771"/>
<stop offset="0.4762" stop-color="#15CF74"/>
<stop offset="0.8009" stop-color="#06E775"/>
<stop offset="1" stop-color="#00F076"/>
</linearGradient>
</defs>
</svg>
