<svg width="260" height="100" viewBox="0 0 260 100" fill="none" xmlns="http://www.w3.org/2000/svg">
<g filter="url(#filter0_d_484_43)">
<rect x="30" y="26" width="200" height="40" rx="8" fill="white"/>
</g>
<g clip-path="url(#clip0_484_43)">
<path fill-rule="evenodd" clip-rule="evenodd" d="M125.417 39.0713C125.417 39.0713 125.417 39.0713 126.83 39.0713C127.345 39.0713 127.605 39.3257 127.605 39.9002C127.605 39.9002 127.605 39.9002 127.605 41.9359C127.605 41.9359 127.605 41.9359 130.374 41.9359C130.374 41.9359 130.374 41.9359 130.374 39.9002C130.374 39.3257 130.629 39.0713 131.21 39.0713C131.21 39.0713 131.21 39.0713 132.561 39.0713C132.561 39.0713 132.561 39.0713 132.561 40.4091C132.561 40.4091 132.561 40.4091 131.984 40.4091L131.919 40.4747C131.919 40.4747 131.919 40.4747 131.919 46.2038C131.919 46.2038 131.919 46.2038 130.374 46.2038C130.374 46.2038 130.374 46.2038 130.374 43.3392C130.374 43.3392 130.374 43.3392 127.605 43.3392C127.605 43.3392 127.605 43.3392 127.605 46.2038C127.605 46.2038 127.605 46.2038 126.06 46.2038C126.06 46.2038 126.06 46.2038 126.06 40.4747C126.06 40.4747 126.06 40.4091 125.994 40.4091C125.994 40.4091 125.994 40.4091 125.417 40.4091C125.417 40.4091 125.417 40.4091 125.417 39.0713Z" fill="#ED1C24"/>
<path fill-rule="evenodd" clip-rule="evenodd" d="M136.616 38.9441L136.651 38.9479V40.4169L136.616 40.4092C135.458 40.4092 134.556 41.3653 134.556 42.5759C134.556 43.8482 135.458 44.866 136.616 44.866L136.651 44.8583V46.3272L136.616 46.3311C134.556 46.3311 132.883 44.6771 132.883 42.5759C132.883 40.5364 134.556 38.9441 136.616 38.9441Z" fill="#ED1C24"/>
<path fill-rule="evenodd" clip-rule="evenodd" d="M136.651 38.948L137.367 39.0174C139.067 39.349 140.349 40.7909 140.349 42.576C140.349 44.4111 139.067 45.9109 137.367 46.254L136.651 46.3273V44.8584L137.437 44.6887C138.196 44.3417 138.742 43.5282 138.742 42.576C138.742 41.6661 138.196 40.9027 137.437 40.5788L136.651 40.4169V38.948Z" fill="#ED1C24"/>
<path fill-rule="evenodd" clip-rule="evenodd" d="M140.67 39.0713C140.67 39.0713 140.67 39.0713 142.827 39.0713H143.857V40.4091H143.76C143.633 40.4091 143.373 40.4091 142.858 40.4091C142.858 40.4091 142.858 40.4091 142.858 41.8742C142.858 41.8742 142.858 41.8742 143.296 41.8742H143.857V43.1465H143.528C143.365 43.1465 143.149 43.1465 142.858 43.1465C142.858 43.1465 142.858 43.1465 142.858 44.7388C142.858 44.8043 142.858 44.8043 142.924 44.8043C142.924 44.8043 142.924 44.8043 143.385 44.8043H143.857V46.2038H143.722C143.489 46.2038 143.021 46.2038 142.088 46.2038C141.573 46.2038 141.317 45.9494 141.317 45.3749V40.4091C141.317 40.4091 141.317 40.4091 140.67 40.4091C140.67 40.4091 140.67 40.4091 140.67 39.0713Z" fill="#ED1C24"/>
<path fill-rule="evenodd" clip-rule="evenodd" d="M143.857 39.0713H143.888C145.306 39.0713 146.142 39.8347 146.142 40.9836C146.142 41.6814 145.821 42.1286 145.499 42.4486C146.08 42.7031 146.463 43.3392 146.463 44.0371C146.463 45.3749 145.433 46.2038 143.954 46.2038C143.954 46.2038 143.954 46.2038 143.927 46.2038H143.857V44.8043H144.016C144.531 44.8043 144.856 44.4843 144.856 43.9754C144.856 43.4665 144.531 43.1465 144.016 43.1465C144.016 43.1465 144.016 43.1465 143.873 43.1465H143.857V41.8742H143.888C144.341 41.8742 144.597 41.5542 144.597 41.1108C144.597 40.6636 144.341 40.4091 143.888 40.4091C143.888 40.4091 143.888 40.4091 143.873 40.4091H143.857V39.0713Z" fill="#ED1C24"/>
<path fill-rule="evenodd" clip-rule="evenodd" d="M149.426 39.0713C149.426 39.0713 149.426 39.0713 150.076 39.0713H150.196V41.1108C150.135 41.238 150.069 41.427 150.069 41.6197C150.069 41.6197 150.069 41.6197 149.554 43.0848C149.554 43.0848 149.554 43.0848 150.1 43.0848H150.196V44.4188H149.848C149.65 44.4188 149.426 44.4188 149.17 44.4188C149.17 44.4188 149.17 44.4188 148.717 45.5677C148.589 46.011 148.334 46.2038 147.819 46.2038C147.819 46.2038 147.819 46.2038 146.851 46.2038C146.851 46.2038 146.851 46.2038 146.851 44.8043C146.851 44.8043 146.851 44.8043 147.172 44.8043C147.304 44.8043 147.304 44.8043 147.366 44.7388C147.366 44.7388 147.366 44.7388 149.426 39.0713Z" fill="#ED1C24"/>
<path fill-rule="evenodd" clip-rule="evenodd" d="M150.196 39.0713H150.971C150.971 39.0713 150.971 39.0713 153.031 44.7388C153.093 44.8043 153.093 44.8043 153.221 44.8043C153.221 44.8043 153.221 44.8043 153.48 44.8043C153.48 44.8043 153.48 44.8043 153.48 46.2038C153.48 46.2038 153.48 46.2038 152.578 46.2038C152.063 46.2038 151.807 46.011 151.676 45.5021C151.676 45.5021 151.676 45.5021 151.226 44.4188C151.226 44.4188 151.226 44.4188 150.359 44.4188H150.196V43.0848H150.839C150.839 43.0848 150.839 43.0848 150.328 41.6197C150.328 41.427 150.262 41.238 150.196 41.1108V39.0713Z" fill="#ED1C24"/>
<path fill-rule="evenodd" clip-rule="evenodd" d="M125.417 48.2395C125.417 48.2395 125.417 48.2395 131.016 48.2395C131.531 48.2395 131.853 48.494 131.853 49.0684C131.853 49.0684 131.853 49.0684 131.853 53.907C131.853 53.9687 131.853 53.9687 131.919 53.9687C131.919 53.9687 131.919 53.9687 132.434 53.9687C132.434 53.9687 132.434 53.9687 132.434 55.372C132.434 55.372 132.434 55.372 131.082 55.372C130.501 55.372 130.246 55.1176 130.246 54.5431C130.246 54.5431 130.246 54.5431 130.246 49.6429C130.246 49.6429 130.246 49.5773 130.18 49.5773C130.18 49.5773 130.18 49.5773 127.605 49.5773C127.605 49.5773 127.605 49.5773 127.605 55.372C127.605 55.372 127.605 55.372 126.06 55.372C126.06 55.372 126.06 55.372 126.06 49.5773C126.06 49.5773 126.06 49.5773 125.417 49.5773C125.417 49.5773 125.417 49.5773 125.417 48.2395Z" fill="#ED1C24"/>
<path fill-rule="evenodd" clip-rule="evenodd" d="M136.488 48.1123L136.519 48.1162V49.5851L136.488 49.5774C135.326 49.5774 134.428 50.5335 134.428 51.7441C134.428 53.0164 135.326 54.0342 136.488 54.0342L136.519 54.0265V55.4954L136.488 55.4993C134.428 55.4993 132.817 53.8415 132.817 51.7441C132.817 49.7046 134.428 48.1123 136.488 48.1123Z" fill="#ED1C24"/>
<path fill-rule="evenodd" clip-rule="evenodd" d="M136.519 48.1161L137.259 48.1855C138.99 48.5171 140.221 49.959 140.221 51.744C140.221 53.5792 138.99 55.079 137.259 55.4221L136.519 55.4954V54.0265L137.336 53.8568C138.107 53.5098 138.614 52.6963 138.614 51.744C138.614 50.8342 138.107 50.0708 137.336 49.7469L136.519 49.585V48.1161Z" fill="#ED1C24"/>
<path fill-rule="evenodd" clip-rule="evenodd" d="M140.542 48.2395C140.542 48.2395 140.542 48.2395 141.96 48.2395C142.475 48.2395 142.73 48.494 142.73 49.0684C142.73 49.0684 142.73 49.0684 142.73 53.907C142.73 53.9687 142.73 53.9687 142.796 53.9687C142.796 53.9687 142.796 53.9687 144.663 53.9687C144.663 53.9687 144.663 53.9687 144.663 48.2395C144.663 48.2395 144.663 48.2395 146.208 48.2395C146.208 48.2395 146.208 48.2395 146.208 53.9687C146.208 53.9687 146.208 53.9687 148.074 53.9687C148.14 53.9687 148.14 53.9687 148.14 53.907C148.14 53.907 148.14 53.907 148.14 49.0684C148.14 48.494 148.396 48.2395 148.911 48.2395C148.911 48.2395 148.911 48.2395 150.328 48.2395C150.328 48.2395 150.328 48.2395 150.328 49.5773C150.328 49.5773 150.328 49.5773 149.747 49.5773C149.681 49.5773 149.681 49.6429 149.681 49.6429C149.681 49.6429 149.681 49.6429 149.681 54.5431C149.681 55.1176 149.426 55.372 148.911 55.372C148.911 55.372 148.911 55.372 142.022 55.372C141.445 55.372 141.185 55.1176 141.185 54.5431C141.185 54.5431 141.185 54.5431 141.185 49.6429C141.185 49.6429 141.185 49.5773 141.123 49.5773C141.123 49.5773 141.123 49.5773 140.542 49.5773C140.542 49.5773 140.542 49.5773 140.542 48.2395Z" fill="#ED1C24"/>
<path fill-rule="evenodd" clip-rule="evenodd" d="M151.548 48.2395C151.548 48.2395 151.548 48.2395 156.377 48.2395C156.958 48.2395 157.151 48.494 157.151 49.0029C157.151 49.0029 157.151 49.0029 157.151 50.2135H155.734C155.734 50.2135 155.734 50.2135 155.734 49.6429C155.734 49.5773 155.734 49.5773 155.668 49.5773C155.668 49.5773 155.668 49.5773 154.77 49.5773C154.77 49.5773 154.77 49.5773 154.77 55.372C154.77 55.372 154.77 55.372 153.221 55.372C153.221 55.372 153.221 55.372 153.221 49.5773C153.221 49.5773 153.221 49.5773 152.322 49.5773C152.257 49.5773 152.257 49.5773 152.257 49.6429C152.257 49.6429 152.257 49.6429 152.257 50.2135C152.257 50.2135 152.257 50.2135 150.839 50.2135C150.839 50.2135 150.839 50.2135 150.839 49.0029C150.839 48.494 151.033 48.2395 151.548 48.2395Z" fill="#ED1C24"/>
<path fill-rule="evenodd" clip-rule="evenodd" d="M159.146 48.2395C159.146 48.2395 159.146 48.2395 159.796 48.2395H159.916V50.279C159.85 50.4062 159.788 50.5952 159.788 50.7879C159.788 50.7879 159.788 50.7879 159.273 52.253C159.273 52.253 159.273 52.253 159.816 52.253H159.916V53.587H159.568C159.37 53.587 159.146 53.587 158.886 53.587C158.886 53.587 158.886 53.587 158.437 54.6703C158.309 55.1793 158.05 55.372 157.535 55.372C157.535 55.372 157.535 55.372 156.57 55.372C156.57 55.372 156.57 55.372 156.57 53.9687C156.57 53.9687 156.57 53.9687 156.892 53.9687C157.024 53.9687 157.024 53.9687 157.085 53.907C157.085 53.907 157.085 53.907 159.146 48.2395Z" fill="#ED1C24"/>
<path fill-rule="evenodd" clip-rule="evenodd" d="M159.916 48.2395H160.687C160.687 48.2395 160.687 48.2395 162.751 53.907C162.813 53.9687 162.813 53.9687 162.944 53.9687H163.2C163.2 53.9687 163.2 53.9687 163.2 55.372C163.2 55.372 163.2 55.372 162.298 55.372C161.783 55.372 161.527 55.1793 161.395 54.6703C161.395 54.6703 161.395 54.6703 160.946 53.587C160.946 53.587 160.946 53.587 160.079 53.587H159.916V52.253H160.559C160.559 52.253 160.559 52.253 160.044 50.7879C160.044 50.5952 159.982 50.4062 159.916 50.279V48.2395Z" fill="#ED1C24"/>
<path fill-rule="evenodd" clip-rule="evenodd" d="M115.496 42.1056C115.569 42.0825 115.666 42.1287 115.763 42.2559C115.763 42.2559 115.763 42.2559 120.139 46.52C120.394 46.7745 120.394 47.16 120.139 47.349C120.139 47.349 120.139 47.349 115.763 51.6786C115.666 51.8058 115.569 51.8367 115.496 51.7981C115.422 51.7596 115.376 51.6478 115.376 51.4858V42.3832C115.376 42.2251 115.422 42.1287 115.496 42.1056Z" fill="#ED1C24"/>
<path fill-rule="evenodd" clip-rule="evenodd" d="M108.01 35H108.32L108.618 35.1234C108.618 35.1234 108.618 35.1234 113.122 39.5802C113.316 39.8347 113.25 40.0275 112.928 40.0275C112.928 40.0275 112.928 40.0275 111.062 40.0275C110.74 40.0275 110.485 40.2819 110.485 40.6019C110.485 40.6019 110.485 40.6019 110.485 43.9099C110.485 44.2299 110.225 44.4843 109.838 44.4843C109.838 44.4843 109.838 44.4843 106.558 44.4843C106.237 44.4843 105.977 44.2299 105.977 43.9099C105.977 43.9099 105.977 43.9099 105.977 40.6019C105.977 40.2819 105.722 40.0275 105.396 40.0275H103.402C103.081 40.0275 103.015 39.8347 103.209 39.5802C103.209 39.5802 103.209 39.5802 107.716 35.1234L108.01 35Z" fill="#ED1C24"/>
<path fill-rule="evenodd" clip-rule="evenodd" d="M100.955 42.0092C101.036 42.0477 101.086 42.1595 101.086 42.3215V51.613C101.086 51.775 101.036 51.8714 100.955 51.9022C100.877 51.933 100.765 51.9022 100.633 51.8058C100.633 51.8058 100.633 51.8058 96.1917 47.3489C95.9361 47.16 95.9361 46.7745 96.1917 46.52C96.1917 46.52 96.1917 46.52 100.633 42.1287C100.765 42.0015 100.877 41.9706 100.955 42.0092Z" fill="#ED1C24"/>
<path fill-rule="evenodd" clip-rule="evenodd" d="M106.558 49.3229C106.558 49.3229 106.558 49.3229 109.838 49.3229C110.225 49.3229 110.485 49.5773 110.485 49.8973C110.485 49.8973 110.485 49.8973 110.485 53.3981C110.485 53.7797 110.74 54.0342 111.062 54.0342H112.8C113.122 54.0342 113.25 54.2231 112.994 54.4159C112.994 54.4159 112.994 54.4159 108.618 58.8072C108.487 58.9344 108.328 59 108.165 59C108.006 59 107.844 58.9344 107.716 58.8072C107.716 58.8072 107.716 58.8072 103.34 54.4159C103.081 54.2231 103.209 54.0342 103.53 54.0342C103.53 54.0342 103.53 54.0342 105.396 54.0342C105.722 54.0342 105.977 53.7797 105.977 53.3981C105.977 53.3981 105.977 53.3981 105.977 49.8973C105.977 49.5773 106.237 49.3229 106.558 49.3229Z" fill="#ED1C24"/>
</g>
<defs>
<filter id="filter0_d_484_43" x="0" y="0" width="260" height="100" filterUnits="userSpaceOnUse" color-interpolation-filters="sRGB">
<feFlood flood-opacity="0" result="BackgroundImageFix"/>
<feColorMatrix in="SourceAlpha" type="matrix" values="0 0 0 0 0 0 0 0 0 0 0 0 0 0 0 0 0 0 127 0" result="hardAlpha"/>
<feOffset dy="4"/>
<feGaussianBlur stdDeviation="15"/>
<feComposite in2="hardAlpha" operator="out"/>
<feColorMatrix type="matrix" values="0 0 0 0 0 0 0 0 0 0 0 0 0 0 0 0 0 0 0.1 0"/>
<feBlend mode="normal" in2="BackgroundImageFix" result="effect1_dropShadow_484_43"/>
<feBlend mode="normal" in="SourceGraphic" in2="effect1_dropShadow_484_43" result="shape"/>
</filter>
<clipPath id="clip0_484_43">
<rect width="67.2" height="24" fill="white" transform="translate(96 35)"/>
</clipPath>
</defs>
</svg>
