<svg width="260" height="100" viewBox="0 0 260 100" fill="none" xmlns="http://www.w3.org/2000/svg">
<g filter="url(#filter0_d_484_34)">
<rect x="30" y="26" width="95" height="40" rx="8" fill="white"/>
</g>
<g clip-path="url(#clip0_484_34)">
<path d="M85.0902 39.0247C81.5948 39.0247 78.471 40.8367 78.471 44.1837C78.471 48.0226 84.011 48.2877 84.011 50.2165C84.011 51.0286 83.0806 51.7555 81.4908 51.7555C79.2353 51.7555 77.5495 50.7398 77.5495 50.7398L76.828 54.1179C76.828 54.1179 78.7701 54.9759 81.3484 54.9759C85.17 54.9759 88.1776 53.0752 88.1776 49.6705C88.1776 45.6138 82.6144 45.3566 82.6144 43.5667C82.6144 42.9305 83.3782 42.2337 84.9631 42.2337C86.7514 42.2337 88.2101 42.9724 88.2101 42.9724L88.9163 39.7101C88.9163 39.7101 87.3285 39.0247 85.0897 39.0247H85.0902ZM53.1094 39.2711L53.0247 39.7634C53.0247 39.7634 54.4952 40.0324 55.8198 40.5696C57.5253 41.1851 57.6466 41.5438 57.9339 42.6565L61.0636 54.7216H65.2592L71.7227 39.2711H67.5369L63.3837 49.7759L61.6889 40.8712C61.5337 39.8521 60.7462 39.2706 59.7828 39.2706H53.1099L53.1094 39.2711ZM73.4061 39.2711L70.1226 54.7216H74.1142L77.3859 39.2711H73.4061ZM95.6685 39.2711C94.7061 39.2711 94.196 39.7865 93.822 40.6868L87.974 54.7216H92.1598L92.9695 52.3823H98.0689L98.5612 54.7216H102.255L99.0328 39.2711H95.6685ZM96.213 43.4455L97.4539 49.2432H94.13L96.2135 43.4455H96.213Z" fill="#1434CB"/>
</g>
<g filter="url(#filter1_d_484_34)">
<rect x="135" y="26" width="95" height="40" rx="8" fill="white"/>
</g>
<path d="M187.58 37.2902H177.081V56.1595H187.58V37.2902Z" fill="#FF5A00"/>
<path d="M177.78 46.7249C177.78 42.8912 179.581 39.4887 182.346 37.2902C180.311 35.6899 177.745 34.7228 174.945 34.7228C168.313 34.7228 162.947 40.0907 162.947 46.7249C162.947 53.359 168.313 58.7269 174.945 58.7269C177.745 58.7269 180.311 57.7598 182.346 56.1595C179.578 53.9921 177.78 50.5585 177.78 46.7249Z" fill="#EB001B"/>
<path d="M201.745 46.7249C201.745 53.359 196.378 58.7269 189.747 58.7269C186.947 58.7269 184.381 57.7598 182.346 56.1595C185.145 53.9572 186.912 50.5585 186.912 46.7249C186.912 42.8912 185.111 39.4887 182.346 37.2902C184.377 35.6899 186.943 34.7228 189.743 34.7228C196.378 34.7228 201.745 40.1257 201.745 46.7249Z" fill="#F79E1B"/>
<defs>
<filter id="filter0_d_484_34" x="0" y="0" width="155" height="100" filterUnits="userSpaceOnUse" color-interpolation-filters="sRGB">
<feFlood flood-opacity="0" result="BackgroundImageFix"/>
<feColorMatrix in="SourceAlpha" type="matrix" values="0 0 0 0 0 0 0 0 0 0 0 0 0 0 0 0 0 0 127 0" result="hardAlpha"/>
<feOffset dy="4"/>
<feGaussianBlur stdDeviation="15"/>
<feComposite in2="hardAlpha" operator="out"/>
<feColorMatrix type="matrix" values="0 0 0 0 0 0 0 0 0 0 0 0 0 0 0 0 0 0 0.1 0"/>
<feBlend mode="normal" in2="BackgroundImageFix" result="effect1_dropShadow_484_34"/>
<feBlend mode="normal" in="SourceGraphic" in2="effect1_dropShadow_484_34" result="shape"/>
</filter>
<filter id="filter1_d_484_34" x="105" y="0" width="155" height="100" filterUnits="userSpaceOnUse" color-interpolation-filters="sRGB">
<feFlood flood-opacity="0" result="BackgroundImageFix"/>
<feColorMatrix in="SourceAlpha" type="matrix" values="0 0 0 0 0 0 0 0 0 0 0 0 0 0 0 0 0 0 127 0" result="hardAlpha"/>
<feOffset dy="4"/>
<feGaussianBlur stdDeviation="15"/>
<feComposite in2="hardAlpha" operator="out"/>
<feColorMatrix type="matrix" values="0 0 0 0 0 0 0 0 0 0 0 0 0 0 0 0 0 0 0.1 0"/>
<feBlend mode="normal" in2="BackgroundImageFix" result="effect1_dropShadow_484_34"/>
<feBlend mode="normal" in="SourceGraphic" in2="effect1_dropShadow_484_34" result="shape"/>
</filter>
<clipPath id="clip0_484_34">
<rect width="49.2793" height="16" fill="white" transform="translate(53 39)"/>
</clipPath>
</defs>
</svg>
