<svg width="260" height="150" viewBox="0 0 260 150" fill="none" xmlns="http://www.w3.org/2000/svg">
<g filter="url(#filter0_d_869_1042)">
<rect x="30" y="26" width="95" height="40" rx="8" fill="white"/>
</g>
<g clip-path="url(#clip0_869_1042)">
<mask id="mask0_869_1042" style="mask-type:luminance" maskUnits="userSpaceOnUse" x="47" y="45" width="29" height="14">
<path d="M47 45.324H75.1564V59H47V45.324Z" fill="white"/>
</mask>
<g mask="url(#mask0_869_1042)">
<mask id="mask1_869_1042" style="mask-type:luminance" maskUnits="userSpaceOnUse" x="-958" y="-360" width="1132" height="571">
<path d="M-957.916 -359.525H173.034V210.978H-957.916V-359.525Z" fill="white"/>
</mask>
<g mask="url(#mask1_869_1042)">
<mask id="mask2_869_1042" style="mask-type:luminance" maskUnits="userSpaceOnUse" x="47" y="44" width="29" height="16">
<path d="M47 44.7207H75.8268V59.4693H47V44.7207Z" fill="white"/>
</mask>
<g mask="url(#mask2_869_1042)">
<mask id="mask3_869_1042" style="mask-type:luminance" maskUnits="userSpaceOnUse" x="47" y="45" width="29" height="14">
<path d="M48.4748 50.6872C48.4078 51.0895 48.4748 51.961 48.676 52.4302C49.0112 53.2347 49.6815 53.6369 50.5531 53.6369C51.5586 53.6369 52.2961 53.3018 52.7653 52.9666L52.9665 54.1733C52.3631 54.5755 51.3575 54.9107 50.2179 54.9107C48.0056 54.9107 47.067 53.2347 47.067 51.2235C47.067 48.4079 48.9441 45.3241 51.6257 45.3241C53.2346 45.3241 54.1061 46.3967 54.1061 47.6705C53.972 50.0839 51.5586 50.7543 48.4748 50.6872ZM51.3575 46.5308C50.0167 46.5308 49.0112 48.0057 48.6089 49.4805C50.8212 49.4805 52.6313 49.1453 52.6313 47.7375C52.6313 46.933 52.0949 46.5308 51.3575 46.5308ZM61.0782 50.4861C60.81 52.095 60.676 53.704 60.743 54.7766H59.4022C59.4022 54.2403 59.4693 53.3688 59.6033 52.3632H59.5363C58.5977 54.2403 57.4581 54.9777 56.3184 54.9777C54.8436 54.9777 53.905 53.704 53.905 51.8939C53.905 48.6761 56.0503 45.3241 59.6704 45.3241C60.4748 45.3241 61.3463 45.4582 61.8827 45.6593L61.0782 50.4861ZM59.3352 46.5308C57.1899 46.5308 55.4469 49.0112 55.3799 51.5587C55.3799 52.5643 55.7151 53.5699 56.7877 53.5699C57.9944 53.5699 59.4022 51.8269 59.8044 49.4135L60.2737 46.5978C60.1396 46.5978 59.8044 46.5308 59.3352 46.5308ZM67.1787 46.933C66.9106 46.7319 66.3743 46.5308 65.7039 46.5308C64.8324 46.5308 64.229 47.1342 64.229 47.9386C64.229 48.609 64.6313 49.0112 65.3687 49.4805C66.3072 50.0839 66.9106 50.8883 66.9106 51.8939C66.9106 53.8381 65.5028 54.9107 63.6927 54.9107C62.8212 54.9107 62.0167 54.5755 61.6145 54.3073L62.0167 53.1677C62.419 53.4358 63.1564 53.771 63.8268 53.771C64.7653 53.771 65.4357 53.1006 65.4357 52.2962C65.4357 51.5587 65.1676 51.1565 64.2961 50.6202C63.3575 50.0168 62.8212 49.2124 62.8212 48.2738C62.8212 46.6649 64.0949 45.3911 65.838 45.3911C66.5754 45.3911 67.2458 45.5923 67.581 45.8604L67.1787 46.933ZM72.0726 52.4973C71.2011 54.5085 70.3296 56.1174 69.1899 57.3241C68.2514 58.3967 67.2458 58.799 66.7765 58.933L66.4413 57.5923C66.7765 57.4582 67.3799 57.19 67.9832 56.7207C68.5195 56.2515 69.1229 55.514 69.5922 54.5755C69.6592 54.4414 69.6592 54.3073 69.6592 54.1733L67.9832 45.5252H69.4581L70.2626 50.4861C70.4637 51.5587 70.5307 52.2291 70.6648 52.8995H70.7318C70.9329 52.2962 71.2011 51.6928 71.6033 50.6202L73.7486 45.4582H75.1564L72.0726 52.4973Z" fill="white"/>
</mask>
<g mask="url(#mask3_869_1042)">
<mask id="mask4_869_1042" style="mask-type:luminance" maskUnits="userSpaceOnUse" x="47" y="44" width="29" height="16">
<path d="M47 44.7207H75.8268V59.4693H47V44.7207Z" fill="white"/>
</mask>
<g mask="url(#mask4_869_1042)">
<path d="M43.6481 41.972H78.5084V62.3519H43.6481V41.972Z" fill="#252525"/>
</g>
</g>
</g>
</g>
</g>
<mask id="mask5_869_1042" style="mask-type:luminance" maskUnits="userSpaceOnUse" x="68" y="40" width="20" height="17">
<path d="M71.8715 56.7207C71.8715 56.7207 75.6257 50.5531 76.2961 47.6704C76.9665 44.7877 77.0336 43.2458 74.419 42.9777C71.7375 42.7095 68.7207 42.9777 68.7207 42.9777C68.7207 42.9777 72.9442 40.2961 78.5084 40.4972C84.1397 40.6313 87.3576 42.9777 87.3576 42.9777C87.3576 42.9777 86.1509 43.4469 84.2067 43.581C82.2626 43.7821 81.5252 44.1844 81.6593 46.3967C81.7933 48.609 82.5978 50.1509 82.5978 50.1509C82.5978 50.1509 79.447 48.0726 77.5028 50.1509C75.5587 52.2291 75.1565 53.1676 74.0168 54.5084C72.9442 55.8492 71.8715 56.7207 71.8715 56.7207Z" fill="white"/>
</mask>
<g mask="url(#mask5_869_1042)">
<mask id="mask6_869_1042" style="mask-type:luminance" maskUnits="userSpaceOnUse" x="-958" y="-360" width="1132" height="571">
<path d="M-957.916 -359.525H173.033V210.978H-957.916V-359.525Z" fill="white"/>
</mask>
<g mask="url(#mask6_869_1042)">
<path d="M65.3688 37.0781H90.7766V60.0725H65.3688V37.0781Z" fill="#136BB5"/>
</g>
</g>
<mask id="mask7_869_1042" style="mask-type:luminance" maskUnits="userSpaceOnUse" x="75" y="35" width="6" height="5">
<path d="M78.3072 35C79.648 35 80.7206 36.0726 80.7206 37.4134C80.7206 38.7542 79.648 39.8268 78.3072 39.8268C76.9664 39.8268 75.8938 38.7542 75.8938 37.4134C75.8938 36.0726 77.0335 35 78.3072 35Z" fill="white"/>
</mask>
<g mask="url(#mask7_869_1042)">
<mask id="mask8_869_1042" style="mask-type:luminance" maskUnits="userSpaceOnUse" x="-958" y="-360" width="1132" height="571">
<path d="M-957.916 -359.525H173.033V210.978H-957.916V-359.525Z" fill="white"/>
</mask>
<g mask="url(#mask8_869_1042)">
<path d="M72.5419 31.6481H84.0726V43.1788H72.5419V31.6481Z" fill="#F8A81B"/>
</g>
</g>
<mask id="mask9_869_1042" style="mask-type:luminance" maskUnits="userSpaceOnUse" x="82" y="45" width="26" height="14">
<path d="M82.5308 45.324H107.067V59H82.5308V45.324Z" fill="white"/>
</mask>
<g mask="url(#mask9_869_1042)">
<mask id="mask10_869_1042" style="mask-type:luminance" maskUnits="userSpaceOnUse" x="-958" y="-360" width="1132" height="571">
<path d="M-957.916 -359.525H173.034V210.978H-957.916V-359.525Z" fill="white"/>
</mask>
<g mask="url(#mask10_869_1042)">
<mask id="mask11_869_1042" style="mask-type:luminance" maskUnits="userSpaceOnUse" x="82" y="44" width="26" height="16">
<path d="M82.5308 44.7207H107.335V59.4693H82.5308V44.7207Z" fill="white"/>
</mask>
<g mask="url(#mask11_869_1042)">
<mask id="mask12_869_1042" style="mask-type:luminance" maskUnits="userSpaceOnUse" x="82" y="45" width="26" height="14">
<path d="M86.4861 54.9106C85.6146 54.9106 85.0112 54.7095 84.676 54.5084H84.609L83.9386 58.4637H82.5308L84.2067 48.743C84.4079 47.6033 84.5419 46.3966 84.676 45.4581H85.9498L85.6816 47.2011H85.7486C86.4861 45.9944 87.6257 45.257 88.6984 45.257C90.5084 45.257 91.2458 46.8659 91.2458 48.6089C91.3129 51.8938 89.2347 54.9106 86.4861 54.9106ZM88.2291 46.5977C87.0894 46.5977 85.6816 48.0056 85.2794 50.6201L84.8771 53.1676C85.2123 53.5028 85.8157 53.7039 86.4861 53.7039C88.2961 53.7039 89.838 51.1564 89.838 48.743C89.838 47.7374 89.4358 46.5977 88.2291 46.5977ZM98.6201 50.486C98.352 52.0949 98.2179 53.7039 98.285 54.7765H96.9442C96.9442 54.2402 97.0112 53.3687 97.1453 52.3631H97.0782C96.1397 54.2402 95.0671 54.9776 93.8604 54.9776C92.3855 54.9776 91.447 53.7039 91.447 51.8938C91.447 48.676 93.5922 45.324 97.2123 45.324C98.0168 45.324 98.8883 45.4581 99.4246 45.6592L98.6201 50.486ZM96.8771 46.5307C94.7319 46.5307 92.9889 49.0111 92.9889 51.5586C92.9889 52.5642 93.3241 53.5698 94.3967 53.5698C95.6034 53.5698 97.0112 51.8268 97.4134 49.4134L97.8827 46.5977C97.6816 46.5977 97.3464 46.5307 96.8771 46.5307ZM103.983 52.4972C103.112 54.5084 102.24 56.1173 101.101 57.324C100.162 58.3966 99.1565 58.7989 98.6872 58.9329L98.352 57.5922C98.6872 57.4581 99.2905 57.1899 99.8939 56.7206C100.43 56.2514 101.034 55.5139 101.503 54.5754C101.57 54.4413 101.57 54.3072 101.57 54.1732L99.8939 45.5251H101.369L102.173 50.486C102.374 51.5586 102.441 52.229 102.575 52.8994H102.642C102.844 52.2961 103.112 51.6927 103.514 50.6201L105.592 45.4581H107.067L103.983 52.4972Z" fill="white"/>
</mask>
<g mask="url(#mask12_869_1042)">
<mask id="mask13_869_1042" style="mask-type:luminance" maskUnits="userSpaceOnUse" x="82" y="44" width="26" height="16">
<path d="M82.5308 44.7207H107.335V59.4693H82.5308V44.7207Z" fill="white"/>
</mask>
<g mask="url(#mask13_869_1042)">
<path d="M79.1788 41.972H110.419V62.3519H79.1788V41.972Z" fill="#252525"/>
</g>
</g>
</g>
</g>
</g>
</g>
<g filter="url(#filter1_d_869_1042)">
<rect x="135" y="26" width="95" height="40" rx="8" fill="white"/>
</g>
<path d="M164.214 41.3806C163.501 41.3806 162.932 41.1691 162.507 40.746C162.082 40.3094 161.869 39.7908 161.869 39.1903C161.869 38.5899 162.075 38.0781 162.486 37.655C162.911 37.2183 163.487 37 164.214 37C164.941 37 165.51 37.2183 165.921 37.655C166.346 38.0781 166.559 38.5899 166.559 39.1903C166.559 39.7908 166.346 40.3094 165.921 40.746C165.51 41.1691 164.941 41.3806 164.214 41.3806Z" fill="#00B004"/>
<path d="M191.12 52.7007V50.0396C192.436 49.1935 193.534 48.3337 194.411 47.4604C195.303 46.5869 195.974 45.7476 196.427 44.9425C196.879 44.1373 197.106 43.4345 197.106 42.8341C197.106 41.8924 196.639 41.4216 195.707 41.4216C195.172 41.4216 194.713 41.5922 194.329 41.9334C193.959 42.2609 193.691 42.6635 193.527 43.1411L190.667 41.5649C190.914 40.8553 191.305 40.2344 191.84 39.7021C192.375 39.1563 193.019 38.7332 193.774 38.433C194.528 38.1191 195.344 37.9622 196.221 37.9622C197.236 37.9622 198.107 38.1532 198.834 38.5353C199.56 38.9174 200.116 39.4428 200.5 40.1115C200.884 40.7666 201.069 41.5172 201.055 42.3632C201.055 43.5642 200.685 44.7719 199.944 45.9865C199.204 47.2011 197.983 48.3883 196.283 49.5483H201.384V52.7007H191.12Z" fill="#00B004"/>
<path d="M207.938 52.7006V49.5892H201.829V46.9076L208.987 38.1259H211.764V46.6619H213.821V49.5892H211.764V52.7006H207.938ZM205.49 46.6619H207.938V43.6733L205.49 46.6619Z" fill="#00B004"/>
<path d="M156.81 52.9245C155.672 52.9245 154.685 52.713 153.848 52.29C153.026 51.8533 152.388 51.2392 151.936 50.4476C151.483 49.6562 151.257 48.7282 151.257 47.6637C151.257 46.5584 151.504 45.5826 151.997 44.7365C152.491 43.8904 153.17 43.2285 154.034 42.7509C154.911 42.2732 155.919 42.0344 157.057 42.0344C158.058 42.0344 158.929 42.2255 159.67 42.6076C160.41 42.9897 160.972 43.556 161.356 44.3066L158.682 46.3127C158.422 45.6576 157.914 45.3302 157.16 45.3302C156.57 45.3302 156.097 45.5416 155.741 45.9647C155.384 46.3741 155.206 46.92 155.206 47.6023C155.206 48.2437 155.364 48.7419 155.679 49.0967C155.995 49.4515 156.447 49.6289 157.037 49.6289C157.791 49.6289 158.36 49.2808 158.744 48.5849L161.315 50.6933C160.89 51.4303 160.293 51.9898 159.526 52.3719C158.758 52.7404 157.853 52.9245 156.81 52.9245Z" fill="black"/>
<path d="M166.148 42.1777V52.6994H162.323V42.1777H166.148Z" fill="black"/>
<path d="M173.575 52.9246C172.176 52.9246 171.079 52.5493 170.284 51.7987C169.488 51.0345 169.097 50.0383 169.111 48.8101L169.173 45.3097H167.486V42.1777H169.235L169.276 40.0488H173.061L173.019 42.1777H176.187V45.3097H172.978L172.937 48.3597C172.923 48.7828 173.033 49.1103 173.266 49.3424C173.513 49.5607 173.849 49.6698 174.274 49.6698C174.562 49.6698 174.85 49.6356 175.138 49.5675C175.426 49.4855 175.721 49.3424 176.023 49.1376L177.092 52.0034C176.749 52.2901 176.276 52.5151 175.673 52.679C175.069 52.8427 174.37 52.9246 173.575 52.9246Z" fill="black"/>
<path d="M181.828 56.9981C181.389 56.9981 180.909 56.964 180.388 56.8958C179.881 56.8412 179.387 56.7457 178.907 56.6092C178.441 56.4728 178.05 56.3021 177.735 56.0975L178.64 52.8632C179.161 53.1225 179.689 53.3203 180.223 53.4568C180.772 53.607 181.382 53.6819 182.054 53.6819C183.138 53.6819 183.912 53.45 184.379 52.986C184.845 52.5219 185.119 51.7987 185.201 50.8162L185.242 50.3045C184.831 50.9595 184.317 51.478 183.7 51.8601C183.083 52.2422 182.376 52.4333 181.581 52.4333C180.251 52.4333 179.271 51.9966 178.64 51.1232C178.009 50.2499 177.7 49.0421 177.714 47.5L177.735 42.1777H181.561L181.54 47.2543C181.54 47.8002 181.643 48.2096 181.848 48.4826C182.068 48.7555 182.37 48.892 182.754 48.892C183.234 48.892 183.638 48.6941 183.967 48.2984C184.31 47.8889 184.577 47.1997 184.769 46.2308C184.975 45.2482 185.092 43.8972 185.119 42.1777H188.822V50.4068C188.822 51.9352 188.527 53.1839 187.937 54.1529C187.361 55.1217 186.545 55.8382 185.489 56.3021C184.447 56.7661 183.227 56.9981 181.828 56.9981Z" fill="black"/>
<g filter="url(#filter2_d_869_1042)">
<rect x="30" y="76" width="200" height="40" rx="8" fill="white"/>
</g>
<path fill-rule="evenodd" clip-rule="evenodd" d="M88.2192 104.747L84.9434 104.743L84.9554 93.5093L96.7486 93.521L96.7371 104.755L93.4612 104.752L93.4707 95.7001L88.2289 95.6952L88.2192 104.747Z" fill="#75AF26"/>
<path fill-rule="evenodd" clip-rule="evenodd" d="M101.208 100.667C101.21 98.3888 102.659 97.9397 103.573 97.9406C104.466 97.9414 105.915 98.3939 105.912 100.672C105.911 102.084 105.295 103.432 103.567 103.43C101.8 103.428 101.206 102.079 101.208 100.667ZM98.3322 96.6031L98.3203 107.724L101.339 107.727L101.343 103.923C102.354 104.986 104.002 105.067 104.399 105.067C107.278 105.07 109.047 103.292 109.049 100.706C109.052 98.0098 107.308 96.3076 104.468 96.3048C103.753 96.3036 102.363 96.4153 101.211 97.5862H101.151L101.173 96.606L98.3322 96.6031Z" fill="#75AF26"/>
<path fill-rule="evenodd" clip-rule="evenodd" d="M116.532 103.795C115.419 104.806 114.346 105.077 113.155 105.076C109.899 105.073 109.782 102.698 109.783 101.719L109.789 96.6156L112.807 96.6183L112.802 101.337C112.8 102.958 113.375 103.439 114.487 103.44C116.393 103.442 116.534 101.789 116.534 101.196L116.539 96.622L119.557 96.6252L119.549 104.778L116.531 104.775L116.532 103.795Z" fill="#75AF26"/>
<path fill-rule="evenodd" clip-rule="evenodd" d="M123.883 98.2668L125.512 98.2683C126.365 98.2693 127.099 98.3977 127.099 99.0712C127.098 99.8093 125.947 99.8253 125.451 99.8249L123.882 99.8233L123.883 98.2668ZM120.868 96.626L120.859 104.78L126.855 104.786C129.04 104.788 130.549 104.37 130.55 102.703C130.552 101.419 129.818 100.857 128.15 100.565V100.517C129.242 100.374 130.195 99.7173 130.196 98.6095C130.198 96.6354 127.816 96.6329 126.883 96.6319L120.868 96.626ZM123.88 101.348L125.727 101.35C127.156 101.351 127.453 101.768 127.453 102.313C127.452 102.666 127.254 103.148 125.765 103.146L123.878 103.144L123.88 101.348Z" fill="#75AF26"/>
<path fill-rule="evenodd" clip-rule="evenodd" d="M137.859 101.426C137.857 103.063 136.388 103.462 135.653 103.462C135.098 103.461 134.105 103.285 134.105 102.513C134.106 101.597 135.238 101.424 135.874 101.344C137.044 101.184 136.946 101.232 137.86 100.912L137.859 101.426ZM134.366 99.2723C134.368 98.0677 135.678 97.9734 136.215 97.9738C136.553 97.9743 137.804 97.9917 137.842 99.0497L137.842 99.2758C137.781 100.078 136.987 99.9155 134.763 100.187C132.936 100.425 131.01 100.874 131.008 102.734C131.007 103.409 131.303 105.094 134.519 105.098C135.751 105.099 137.101 104.795 137.896 103.993H137.956L138.214 104.796L141.389 104.8V104.656C140.815 104.542 140.774 103.995 140.796 103.114L140.86 99.39C140.88 98.4446 140.782 96.3414 136.237 96.3368C135.145 96.3358 131.631 96.4285 131.489 99.2693L134.366 99.2723Z" fill="#75AF26"/>
<path fill-rule="evenodd" clip-rule="evenodd" d="M141.197 98.2838L141.199 96.646L150.887 96.6558L150.885 98.2936L147.549 98.2903L147.543 104.806L144.525 104.803L144.532 98.2873L141.197 98.2838Z" fill="#75AF26"/>
<path fill-rule="evenodd" clip-rule="evenodd" d="M154.737 99.9334L157.456 99.9364C158.249 99.937 159.838 100.019 159.836 101.368C159.835 102.428 158.683 102.633 157.393 102.632L154.734 102.629L154.737 99.9334ZM154.742 95.7614L162.265 95.7691L162.267 93.5864L151.466 93.5753L151.455 104.809L158.086 104.816C161.304 104.82 163.369 103.73 163.371 101.436C163.375 97.841 159.245 97.7565 158.094 97.7555L154.739 97.7522L154.742 95.7614Z" fill="#75AF26"/>
<path fill-rule="evenodd" clip-rule="evenodd" d="M170.795 101.459C170.793 103.096 169.324 103.495 168.589 103.495C168.033 103.494 167.042 103.317 167.042 102.545C167.044 101.63 168.175 101.457 168.81 101.377C169.981 101.216 169.882 101.265 170.795 100.945V101.459ZM167.304 99.3053C167.305 98.1007 168.615 98.0062 169.15 98.0068C169.489 98.0068 170.74 98.0248 170.778 99.0828V99.3089C170.717 100.111 169.923 99.9482 167.699 100.22C165.872 100.458 163.947 100.907 163.945 102.767C163.944 103.442 164.24 105.128 167.456 105.131C168.687 105.132 170.038 104.829 170.832 104.025H170.893L171.15 104.83L174.326 104.832V104.689C173.75 104.575 173.71 104.028 173.731 103.147L173.796 99.4227C173.816 98.4773 173.718 96.3745 169.171 96.37C168.08 96.3688 164.566 96.461 164.424 99.3024L167.304 99.3053Z" fill="#75AF26"/>
<path fill-rule="evenodd" clip-rule="evenodd" d="M178.099 104.836L175.082 104.833L175.09 96.6801L178.108 96.683L178.104 99.7495L181.737 99.7534L181.741 96.6871L184.76 96.69L184.75 104.843L181.732 104.84L181.736 101.39L178.103 101.386L178.099 104.836Z" fill="#75AF26"/>
<path fill-rule="evenodd" clip-rule="evenodd" d="M192.383 96.6971L195.739 96.7006L191.585 100.516L195.927 104.855L192.394 104.852L189.142 101.284H189.083L189.08 104.848L186.061 104.845L186.07 96.6914L189.088 96.6942L189.084 99.968H189.143L192.383 96.6971Z" fill="#75AF26"/>
<path fill-rule="evenodd" clip-rule="evenodd" d="M63 104.749L70.5601 104.756L70.5679 97.4254L63.0076 97.4182L63 104.749Z" fill="black"/>
<path fill-rule="evenodd" clip-rule="evenodd" d="M63.0292 86L63.0195 95.1251L65.018 95.1271C70.2779 95.1323 72.9424 97.7222 72.9368 102.823L72.9347 104.761L82.3434 104.77L82.3635 86.0191L63.0292 86ZM78.3617 89.8916L78.35 100.89L76.8075 100.889C76.1478 95.449 72.627 92.028 67.0199 91.3776L67.0213 89.8805L78.3617 89.8916Z" fill="#75AF26"/>
<defs>
<filter id="filter0_d_869_1042" x="0" y="0" width="155" height="100" filterUnits="userSpaceOnUse" color-interpolation-filters="sRGB">
<feFlood flood-opacity="0" result="BackgroundImageFix"/>
<feColorMatrix in="SourceAlpha" type="matrix" values="0 0 0 0 0 0 0 0 0 0 0 0 0 0 0 0 0 0 127 0" result="hardAlpha"/>
<feOffset dy="4"/>
<feGaussianBlur stdDeviation="15"/>
<feComposite in2="hardAlpha" operator="out"/>
<feColorMatrix type="matrix" values="0 0 0 0 0 0 0 0 0 0 0 0 0 0 0 0 0 0 0.1 0"/>
<feBlend mode="normal" in2="BackgroundImageFix" result="effect1_dropShadow_869_1042"/>
<feBlend mode="normal" in="SourceGraphic" in2="effect1_dropShadow_869_1042" result="shape"/>
</filter>
<filter id="filter1_d_869_1042" x="105" y="0" width="155" height="100" filterUnits="userSpaceOnUse" color-interpolation-filters="sRGB">
<feFlood flood-opacity="0" result="BackgroundImageFix"/>
<feColorMatrix in="SourceAlpha" type="matrix" values="0 0 0 0 0 0 0 0 0 0 0 0 0 0 0 0 0 0 127 0" result="hardAlpha"/>
<feOffset dy="4"/>
<feGaussianBlur stdDeviation="15"/>
<feComposite in2="hardAlpha" operator="out"/>
<feColorMatrix type="matrix" values="0 0 0 0 0 0 0 0 0 0 0 0 0 0 0 0 0 0 0.1 0"/>
<feBlend mode="normal" in2="BackgroundImageFix" result="effect1_dropShadow_869_1042"/>
<feBlend mode="normal" in="SourceGraphic" in2="effect1_dropShadow_869_1042" result="shape"/>
</filter>
<filter id="filter2_d_869_1042" x="0" y="50" width="260" height="100" filterUnits="userSpaceOnUse" color-interpolation-filters="sRGB">
<feFlood flood-opacity="0" result="BackgroundImageFix"/>
<feColorMatrix in="SourceAlpha" type="matrix" values="0 0 0 0 0 0 0 0 0 0 0 0 0 0 0 0 0 0 127 0" result="hardAlpha"/>
<feOffset dy="4"/>
<feGaussianBlur stdDeviation="15"/>
<feComposite in2="hardAlpha" operator="out"/>
<feColorMatrix type="matrix" values="0 0 0 0 0 0 0 0 0 0 0 0 0 0 0 0 0 0 0.1 0"/>
<feBlend mode="normal" in2="BackgroundImageFix" result="effect1_dropShadow_869_1042"/>
<feBlend mode="normal" in="SourceGraphic" in2="effect1_dropShadow_869_1042" result="shape"/>
</filter>
<clipPath id="clip0_869_1042">
<rect width="60.067" height="24" fill="white" transform="translate(47 35)"/>
</clipPath>
</defs>
</svg>
