<svg width="260" height="150" viewBox="0 0 260 150" fill="none" xmlns="http://www.w3.org/2000/svg">
<g filter="url(#filter0_d_869_1155)">
<rect x="30" y="26" width="95" height="40" rx="8" fill="white"/>
</g>
<g clip-path="url(#clip0_869_1155)">
<path d="M57.4559 40H43V54.4559H57.4559V40Z" fill="url(#paint0_linear_869_1155)"/>
<path d="M57.0087 47.312C57.0087 50.3275 57.1466 53.4171 57.1466 53.4171C57.1398 53.7633 56.918 53.9852 56.6389 53.9852H44.1296C43.8505 53.9852 43.6555 53.7364 43.6219 53.4171C43.6219 53.4171 43.2622 50.778 43.2622 46.7472C43.2622 42.7164 43.6219 40.8236 43.6219 40.8236C43.6656 40.4908 43.8472 40.2555 44.1296 40.2555H56.6423C56.9213 40.2555 57.1566 40.5144 57.1499 40.8236C57.1499 40.8236 57.0121 44.2964 57.0121 47.312H57.0087Z" fill="url(#paint1_linear_869_1155)"/>
<path d="M54.2252 43.9031C53.331 44.4276 53.0587 44.4679 52.0871 45.0495L52.1342 44.9419C52.6418 44.3872 52.8637 44.1519 53.1999 43.6611C52.3023 43.7082 51.0046 43.8157 50.0734 44.0208L50.1238 43.9199C50.9676 43.5098 52.5309 43.103 53.331 42.9954C53.136 42.7231 51.5492 41.8625 51.1559 41.6978L51.2029 41.5969C52.4065 41.7314 53.9966 42.2962 54.6925 42.7198C54.985 42.629 55.2842 42.6189 55.8288 42.5719C55.8288 42.5719 55.7481 42.9013 55.1564 43.3081C55.3044 43.7014 54.9514 45.8833 54.6589 46.4615C54.6455 45.5504 54.5648 44.3973 54.2252 43.8998V43.9031Z" fill="url(#paint2_linear_869_1155)"/>
<path d="M47.6932 51.7193L47.7402 51.6185C47.2662 51.4336 46.7922 51.289 46.4056 50.926C46.5266 50.5898 46.6644 50.3275 46.8897 49.9947L46.9367 49.8939C46.53 49.9544 46.1602 50.1057 45.8072 50.1729C45.5281 49.6854 45.4206 49.0164 45.2794 48.3777L45.2323 48.4785C45.155 49.2047 45.1214 49.7258 45.2256 50.304C44.9331 50.3847 44.6742 50.3981 44.4355 50.499L44.3918 50.5999C44.7684 50.8318 45.0743 51.01 45.5012 51.2083C45.7299 51.6992 45.9652 52.0286 46.3484 52.4052L46.3955 52.3043C46.3283 52.0253 46.2375 51.7967 46.2711 51.4907C46.7451 51.6286 47.1519 51.7025 47.6932 51.7193Z" fill="url(#paint3_linear_869_1155)"/>
<path d="M49.0111 44.4578C49.0111 44.4578 48.8194 44.7974 48.6681 45.2445H48.6312C49.7439 45.3958 50.7962 45.8463 51.0584 46.0009L51.0113 46.1018C49.8549 45.9001 49.2464 45.9202 48.8161 45.9606C48.3858 46.0009 48.2983 46.0547 48.2983 46.0547C48.0496 46.596 47.905 47.4801 47.8479 47.8062L47.8008 47.9071C47.589 47.3994 47.2831 46.3842 47.2831 46.3842C46.7015 46.6968 45.3601 47.9575 45.3601 47.9575C46.0997 46.4817 46.8494 45.8093 46.8494 45.8093C46.5905 45.5504 45.9182 45.4193 45.424 45.3958L45.471 45.2949C45.7803 45.2042 46.4157 45.1672 46.8427 45.147C47.3469 45.1302 47.6529 45.1605 47.6529 45.1605C48.1034 44.8007 48.7724 44.4881 49.0111 44.4545V44.4578Z" fill="url(#paint4_linear_869_1155)"/>
<path d="M50.4297 50.8016C50.1977 51.1176 49.996 51.3664 49.7405 51.6555C49.3606 51.7598 48.9034 51.7127 48.5538 51.7261L48.5067 51.827C48.7723 51.9615 49.0312 52.0455 49.3068 52.1027C49.0816 52.3077 48.7824 52.4624 48.5706 52.6036L48.5235 52.7044C48.974 52.5969 49.5691 52.4052 50.0128 52.143C50.2448 52.1531 50.4599 52.1396 50.6179 52.106C50.6179 52.106 50.665 52.0018 50.665 52.0052C50.6348 51.9043 50.544 51.8404 50.5171 51.6992C50.934 51.3765 51.2332 51.084 51.5794 50.7344L51.6265 50.6335C51.2836 50.8689 50.8667 51.195 50.4667 51.3866C50.4499 51.1882 50.4364 51.0235 50.4263 50.8016H50.4297Z" fill="url(#paint5_linear_869_1155)"/>
<path d="M54.2723 43.8023C53.3814 44.3268 53.1057 44.3705 52.1375 44.9521C52.7023 44.3402 52.8973 44.078 53.2469 43.567C52.3527 43.6141 51.0516 43.7216 50.1238 43.9267C50.9306 43.4964 52.5342 43.0157 53.378 42.9014C53.183 42.6324 51.5963 41.7718 51.1996 41.6071C52.4569 41.7045 53.9899 42.1752 54.7362 42.6291C55.0287 42.5383 55.3346 42.5316 55.8792 42.4845C55.7414 42.7232 55.7347 42.861 55.2001 43.214C55.3481 43.6107 54.9951 45.7892 54.7026 46.3674C54.6925 45.4563 54.6118 44.3066 54.2723 43.8057V43.8023Z" fill="white"/>
<path d="M47.7402 51.6185C47.2292 51.4269 46.8594 51.2084 46.4526 50.8285C46.5737 50.4923 46.7115 50.2301 46.9401 49.8939C46.5232 49.9578 46.2173 50.0049 45.8576 50.0721C45.5651 49.5611 45.434 49.0669 45.2827 48.3811C45.202 49.1106 45.1718 49.6283 45.276 50.2099C44.9465 50.3007 44.7146 50.3814 44.4423 50.5024C44.8221 50.7344 45.1281 50.9126 45.555 51.1109C45.7836 51.5984 46.019 51.9312 46.4022 52.3077C46.3114 51.985 46.2879 51.7328 46.3249 51.3933C46.7989 51.5311 47.2057 51.6051 47.7436 51.6219L47.7402 51.6185Z" fill="white"/>
<path d="M49.0748 44.3704C48.9168 44.5789 48.7286 44.9655 48.6815 45.1436C50.0027 45.3218 51.0617 46.0009 51.0617 46.0009C49.9052 45.7958 49.2967 45.8227 48.8664 45.8597C48.4395 45.9001 48.3487 45.9505 48.3487 45.9505C48.036 46.6329 47.8511 47.8062 47.8511 47.8062C47.6427 47.2986 47.3368 46.2833 47.3368 46.2833C46.7552 46.596 45.4138 47.8566 45.4138 47.8566C46.1501 46.3808 46.8997 45.7084 46.8997 45.7084C46.6409 45.4462 45.9685 45.3185 45.4743 45.2949C45.7298 45.1907 46.3887 45.0663 46.893 45.0462C47.3973 45.0327 47.7032 45.0596 47.7032 45.0596C48.1537 44.7032 48.8395 44.404 49.0748 44.3671V44.3704Z" fill="white"/>
<path d="M50.4767 50.7041C50.2448 51.0201 50.0431 51.2689 49.7842 51.558C49.3404 51.6824 48.9841 51.7295 48.5504 51.7295C48.816 51.8673 49.0749 51.948 49.3505 52.0085C49.0715 52.2607 48.8395 52.4388 48.5672 52.6103C49.0177 52.5027 49.6128 52.3111 50.0565 52.0489C50.2885 52.059 50.5036 52.0421 50.6616 52.0119C50.6213 51.8774 50.5944 51.7766 50.5608 51.6051C50.9777 51.2824 51.2802 50.9899 51.6265 50.6403C51.2567 50.8991 50.9407 51.0907 50.5137 51.2925C50.4969 51.0941 50.4835 50.9294 50.4734 50.7075L50.4767 50.7041Z" fill="white"/>
<path d="M62.6163 49.7325C63.097 49.7325 63.6214 49.9039 63.6214 50.3477C63.6214 50.5864 63.4164 50.8049 63.1071 50.9091C63.5139 51.057 63.7526 51.2924 63.7526 51.6017C63.7526 52.1396 63.1004 52.3211 62.4851 52.3211H61.0765C61.1102 51.9849 61.1202 51.5008 61.1202 50.9596C61.1202 50.6032 61.1169 50.0653 61.0833 49.7291H62.6196L62.6163 49.7325ZM62.2196 50.0619C62.0952 50.0619 61.9708 50.072 61.9069 50.0821C61.8935 50.4183 61.8867 50.583 61.8867 50.9663C61.8867 51.4336 61.8867 51.605 61.9069 51.9748H62.2801C62.7205 51.9748 62.9323 51.8437 62.9323 51.5748C62.9323 51.2756 62.6566 51.1377 62.2969 51.1377H62.0817L62.2296 50.7478H62.3877C62.5692 50.7478 62.8146 50.6503 62.8146 50.4149C62.8146 50.1662 62.5894 50.0586 62.2128 50.0586L62.2196 50.0619Z" fill="#231F20"/>
<path d="M66.6034 49.7325C66.5799 50.025 66.5665 50.7074 66.5665 50.9629C66.5665 51.1982 66.5698 51.9681 66.6034 52.3245H65.9916L65.0099 50.8789C64.9292 50.7646 64.8721 50.6536 64.8452 50.5225V51.3428C64.8452 51.6555 64.8553 52.0992 64.8822 52.3245H64.1863C64.23 51.9311 64.2333 51.1915 64.2333 50.9629C64.2333 50.7175 64.2199 50.025 64.1997 49.7325H64.9931L65.8201 51.0772C65.8638 51.1445 65.8773 51.1781 65.8975 51.2352V49.7291H66.6001L66.6034 49.7325Z" fill="#231F20"/>
<path d="M68.4928 49.7324C69.0542 49.7324 69.7333 49.8904 69.7333 50.4922C69.7333 51.02 69.2526 51.2856 68.2776 51.2856C68.2205 51.2856 68.0625 51.2856 68.0188 51.2822C68.0389 51.6419 68.0322 52.079 68.0557 52.3244H67.2052C67.2388 51.968 67.2489 51.3831 67.2489 50.9629C67.2489 50.5931 67.2388 49.9778 67.2052 49.7324H68.4928ZM68.0255 50.0955C68.0255 50.2636 68.0154 50.4384 68.0154 50.6065C68.0154 50.7309 68.0188 50.8284 68.0255 50.9191C68.0557 50.9225 68.1902 50.9225 68.2743 50.9225C68.5466 50.9225 68.9265 50.8452 68.9265 50.4956C68.9265 50.1459 68.5365 50.0921 68.244 50.0921C68.207 50.0921 68.0625 50.0921 68.0221 50.0955H68.0255Z" fill="#231F20"/>
<path d="M72.4126 49.7324C72.974 49.7324 73.6531 49.8904 73.6531 50.4922C73.6531 51.02 73.1724 51.2856 72.1974 51.2856C72.1403 51.2856 71.9823 51.2856 71.9386 51.2822C71.9587 51.6419 71.952 52.079 71.9755 52.3244H71.125C71.1586 51.968 71.1687 51.3831 71.1687 50.9629C71.1687 50.5931 71.1586 49.9778 71.125 49.7324H72.4126ZM71.9486 50.0955C71.9486 50.2636 71.9386 50.4384 71.9386 50.6065C71.9386 50.7309 71.9419 50.8284 71.9486 50.9191C71.9789 50.9225 72.1134 50.9225 72.1974 50.9225C72.4731 50.9225 72.8496 50.8452 72.8496 50.4956C72.8496 50.1459 72.4596 50.0921 72.1672 50.0921C72.1302 50.0921 71.9856 50.0921 71.9453 50.0955H71.9486Z" fill="#231F20"/>
<path d="M75.166 49.7324C75.2635 50.0383 76.1174 51.9042 76.3157 52.3244H75.4652C75.4316 52.2235 75.3643 52.0857 75.24 51.7562C75.1088 51.7529 74.9744 51.7529 74.7996 51.7529C74.6247 51.7529 74.5004 51.7562 74.3625 51.763C74.2852 51.9748 74.218 52.1429 74.1574 52.3244H73.4178C73.5624 52.0017 74.4129 50.1459 74.5676 49.7324H75.1727H75.166ZM75.092 51.3629C74.9912 51.1141 74.8533 50.8015 74.7861 50.583C74.7155 50.8048 74.5609 51.1444 74.4835 51.3629C74.581 51.3663 74.7088 51.373 74.7962 51.373C74.9172 51.373 74.9777 51.3696 75.0954 51.3629H75.092Z" fill="#231F20"/>
<path d="M77.9058 49.7324C78.474 49.7324 79.1497 49.9341 79.1497 50.5359C79.1497 50.8586 78.911 51.0872 78.5345 51.2385C78.6118 51.373 79.2405 52.1899 79.3648 52.3244H78.437C78.2723 52.0117 77.9596 51.4738 77.6537 51.0166C78.0235 51.0637 78.3462 50.8855 78.3462 50.5325C78.3462 50.1795 77.9529 50.0888 77.7613 50.0888C77.6738 50.0888 77.5125 50.0888 77.4553 50.0921C77.4419 50.4081 77.4352 50.788 77.4352 50.9629C77.4352 51.1881 77.4352 51.9311 77.4789 52.3244H76.6149C76.6586 51.9411 76.6687 51.4839 76.6687 50.9629C76.6687 50.5258 76.6653 49.998 76.625 49.7324H77.9092H77.9058Z" fill="#231F20"/>
<path d="M80.5584 49.7324C80.5382 50.0249 80.5248 50.7174 80.5248 50.9662C80.5248 51.1982 80.5248 51.9647 80.5584 52.321H79.7045C79.7482 51.9277 79.7515 51.1881 79.7515 50.9662C79.7515 50.7208 79.7381 50.0249 79.7179 49.7324H80.5584Z" fill="#231F20"/>
<path d="M82.6562 49.7325C83.1369 49.7325 83.6614 49.9039 83.6614 50.3477C83.6614 50.5864 83.4563 50.8049 83.147 50.9091C83.5538 51.057 83.7925 51.2924 83.7925 51.6017C83.7925 52.1396 83.1403 52.3211 82.5251 52.3211H81.1165C81.1501 51.9849 81.1602 51.5008 81.1602 50.9596C81.1602 50.6032 81.1568 50.0653 81.1232 49.7291H82.6595L82.6562 49.7325ZM82.2628 50.0619C82.1385 50.0619 82.0141 50.072 81.9502 50.0821C81.9367 50.4183 81.93 50.583 81.93 50.9663C81.93 51.4336 81.93 51.605 81.9502 51.9748H82.3234C82.7671 51.9748 82.9755 51.8437 82.9755 51.5748C82.9755 51.2756 82.7032 51.1377 82.3402 51.1377H82.125L82.2729 50.7478H82.4309C82.6125 50.7478 82.8579 50.6503 82.8579 50.4149C82.8579 50.1662 82.6326 50.0586 82.2561 50.0586L82.2628 50.0619Z" fill="#231F20"/>
<path d="M85.6414 49.7324C85.7389 50.0383 86.5928 51.9042 86.7911 52.3244H85.9406C85.907 52.2235 85.8398 52.0857 85.7154 51.7562C85.5843 51.7529 85.4498 51.7529 85.2716 51.7529C85.0934 51.7529 84.9724 51.7562 84.8346 51.763C84.7572 51.9748 84.69 52.1429 84.6295 52.3244H83.8899C84.0345 52.0017 84.885 50.1459 85.0396 49.7324H85.6448H85.6414ZM85.5708 51.3629C85.47 51.1141 85.3288 50.8015 85.2649 50.583C85.1943 50.8048 85.0396 51.1444 84.9623 51.3629C85.0598 51.3663 85.1876 51.373 85.275 51.373C85.396 51.373 85.4565 51.3696 85.5742 51.3629H85.5708Z" fill="#231F20"/>
<path d="M88.1258 49.6653C88.4586 49.6653 88.778 49.7123 88.9797 49.7762V50.4351C88.6973 50.2704 88.4183 50.1326 88.0485 50.1326C87.756 50.1326 87.7358 50.2469 87.7358 50.3343C87.7358 50.7713 89.2117 50.7747 89.2117 51.5614C89.2117 52.069 88.7343 52.3917 87.9443 52.3917C87.5879 52.3917 87.2517 52.3211 87.0198 52.2371V51.6084C87.5644 51.8639 87.8501 51.9446 88.1023 51.9446C88.304 51.9446 88.4519 51.8538 88.4519 51.679C88.4519 51.1848 86.9828 51.2319 86.9828 50.3914C86.9828 49.9309 87.4434 49.6653 88.1258 49.6653Z" fill="#231F20"/>
<path d="M93.4006 51.0637C93.3871 51.3192 93.3703 51.8571 93.3636 52.1631C93.0845 52.3076 92.6475 52.3883 92.2239 52.3883C91.2624 52.3883 90.6472 51.7832 90.6472 51.0369C90.6472 50.2535 91.2927 49.6619 92.3449 49.6619C92.5836 49.6619 92.9467 49.6988 93.1988 49.7627L93.0106 50.2737C92.8324 50.1628 92.5366 50.072 92.3315 50.072C91.7264 50.072 91.5112 50.6099 91.5112 51.0436C91.5112 51.7697 91.9012 52.0051 92.3382 52.0051C92.392 52.0051 92.5601 52.0017 92.6105 51.9849C92.6105 51.6722 92.6072 51.2722 92.5803 51.0637H93.3972H93.4006Z" fill="#231F20"/>
<path d="M95.1924 49.7324C95.7606 49.7324 96.4363 49.9341 96.4363 50.5359C96.4363 50.8586 96.1976 51.0872 95.8211 51.2385C95.8984 51.373 96.5271 52.1899 96.6515 52.3244H95.7236C95.5589 52.0117 95.2496 51.4738 94.9403 51.0166C95.3101 51.0637 95.6328 50.8855 95.6328 50.5325C95.6328 50.1795 95.2395 50.0888 95.0479 50.0888C94.9605 50.0888 94.7991 50.0888 94.7419 50.0921C94.7285 50.4081 94.7218 50.788 94.7218 50.9629C94.7218 51.1881 94.7218 51.9311 94.7655 52.3244H93.9015C93.9452 51.9411 93.9553 51.4839 93.9553 50.9629C93.9553 50.5258 93.9519 49.998 93.9116 49.7324H95.1958H95.1924Z" fill="#231F20"/>
<path d="M98.2013 52.3951C97.3944 52.3951 96.7893 51.8437 96.7893 51.0302C96.7893 50.2166 97.3944 49.6653 98.2013 49.6653C99.0081 49.6653 99.6099 50.2133 99.6099 51.0302C99.6099 51.8471 99.0048 52.3951 98.2013 52.3951ZM98.2013 49.9981C97.8281 49.9981 97.5894 50.3645 97.5894 51.0302C97.5894 51.6958 97.8247 52.0522 98.2013 52.0522C98.5778 52.0522 98.803 51.6958 98.803 51.0302C98.803 50.3645 98.5711 49.9981 98.2013 49.9981Z" fill="#231F20"/>
<path d="M100.81 49.7325C100.796 49.9039 100.79 50.0821 100.79 50.267V51.5008C100.79 51.837 100.894 52.0353 101.227 52.0353C101.516 52.0353 101.798 51.921 101.798 51.3899V50.1359C101.798 49.8703 101.795 49.8434 101.775 49.7325H102.491C102.461 49.9577 102.461 50.3813 102.461 50.7982V51.5344C102.461 52.1295 102.044 52.3883 101.217 52.3883C100.467 52.3883 100.006 52.2303 100.006 51.4941V50.5461C100.006 50.3074 99.9964 49.9107 99.9695 49.7291H100.81V49.7325Z" fill="#231F20"/>
<path d="M104.286 49.7324C104.848 49.7324 105.527 49.8904 105.527 50.4922C105.527 51.02 105.046 51.2856 104.071 51.2856C104.014 51.2856 103.856 51.2856 103.812 51.2822C103.832 51.6419 103.826 52.079 103.849 52.3244H102.999C103.032 51.968 103.042 51.3831 103.042 50.9629C103.042 50.5931 103.032 49.9778 102.999 49.7324H104.286ZM103.819 50.0955C103.819 50.2636 103.809 50.4384 103.809 50.6065C103.809 50.7309 103.812 50.8284 103.819 50.9191C103.849 50.9225 103.984 50.9225 104.068 50.9225C104.34 50.9225 104.72 50.8452 104.72 50.4956C104.72 50.1459 104.33 50.0921 104.037 50.0921C104 50.0921 103.856 50.0921 103.815 50.0955H103.819Z" fill="#231F20"/>
<path d="M62.4247 42.1616C62.3944 42.4978 62.3877 42.8273 62.3877 43.1668V45.8058C62.3877 46.2799 62.6297 46.6732 63.3895 46.6732C64.0417 46.6732 64.4787 46.4648 64.4787 45.3823V42.9079C64.4787 42.3768 64.4653 42.3264 64.4417 42.1616H65.5377C65.4806 42.5281 65.4806 43.382 65.4806 44.2191V45.6747C65.4806 46.8077 64.8149 47.2817 63.2786 47.2817C61.8868 47.2817 61.1203 46.9152 61.1203 45.426V43.7282C61.1203 43.2408 61.1068 42.4743 61.0631 42.165H62.4179L62.4247 42.1616Z" fill="#231F20"/>
<path d="M71.2225 42.1616C70.957 42.4407 69.582 43.9837 69.2155 44.3502C69.5013 44.7368 71.1654 46.8816 71.468 47.1808H69.8845C69.5551 46.6362 68.5936 45.3755 68.1364 44.7939C68.1364 45.3957 68.1431 46.5791 68.207 47.1808H66.8152C66.8858 46.4849 66.8959 44.9923 66.8959 44.5552C66.8959 44.0678 66.8656 42.7399 66.8253 42.1616H68.2036C68.1666 42.6928 68.1397 43.8324 68.1397 44.4073C69.0374 43.503 69.4677 42.8676 69.9888 42.1616H71.2293H71.2225Z" fill="#231F20"/>
<path d="M74.6045 42.1616C75.6568 42.1616 76.9141 42.4541 76.9141 43.6173C76.9141 44.2695 76.5342 44.7065 75.7812 44.9385C75.8887 45.1536 77.099 46.9959 77.3007 47.1842H75.8013C75.4719 46.5589 74.7256 45.2982 74.1809 44.4813C74.2751 44.5015 74.4095 44.5183 74.5676 44.5183C75.0046 44.5183 75.6198 44.2023 75.6198 43.6207C75.6198 42.8979 74.7457 42.7668 74.3087 42.7668C74.0868 42.7668 73.8717 42.7802 73.7641 42.797C73.7338 43.4223 73.7204 44.2023 73.7204 44.5552C73.7204 44.999 73.7204 46.4849 73.7977 47.1876H72.3992C72.4698 46.4917 72.4866 45.594 72.4866 44.5552C72.4866 43.6812 72.4799 42.6323 72.416 42.1683H74.6045V42.1616Z" fill="#231F20"/>
<path d="M80.0306 42.0608C80.6492 42.0608 81.214 42.1549 81.5737 42.2558V43.3585C81.1366 43.1164 80.6626 42.8844 79.8659 42.8844C79.1498 42.8844 79.1061 43.15 79.1061 43.3349C79.1061 44.246 82.0174 44.125 82.0174 45.7151C82.0174 46.6968 81.1434 47.2784 79.6642 47.2784C78.9817 47.2784 78.3867 47.1573 77.9933 47.0195V45.9235C78.8909 46.3471 79.4557 46.4883 79.9667 46.4883C80.5349 46.4883 80.8274 46.3236 80.8274 45.9504C80.8274 44.9688 77.916 45.11 77.916 43.4392C77.916 42.5584 78.7632 42.0541 80.0306 42.0541V42.0608Z" fill="#231F20"/>
<path d="M84.5455 42.1616C84.5018 42.7432 84.4749 44.0611 84.4749 44.5552C84.4749 44.9923 84.4816 46.4849 84.5455 47.1808H83.1537C83.2243 46.4849 83.231 44.9923 83.231 44.5552C83.231 44.0678 83.2008 42.7399 83.1671 42.1616H84.5455Z" fill="#231F20"/>
<path d="M88.4385 42.1616C89.3361 42.1616 90.2808 42.4911 90.2808 43.3248C90.2808 43.8257 89.8572 44.2728 89.2185 44.4376C90.0858 44.7032 90.5363 45.1705 90.5363 45.8058C90.5363 46.8245 89.3328 47.1842 88.183 47.1842H85.8533C85.9171 46.5253 85.9306 45.5772 85.9306 44.5519C85.9306 43.8627 85.9239 42.8239 85.86 42.165H88.4352L88.4385 42.1616ZM87.6653 42.7197C87.5006 42.7197 87.3123 42.7331 87.2215 42.7499C87.1913 43.4156 87.1778 43.7753 87.1778 44.5485C87.1778 45.4596 87.1778 45.8395 87.2148 46.5791C87.3795 46.5858 87.6451 46.5858 87.7964 46.5858C88.7646 46.5858 89.2454 46.3068 89.2454 45.7453C89.2454 45.0864 88.4486 44.8477 87.8468 44.8477H87.5678L87.8468 44.1384H88.0183C88.4284 44.1384 89.0067 43.9535 89.0067 43.4492C89.0067 42.918 88.647 42.7163 87.6653 42.7163V42.7197Z" fill="#231F20"/>
<path d="M94.0225 42.1616C94.9201 42.1616 95.8648 42.4911 95.8648 43.3248C95.8648 43.8257 95.4412 44.2728 94.8024 44.4376C95.6698 44.7032 96.1203 45.1705 96.1203 45.8058C96.1203 46.8245 94.9167 47.1842 93.767 47.1842H91.4373C91.5011 46.5253 91.5146 45.5772 91.5146 44.5519C91.5146 43.8627 91.5079 42.8239 91.444 42.165H94.0191L94.0225 42.1616ZM93.2493 42.7197C93.0846 42.7197 92.8963 42.7331 92.8055 42.7499C92.7753 43.4156 92.7618 43.7753 92.7618 44.5485C92.7618 45.4596 92.7618 45.8395 92.7988 46.5791C92.9635 46.5858 93.2291 46.5858 93.3804 46.5858C94.3486 46.5858 94.8293 46.3068 94.8293 45.7453C94.8293 45.0864 94.0326 44.8477 93.4308 44.8477H93.1518L93.4308 44.1384H93.6023C94.0091 44.1384 94.5907 43.9535 94.5907 43.4492C94.5907 42.918 94.2309 42.7163 93.2493 42.7163V42.7197Z" fill="#231F20"/>
<path d="M99.667 42.1616C99.8619 42.6793 101.509 46.3505 101.896 47.1808H100.511C100.433 46.9522 100.269 46.5354 100.05 45.9975C99.7644 45.9907 99.4686 45.984 99.0618 45.984C98.6819 45.984 98.3962 45.9907 98.0667 45.9975C97.9087 46.4211 97.781 46.8077 97.6667 47.1808H96.4631C96.7489 46.5555 98.4365 42.9012 98.6987 42.1616H99.667ZM99.788 45.3352C99.4585 44.5452 99.1728 43.8728 99.0719 43.6341C98.8433 44.1216 98.5912 44.6964 98.3256 45.3352C98.5407 45.3419 98.8332 45.3486 99.0719 45.3486C99.3106 45.3486 99.5459 45.3419 99.788 45.3352Z" fill="#231F20"/>
<path d="M107.07 42.1616C107.019 42.7365 106.992 44.0611 106.992 44.5485C106.992 44.9923 106.999 46.4849 107.08 47.1808H106.142L103.99 44.0174C103.805 43.7383 103.755 43.5938 103.718 43.466C103.718 44.2325 103.711 44.6124 103.711 45.2948C103.711 45.9101 103.725 46.7942 103.775 47.1808H102.605C102.676 46.4849 102.686 44.9923 102.686 44.5485C102.686 44.0611 102.656 42.7331 102.622 42.1616H103.94L105.547 44.5216C105.89 45.0225 105.964 45.1301 106.021 45.3184H106.028C105.984 44.6931 105.97 44.051 105.94 43.4257L105.89 42.165H107.073L107.07 42.1616Z" fill="#231F20"/>
<path d="M112.755 42.1616C112.489 42.4407 111.114 43.9837 110.748 44.3502C111.033 44.7368 112.697 46.8816 113 47.1808H111.417C111.087 46.6362 110.126 45.3755 109.665 44.7939C109.665 45.3957 109.672 46.5791 109.736 47.1808H108.344C108.414 46.4849 108.421 44.9923 108.421 44.5552C108.421 44.0678 108.394 42.7399 108.351 42.1616H109.729C109.692 42.6928 109.665 43.8324 109.665 44.4073C110.563 43.503 110.993 42.8676 111.514 42.1616H112.755Z" fill="#231F20"/>
</g>
<g filter="url(#filter1_d_869_1155)">
<rect x="135" y="26" width="95" height="40" rx="8" fill="white"/>
</g>
<g clip-path="url(#clip1_869_1155)">
<path fill-rule="evenodd" clip-rule="evenodd" d="M161.174 50.7931L159.463 50.7913L159.469 44.9227L165.63 44.9288L165.624 50.7973L163.913 50.7956L163.918 46.0672L161.179 46.0646L161.174 50.7931Z" fill="#75AF26"/>
<path fill-rule="evenodd" clip-rule="evenodd" d="M167.959 48.6617C167.96 47.4717 168.718 47.2371 169.195 47.2376C169.662 47.238 170.418 47.4744 170.417 48.6642C170.416 49.4021 170.094 50.106 169.192 50.105C168.269 50.1041 167.958 49.3994 167.959 48.6617ZM166.457 46.5389L166.451 52.3485L168.028 52.3499L168.03 50.3627C168.558 50.9179 169.419 50.9601 169.626 50.9603C171.13 50.9619 172.054 50.0328 172.056 48.682C172.057 47.2737 171.146 46.3845 169.663 46.3831C169.289 46.3824 168.563 46.4408 167.961 47.0524H167.93L167.941 46.5404L166.457 46.5389Z" fill="#75AF26"/>
<path fill-rule="evenodd" clip-rule="evenodd" d="M175.964 50.2958C175.383 50.8238 174.822 50.9658 174.2 50.9652C172.499 50.9634 172.438 49.7227 172.439 49.2113L172.442 46.5454L174.019 46.5468L174.016 49.0118C174.015 49.8585 174.315 50.1101 174.896 50.1106C175.892 50.1116 175.965 49.2479 175.966 48.9381L175.968 46.5488L177.545 46.5504L177.54 50.8092L175.964 50.8077L175.964 50.2958Z" fill="#75AF26"/>
<path fill-rule="evenodd" clip-rule="evenodd" d="M179.805 47.408L180.655 47.4088C181.101 47.4093 181.485 47.4764 181.485 47.8282C181.484 48.2138 180.883 48.2222 180.624 48.222L179.804 48.2211L179.805 47.408ZM178.23 46.5509L178.225 50.8104L181.357 50.8134C182.498 50.8144 183.287 50.5961 183.288 49.7254C183.288 49.0547 182.905 48.7609 182.033 48.6089V48.5837C182.604 48.5089 183.102 48.1658 183.102 47.5871C183.103 46.5558 181.859 46.5545 181.372 46.554L178.23 46.5509ZM179.803 49.0176L180.768 49.0186C181.515 49.0193 181.67 49.237 181.67 49.5219C181.669 49.7063 181.565 49.9578 180.788 49.957L179.802 49.956L179.803 49.0176Z" fill="#75AF26"/>
<path fill-rule="evenodd" clip-rule="evenodd" d="M187.106 49.0584C187.104 49.9135 186.337 50.122 185.953 50.1218C185.663 50.1215 185.144 50.0293 185.145 49.626C185.145 49.1478 185.736 49.0572 186.069 49.0155C186.68 48.9317 186.629 48.957 187.106 48.7898L187.106 49.0584ZM185.281 47.9333C185.282 47.304 185.966 47.2547 186.246 47.2549C186.423 47.2552 187.076 47.2643 187.097 47.817L187.096 47.9351C187.065 48.3542 186.65 48.2693 185.488 48.4112C184.534 48.5356 183.528 48.7699 183.526 49.7416C183.526 50.0943 183.681 50.9747 185.361 50.9764C186.004 50.9769 186.71 50.8185 187.125 50.3991H187.156L187.291 50.819L188.95 50.8207V50.7457C188.65 50.6862 188.628 50.4004 188.64 49.9402L188.673 47.9947C188.683 47.5009 188.633 46.4022 186.258 46.3998C185.687 46.3993 183.852 46.4477 183.778 47.9317L185.281 47.9333Z" fill="#75AF26"/>
<path fill-rule="evenodd" clip-rule="evenodd" d="M188.849 47.417L188.85 46.5614L193.911 46.5665L193.91 47.4221L192.168 47.4204L192.164 50.8241L190.588 50.8226L190.591 47.4188L188.849 47.417Z" fill="#75AF26"/>
<path fill-rule="evenodd" clip-rule="evenodd" d="M195.922 48.2786L197.343 48.2802C197.757 48.2805 198.587 48.3236 198.586 49.028C198.586 49.5816 197.984 49.689 197.31 49.6885L195.921 49.687L195.922 48.2786ZM195.925 46.0993L199.855 46.1033L199.856 44.9631L194.214 44.9573L194.208 50.8259L197.672 50.8294C199.353 50.8312 200.432 50.2621 200.433 49.0635C200.435 47.1856 198.277 47.1415 197.676 47.1409L195.923 47.1392L195.925 46.0993Z" fill="#75AF26"/>
<path fill-rule="evenodd" clip-rule="evenodd" d="M204.311 49.0757C204.31 49.9307 203.542 50.1392 203.158 50.1391C202.868 50.1386 202.35 50.0463 202.35 49.6431C202.351 49.1648 202.942 49.0745 203.274 49.0328C203.886 48.9487 203.834 48.974 204.311 48.8071V49.0757ZM202.487 47.9505C202.488 47.3212 203.172 47.2719 203.451 47.2722C203.629 47.2722 204.282 47.2816 204.302 47.8343V47.9524C204.27 48.3715 203.855 48.2863 202.693 48.4285C201.739 48.5529 200.733 48.7872 200.732 49.7588C200.732 50.1117 200.887 50.992 202.567 50.9935C203.21 50.9941 203.915 50.8357 204.33 50.4161H204.362L204.496 50.8363L206.155 50.8378V50.7628C205.854 50.7032 205.834 50.4177 205.845 49.9572L205.878 48.0118C205.889 47.5179 205.838 46.4195 203.462 46.4171C202.892 46.4165 201.057 46.4647 200.983 47.949L202.487 47.9505Z" fill="#75AF26"/>
<path fill-rule="evenodd" clip-rule="evenodd" d="M208.126 50.8399L206.55 50.8383L206.554 46.5791L208.131 46.5806L208.129 48.1825L210.027 48.1846L210.029 46.5828L211.606 46.5843L211.601 50.8433L210.024 50.8419L210.026 49.0396L208.128 49.0376L208.126 50.8399Z" fill="#75AF26"/>
<path fill-rule="evenodd" clip-rule="evenodd" d="M215.588 46.5881L217.341 46.5899L215.171 48.5829L217.44 50.8495L215.594 50.8478L213.895 48.9842H213.864L213.863 50.8459L212.286 50.8444L212.29 46.5851L213.867 46.5865L213.865 48.2967H213.896L215.588 46.5881Z" fill="#75AF26"/>
<path fill-rule="evenodd" clip-rule="evenodd" d="M148 50.794L151.949 50.7978L151.953 46.9685L148.004 46.9647L148 50.794Z" fill="black"/>
<path fill-rule="evenodd" clip-rule="evenodd" d="M148.015 41L148.01 45.7669L149.054 45.7679C151.802 45.7706 153.194 47.1235 153.191 49.7884L153.19 50.8004L158.105 50.8052L158.115 41.01L148.015 41ZM156.025 43.0329L156.019 48.7784L155.213 48.7776C154.868 45.936 153.029 44.1489 150.1 43.8092L150.101 43.0271L156.025 43.0329Z" fill="#75AF26"/>
</g>
<g filter="url(#filter2_d_869_1155)">
<rect x="30" y="76" width="95" height="40" rx="8" fill="white"/>
</g>
<g clip-path="url(#clip2_869_1155)">
<path d="M53.4284 100.482C52.1511 100.482 51.2019 99.5982 51.0794 98.3471H56.1055C56.661 96.1337 55.4275 94.4758 53.2097 94.4758C51.3331 94.4758 49.7977 96.0943 49.7977 98.0759C49.7977 100.127 51.3594 101.676 53.4241 101.676C54.9857 101.676 56.1842 100.875 56.7267 99.6507L55.6856 98.9989C55.3575 99.8825 54.5701 100.482 53.4284 100.482ZM53.2097 95.6306C54.3645 95.6306 55.0426 96.3087 55.0163 97.3148H51.145C51.3769 96.2562 52.138 95.6306 53.2097 95.6306Z" fill="#2722FF"/>
<path d="M61.1316 94.4758C60.2217 94.4758 59.4606 94.8958 58.9182 95.4819V94.677H57.6934V101.47H58.9182V97.8966C58.9182 96.7024 59.7318 95.67 61.0659 95.67C62.1814 95.67 62.8463 96.3787 62.8463 97.3979V101.475H64.0711V97.2885C64.0667 95.4775 62.9381 94.4758 61.1316 94.4758Z" fill="#2722FF"/>
<path d="M75.4793 101.676C77.0409 101.676 78.2395 100.875 78.7819 99.6507L77.7364 98.9989C77.4084 99.8825 76.621 100.482 75.4793 100.482C74.202 100.482 73.2528 99.5982 73.1303 98.3471H78.1564C78.7119 96.1337 77.4784 94.4758 75.2606 94.4758C73.384 94.4758 71.8486 96.0943 71.8486 98.0759C71.853 100.127 73.4146 101.676 75.4793 101.676ZM75.2606 95.6306C76.4154 95.6306 77.0934 96.3087 77.0672 97.3148H73.1959C73.4278 96.2562 74.1889 95.6306 75.2606 95.6306Z" fill="#2722FF"/>
<path d="M68.0255 95.6395C68.8129 95.6395 69.4909 95.8451 70.2695 96.4531L70.3045 96.335L70.9563 94.5546L69.9502 94.2266L69.7665 94.9527C69.2722 94.6946 68.6816 94.4846 68.0386 94.4846C66.3939 94.4846 65.484 95.2458 65.484 96.3875C65.484 97.516 66.477 98.0716 68.0124 98.5615C69.2634 98.9421 69.6178 99.3095 69.6178 99.6638C69.6178 100.232 69.0622 100.561 68.2705 100.561C67.2512 100.561 66.3808 100.044 65.9214 99.257L64.9854 100.031C65.554 100.954 66.6957 101.689 68.218 101.689C70.0114 101.689 70.8819 100.74 70.8819 99.5413C70.8819 98.754 70.3527 98.1022 68.3273 97.4329C67.4175 97.1223 66.7526 96.943 66.7526 96.3612C66.7482 95.9413 67.0325 95.6395 68.0255 95.6395Z" fill="#2722FF"/>
<path d="M46.0445 95.6351C46.8319 95.6351 47.5099 95.8407 48.2886 96.4487L48.3236 96.3306L48.9753 94.5502L47.9692 94.2222L47.7855 94.9483C47.2912 94.6902 46.7007 94.4803 46.0576 94.4803C44.4129 94.4803 43.503 95.2414 43.503 96.3831C43.503 97.5117 44.496 98.0672 46.0314 98.5571C47.2825 98.9377 47.6368 99.3051 47.6368 99.6595C47.6368 100.228 47.0812 100.556 46.2895 100.556C45.2703 100.556 44.3998 100.04 43.9405 99.2526L43 100.027C43.5687 100.95 44.7104 101.685 46.2326 101.685C48.0261 101.685 48.8966 100.736 48.8966 99.537C48.8966 98.7496 48.3673 98.0978 46.342 97.4286C45.4321 97.118 44.7672 96.9386 44.7672 96.3568C44.7672 95.9369 45.0516 95.6351 46.0445 95.6351Z" fill="#2722FF"/>
<path d="M89.5165 98.0847C89.5165 100.141 88.0469 101.698 86.0828 101.698C85.2121 101.698 84.4465 101.317 83.8606 100.731V101.492H82.6357V92.0044H83.8606V95.4382C84.4465 94.8521 85.208 94.4715 86.0828 94.4715C88.0469 94.4715 89.5165 96.0244 89.5165 98.0847ZM88.2391 98.0847C88.2391 96.6805 87.3121 95.6744 86.0302 95.6744C84.7484 95.6744 83.8214 96.6849 83.8214 98.0847C83.8214 99.4889 84.7484 100.495 86.0302 100.495C87.3121 100.495 88.2391 99.4889 88.2391 98.0847Z" fill="#2722FF"/>
<path d="M97.2067 100.259C97.1541 100.259 97.1104 100.25 97.0667 100.237C96.9311 100.189 96.8522 100.071 96.8522 99.8957L97.0011 98.0978L97.0622 97.4679L97.3333 94.6728H96.1174L96.0256 95.7182C96.0256 95.7182 96.0256 95.7138 96.0211 95.7138C96.0167 95.7051 96.0078 95.692 96.0037 95.6832C95.9159 95.5564 95.8111 95.4383 95.6974 95.3376C95.1374 94.839 94.4374 94.5197 93.646 94.5197C91.6993 94.5197 90.2427 96.0594 90.2427 98.0978C90.2427 100.136 91.7038 101.676 93.646 101.676C94.4945 101.676 95.2382 101.313 95.8156 100.749C95.8241 100.832 95.833 100.867 95.8593 100.932C95.8637 100.941 95.8637 100.946 95.8637 100.946C95.9293 101.072 96.0122 101.182 96.1219 101.265C96.2574 101.365 96.4237 101.431 96.6204 101.462C96.6948 101.475 96.7778 101.479 96.8611 101.479H97.0622H97.5126V100.263H97.2067V100.259ZM93.7071 100.491C92.4386 100.491 91.5201 99.4889 91.5201 98.0978C91.5201 96.7068 92.4386 95.7051 93.7071 95.7051C94.9756 95.7051 95.8941 96.7068 95.8941 98.0978C95.8941 99.4889 94.9756 100.491 93.7071 100.491Z" fill="#2722FF"/>
<path d="M102.246 94.4758C101.336 94.4758 100.575 94.8958 100.032 95.4819V94.677H98.8074V101.47H100.032V97.8966C100.032 96.7024 100.846 95.67 102.18 95.67C103.295 95.67 103.96 96.3787 103.96 97.3979V101.475H105.185V97.2885C105.181 95.4775 104.052 94.4758 102.246 94.4758Z" fill="#2722FF"/>
<path d="M109.03 97.9622L112.547 94.6771H110.942L107.819 97.6123V92H106.598V101.47H107.819V98.4784L111.134 101.47H112.915L109.03 97.9622Z" fill="#2722FF"/>
</g>
<g filter="url(#filter3_d_869_1155)">
<rect x="135" y="76" width="95" height="40" rx="8" fill="white"/>
</g>
<g clip-path="url(#clip3_869_1155)">
<path d="M217.974 104.579H158.158C156.553 104.579 155.237 103.263 155.237 101.658V95.1053H215.053C216.658 95.1053 217.974 96.4211 217.974 98.0264V104.579Z" fill="#031F70"/>
<path d="M211.263 97H212.263V100.263H212.342L213.632 98.6842H214.553L213.132 100.395L214.868 102.526H213.71L212.289 100.553H212.263V102.526H211.263V97ZM163.5 97.2632V100.289C163.5 101.316 163.816 101.895 164.632 101.895C165.447 101.895 165.763 101.211 165.763 100.368V97.2632H166.71V100.526C166.71 101.868 165.842 102.605 164.605 102.605C163.184 102.605 162.421 101.895 162.421 100.474V97.2632H163.5ZM168.921 99.2105C169.263 98.8421 169.737 98.6842 170.21 98.6842C171.079 98.6842 171.553 99.1579 171.553 100.105V102.526H170.553V100.211C170.553 99.6842 170.316 99.3421 169.789 99.3421C169.289 99.3421 168.921 99.6579 168.921 100.289V102.526H167.921V98.7632H168.921V99.2105ZM173.737 102.526H172.737V98.7632H173.737V102.526ZM172.658 97.6316C172.658 97.3421 172.895 97.0526 173.237 97.0526C173.579 97.0526 173.842 97.3421 173.842 97.6316C173.842 97.9474 173.605 98.2632 173.237 98.2632C172.895 98.2632 172.658 97.9474 172.658 97.6316ZM175.947 102.526L174.368 98.7368H175.421C175.737 99.6053 176.079 100.421 176.395 101.474H176.421C176.763 100.421 177.079 99.6053 177.421 98.7368H178.368L176.684 102.526H175.947ZM181.342 100.184C181.395 99.6053 181.184 99.2105 180.684 99.2105C180.105 99.2105 179.868 99.6579 179.868 100.184H181.342ZM179.842 100.737C179.816 101.447 180.316 101.974 180.947 101.974C181.316 101.974 181.71 101.842 181.947 101.684L182.237 102.211C181.737 102.526 181.184 102.632 180.763 102.632C179.632 102.632 178.789 101.816 178.789 100.579C178.789 99.4211 179.632 98.6842 180.71 98.6842C181.895 98.6842 182.368 99.6316 182.289 100.737H179.842ZM184.237 99.4211L184.447 99.1316C184.553 98.9737 184.789 98.6842 185.105 98.6842C185.342 98.6842 185.579 98.8158 185.789 99.0263L185.421 99.7105C185.263 99.6316 185.158 99.5789 184.947 99.5789C184.605 99.5789 184.263 99.8684 184.263 100.658V102.526H183.263V98.7632H184.263V99.4211H184.237ZM188.474 99.4737C188.237 99.3158 188.026 99.2368 187.842 99.2368C187.632 99.2368 187.395 99.3684 187.395 99.6316C187.395 99.9211 187.763 100.105 188.184 100.421C188.71 100.816 188.868 101.211 188.868 101.553C188.868 102.079 188.289 102.632 187.474 102.632C186.947 102.632 186.553 102.447 186.21 102.211L186.526 101.684C186.763 101.868 187.079 102.053 187.342 102.053C187.632 102.053 187.895 101.895 187.895 101.579C187.895 101.211 187.5 101.026 187.132 100.763C186.71 100.474 186.395 100.184 186.395 99.7105C186.395 99.1053 186.974 98.6842 187.71 98.6842C188.132 98.6842 188.526 98.7895 188.816 99.0263L188.474 99.4737ZM191.316 100.526C190.816 100.684 190.579 100.974 190.579 101.395C190.579 101.737 190.789 101.947 191.026 101.947C191.421 101.947 191.947 101.447 191.868 100.342L191.316 100.526ZM191.632 102.158C191.368 102.395 191.026 102.605 190.658 102.605C190.079 102.605 189.579 102.158 189.579 101.447C189.579 100.737 190.105 100.342 190.974 100.079L191.868 99.8158C191.816 99.4737 191.5 99.2632 191.184 99.2632C190.763 99.2632 190.447 99.4211 190.184 99.6579L189.868 99.1842C190.342 98.7895 190.789 98.6579 191.316 98.6579C192 98.6579 192.868 98.8947 192.868 100.053V101.579C192.868 101.895 192.895 102.237 193.026 102.5H191.974C191.895 102.368 191.868 102.158 191.868 101.947L191.632 102.158ZM193.974 97H194.974V102.526H193.974V97ZM203.842 100.526C203.342 100.684 203.105 100.974 203.105 101.395C203.105 101.737 203.316 101.947 203.553 101.947C203.947 101.947 204.474 101.447 204.395 100.342L203.842 100.526ZM204.158 102.158C203.895 102.395 203.553 102.605 203.184 102.605C202.605 102.605 202.105 102.158 202.105 101.447C202.105 100.737 202.632 100.342 203.5 100.079L204.395 99.8158C204.342 99.4737 204.026 99.2632 203.71 99.2632C203.289 99.2632 202.974 99.4211 202.71 99.6579L202.395 99.1842C202.868 98.7895 203.316 98.6579 203.842 98.6579C204.526 98.6579 205.395 98.8947 205.395 100.053V101.579C205.395 101.895 205.421 102.237 205.553 102.5H204.5C204.421 102.368 204.395 102.158 204.395 101.947L204.158 102.158ZM207.5 99.2105C207.842 98.8421 208.316 98.6842 208.789 98.6842C209.684 98.6842 210.132 99.1579 210.132 100.105V102.526H209.132V100.211C209.132 99.6842 208.895 99.3421 208.368 99.3421C207.868 99.3421 207.5 99.6579 207.5 100.289V102.526H206.5V98.7632H207.5V99.2105ZM198.632 101.895H199.184C199.763 101.895 200.21 101.579 200.21 101C200.21 100.395 199.763 100.132 199.184 100.132H198.658V101.895H198.632ZM198.632 99.4737H198.974C199.579 99.4737 200 99.0789 200 98.6053C200 98.1316 199.658 97.9474 199.184 97.9474H198.632V99.4737ZM197.579 102.526V97.2632H199.474C200.368 97.2632 200.974 97.6842 200.974 98.3947C200.974 99.2368 200.289 99.5789 199.921 99.6842V99.7105C200.579 99.7368 201.316 100.184 201.316 101C201.316 101.895 200.553 102.553 199.316 102.553H197.579V102.526Z" fill="white"/>
<path d="M154.316 100.842C157.513 100.842 160.105 98.309 160.105 95.1843C160.105 92.0595 157.513 89.5264 154.316 89.5264C151.118 89.5264 148.526 92.0595 148.526 95.1843C148.526 98.309 151.118 100.842 154.316 100.842Z" fill="#DE1E23"/>
<path d="M154.316 101.105C157.659 101.105 160.368 98.4543 160.368 95.1842C160.368 91.9141 157.659 89.2632 154.316 89.2632C150.973 89.2632 148.263 91.9141 148.263 95.1842C148.263 98.4543 150.973 101.105 154.316 101.105Z" stroke="white" stroke-width="2"/>
<path d="M150.792 96.9876L151.135 96.9245C151.166 96.9187 151.194 96.9023 151.214 96.8784C151.234 96.8528 151.245 96.821 151.244 96.7886V94.0759H150.487C150.462 94.0733 150.437 94.0812 150.418 94.0978C150.403 94.1148 150.392 94.1346 150.386 94.156L150.216 94.6655H150.105V93.9012H152.814V94.6655H152.691L152.522 94.156C152.516 94.1348 152.505 94.115 152.491 94.0978C152.471 94.0774 152.441 94.0691 152.413 94.0759H151.656V96.7789C151.655 96.8117 151.667 96.8436 151.688 96.8687C151.709 96.8926 151.738 96.9089 151.769 96.9148L152.113 96.9779V97.0871H150.792V96.9876ZM152.458 96.9876L152.66 96.9294C152.693 96.9201 152.721 96.9025 152.744 96.8784C152.768 96.8537 152.787 96.8249 152.799 96.7935L153.728 94.3938L153.9 93.9255L154.102 93.8624L155.248 96.7935C155.261 96.8249 155.28 96.8537 155.304 96.8784C155.326 96.9024 155.355 96.92 155.387 96.9294L155.589 96.9876V97.0968H154.448V96.9876L154.91 96.9124L154.521 95.9151H153.443L153.08 96.8905L153.367 96.9755V97.0846H152.458V96.9876ZM154.504 95.738L154.12 94.7674L154.004 94.4399L153.516 95.7259L154.504 95.738ZM155.791 96.4368H156.092C156.099 96.5279 156.11 96.6186 156.127 96.7086C156.148 96.7512 156.184 96.7855 156.228 96.8056C156.292 96.8343 156.358 96.8594 156.425 96.8808C156.486 96.9003 156.549 96.9165 156.612 96.9294C156.663 96.9398 156.716 96.9455 156.768 96.9463C156.859 96.9476 156.95 96.9336 157.036 96.9051C157.113 96.8794 157.184 96.8381 157.243 96.7838C157.301 96.7285 157.346 96.6613 157.374 96.5872C157.406 96.5016 157.421 96.4112 157.42 96.3203C157.425 96.1951 157.384 96.072 157.304 95.9734C157.218 95.8775 157.11 95.8026 156.988 95.755C156.931 95.7313 156.873 95.711 156.814 95.6943L156.64 95.6458L156.465 95.5973C156.406 95.5813 156.348 95.5619 156.291 95.539C156.129 95.479 155.988 95.3754 155.885 95.2406C155.786 95.1023 155.736 94.9375 155.741 94.7699C155.739 94.518 155.844 94.2762 156.031 94.1002C156.124 94.0133 156.234 93.9449 156.354 93.8988C156.483 93.8497 156.62 93.825 156.758 93.826C156.838 93.8258 156.917 93.8299 156.996 93.8381C157.074 93.8381 157.15 93.8575 157.225 93.8721C157.301 93.8867 157.372 93.9012 157.442 93.9231C157.377 93.9546 157.129 94.1269 157.129 94.1269C157.129 94.1269 157.028 94.0905 156.975 94.0759C156.925 94.0623 156.873 94.0517 156.821 94.0444C156.778 94.0415 156.735 94.0415 156.693 94.0444C156.611 94.0419 156.53 94.0526 156.453 94.0759C156.385 94.0985 156.322 94.134 156.268 94.1803C156.218 94.2259 156.178 94.2813 156.152 94.3428C156.125 94.4084 156.111 94.4784 156.112 94.5491C156.111 94.6126 156.117 94.6759 156.13 94.7383C156.142 94.7991 156.165 94.8573 156.198 94.9106C156.233 94.9679 156.278 95.0188 156.332 95.061C156.397 95.1106 156.47 95.1491 156.549 95.1751L156.715 95.2285L156.882 95.2746L157.054 95.3255C157.113 95.3433 157.174 95.366 157.238 95.3934C157.311 95.4233 157.382 95.4582 157.45 95.4978C157.52 95.5386 157.583 95.5893 157.637 95.6482C157.694 95.7122 157.738 95.7853 157.768 95.8642C157.804 95.959 157.821 96.0594 157.819 96.1602C157.818 96.2836 157.795 96.406 157.75 96.5217C157.706 96.642 157.634 96.7513 157.541 96.842C157.436 96.9415 157.31 97.0191 157.172 97.0701C157.001 97.1323 156.818 97.162 156.635 97.1574C156.562 97.1574 156.489 97.1517 156.417 97.1405C156.342 97.1405 156.256 97.121 156.165 97.1016C156.074 97.0822 155.928 97.0313 155.928 97.0313C155.88 97.0121 155.835 96.9868 155.794 96.956L155.791 96.4368ZM157.864 93.9643L158.369 93.5445C158.491 93.4567 158.656 93.4499 158.786 93.5276C158.96 93.6489 159.316 93.9837 159.316 93.9837L158.983 94.2919C158.983 94.2919 158.619 93.9182 158.503 93.8333C158.387 93.7484 157.864 93.957 157.864 93.957V93.9643ZM157.755 94L158.186 93.5474C158.273 93.4419 158.288 93.2947 158.224 93.1741C158.091 93.0009 157.946 92.8372 157.79 92.6842L157.474 92.9408C157.628 93.0876 157.774 93.2434 157.91 93.4074C157.98 93.5194 157.757 93.9907 157.757 93.9907" fill="white"/>
</g>
<defs>
<filter id="filter0_d_869_1155" x="0" y="0" width="155" height="100" filterUnits="userSpaceOnUse" color-interpolation-filters="sRGB">
<feFlood flood-opacity="0" result="BackgroundImageFix"/>
<feColorMatrix in="SourceAlpha" type="matrix" values="0 0 0 0 0 0 0 0 0 0 0 0 0 0 0 0 0 0 127 0" result="hardAlpha"/>
<feOffset dy="4"/>
<feGaussianBlur stdDeviation="15"/>
<feComposite in2="hardAlpha" operator="out"/>
<feColorMatrix type="matrix" values="0 0 0 0 0 0 0 0 0 0 0 0 0 0 0 0 0 0 0.1 0"/>
<feBlend mode="normal" in2="BackgroundImageFix" result="effect1_dropShadow_869_1155"/>
<feBlend mode="normal" in="SourceGraphic" in2="effect1_dropShadow_869_1155" result="shape"/>
</filter>
<filter id="filter1_d_869_1155" x="105" y="0" width="155" height="100" filterUnits="userSpaceOnUse" color-interpolation-filters="sRGB">
<feFlood flood-opacity="0" result="BackgroundImageFix"/>
<feColorMatrix in="SourceAlpha" type="matrix" values="0 0 0 0 0 0 0 0 0 0 0 0 0 0 0 0 0 0 127 0" result="hardAlpha"/>
<feOffset dy="4"/>
<feGaussianBlur stdDeviation="15"/>
<feComposite in2="hardAlpha" operator="out"/>
<feColorMatrix type="matrix" values="0 0 0 0 0 0 0 0 0 0 0 0 0 0 0 0 0 0 0.1 0"/>
<feBlend mode="normal" in2="BackgroundImageFix" result="effect1_dropShadow_869_1155"/>
<feBlend mode="normal" in="SourceGraphic" in2="effect1_dropShadow_869_1155" result="shape"/>
</filter>
<filter id="filter2_d_869_1155" x="0" y="50" width="155" height="100" filterUnits="userSpaceOnUse" color-interpolation-filters="sRGB">
<feFlood flood-opacity="0" result="BackgroundImageFix"/>
<feColorMatrix in="SourceAlpha" type="matrix" values="0 0 0 0 0 0 0 0 0 0 0 0 0 0 0 0 0 0 127 0" result="hardAlpha"/>
<feOffset dy="4"/>
<feGaussianBlur stdDeviation="15"/>
<feComposite in2="hardAlpha" operator="out"/>
<feColorMatrix type="matrix" values="0 0 0 0 0 0 0 0 0 0 0 0 0 0 0 0 0 0 0.1 0"/>
<feBlend mode="normal" in2="BackgroundImageFix" result="effect1_dropShadow_869_1155"/>
<feBlend mode="normal" in="SourceGraphic" in2="effect1_dropShadow_869_1155" result="shape"/>
</filter>
<filter id="filter3_d_869_1155" x="105" y="50" width="155" height="100" filterUnits="userSpaceOnUse" color-interpolation-filters="sRGB">
<feFlood flood-opacity="0" result="BackgroundImageFix"/>
<feColorMatrix in="SourceAlpha" type="matrix" values="0 0 0 0 0 0 0 0 0 0 0 0 0 0 0 0 0 0 127 0" result="hardAlpha"/>
<feOffset dy="4"/>
<feGaussianBlur stdDeviation="15"/>
<feComposite in2="hardAlpha" operator="out"/>
<feColorMatrix type="matrix" values="0 0 0 0 0 0 0 0 0 0 0 0 0 0 0 0 0 0 0.1 0"/>
<feBlend mode="normal" in2="BackgroundImageFix" result="effect1_dropShadow_869_1155"/>
<feBlend mode="normal" in="SourceGraphic" in2="effect1_dropShadow_869_1155" result="shape"/>
</filter>
<linearGradient id="paint0_linear_869_1155" x1="50.2279" y1="39.6436" x2="50.2279" y2="54.903" gradientUnits="userSpaceOnUse">
<stop stop-color="#008053"/>
<stop offset="0.6" stop-color="#7FCBAE"/>
<stop offset="1" stop-color="#00A76D"/>
</linearGradient>
<linearGradient id="paint1_linear_869_1155" x1="50.2044" y1="36.4096" x2="50.2044" y2="53.5582" gradientUnits="userSpaceOnUse">
<stop stop-color="#00A76D"/>
<stop offset="0.3" stop-color="#7FCBAE"/>
<stop offset="0.55" stop-color="#00A76D"/>
<stop offset="0.84" stop-color="#008053"/>
<stop offset="0.89" stop-color="#00885B"/>
<stop offset="0.97" stop-color="#00A171"/>
<stop offset="1" stop-color="#00AD7D"/>
</linearGradient>
<linearGradient id="paint2_linear_869_1155" x1="52.9511" y1="52.6103" x2="52.9511" y2="41.5129" gradientUnits="userSpaceOnUse">
<stop stop-color="#00B387"/>
<stop offset="1" stop-color="#00A76D"/>
</linearGradient>
<linearGradient id="paint3_linear_869_1155" x1="46.066" y1="52.6102" x2="46.066" y2="41.5095" gradientUnits="userSpaceOnUse">
<stop stop-color="#00B387"/>
<stop offset="1" stop-color="#00A76D"/>
</linearGradient>
<linearGradient id="paint4_linear_869_1155" x1="48.2109" y1="52.6069" x2="48.2109" y2="41.5162" gradientUnits="userSpaceOnUse">
<stop stop-color="#00B387"/>
<stop offset="1" stop-color="#00A76D"/>
</linearGradient>
<linearGradient id="paint5_linear_869_1155" x1="50.0666" y1="52.6103" x2="50.0666" y2="41.5129" gradientUnits="userSpaceOnUse">
<stop stop-color="#00B387"/>
<stop offset="1" stop-color="#00A76D"/>
</linearGradient>
<clipPath id="clip0_869_1155">
<rect width="70" height="14.4559" fill="white" transform="translate(43 40)"/>
</clipPath>
<clipPath id="clip1_869_1155">
<rect width="70" height="11.4925" fill="white" transform="translate(148 41)"/>
</clipPath>
<clipPath id="clip2_869_1155">
<rect width="70" height="9.71098" fill="white" transform="translate(43 92)"/>
</clipPath>
<clipPath id="clip3_869_1155">
<rect width="70" height="15.7895" fill="white" transform="translate(148 89)"/>
</clipPath>
</defs>
</svg>
