<svg width="340" height="212" viewBox="0 0 340 212" fill="none" xmlns="http://www.w3.org/2000/svg">
<rect x="50" width="240" height="68.5714" rx="12" fill="white" fill-opacity="0.5"/>
<path d="M116.672 175.088C115.835 175.088 115.059 174.942 114.344 174.648C113.635 174.35 113.013 173.936 112.48 173.408C111.952 172.88 111.541 172.262 111.248 171.552C110.955 170.843 110.808 170.075 110.808 169.248C110.808 168.416 110.955 167.646 111.248 166.936C111.541 166.227 111.952 165.608 112.48 165.08C113.013 164.552 113.635 164.142 114.344 163.848C115.059 163.555 115.835 163.408 116.672 163.408C117.504 163.408 118.275 163.558 118.984 163.856C119.693 164.155 120.315 164.571 120.848 165.104C121.381 165.638 121.795 166.259 122.088 166.968C122.387 167.672 122.536 168.432 122.536 169.248C122.536 170.075 122.387 170.843 122.088 171.552C121.795 172.262 121.381 172.88 120.848 173.408C120.315 173.936 119.693 174.35 118.984 174.648C118.275 174.942 117.504 175.088 116.672 175.088ZM116.672 173.656C117.275 173.656 117.835 173.552 118.352 173.344C118.875 173.136 119.331 172.84 119.72 172.456C120.109 172.067 120.413 171.6 120.632 171.056C120.856 170.512 120.968 169.91 120.968 169.248C120.968 168.358 120.776 167.582 120.392 166.92C120.013 166.259 119.499 165.747 118.848 165.384C118.197 165.016 117.472 164.832 116.672 164.832C116.069 164.832 115.507 164.939 114.984 165.152C114.467 165.36 114.011 165.659 113.616 166.048C113.227 166.432 112.923 166.896 112.704 167.44C112.485 167.979 112.376 168.582 112.376 169.248C112.376 170.134 112.565 170.907 112.944 171.568C113.328 172.23 113.845 172.744 114.496 173.112C115.147 173.475 115.872 173.656 116.672 173.656ZM125.792 174.848V168.256H123.104V167.008H129.96V168.256H127.264V174.848H125.792ZM130.992 178.208V167.008H132.344V168.184C132.669 167.768 133.077 167.43 133.568 167.168C134.064 166.902 134.688 166.768 135.44 166.768C136.219 166.768 136.904 166.952 137.496 167.32C138.088 167.683 138.549 168.179 138.88 168.808C139.216 169.438 139.384 170.144 139.384 170.928C139.384 171.499 139.288 172.038 139.096 172.544C138.909 173.046 138.64 173.488 138.288 173.872C137.936 174.251 137.517 174.55 137.032 174.768C136.552 174.982 136.016 175.088 135.424 175.088C134.763 175.088 134.184 174.966 133.688 174.72C133.197 174.47 132.787 174.142 132.456 173.736V178.208H130.992ZM135.176 173.76C135.704 173.76 136.171 173.646 136.576 173.416C136.987 173.182 137.307 172.854 137.536 172.432C137.771 172.006 137.888 171.504 137.888 170.928C137.888 170.347 137.771 169.846 137.536 169.424C137.307 168.998 136.987 168.67 136.576 168.44C136.171 168.211 135.704 168.096 135.176 168.096C134.648 168.096 134.179 168.211 133.768 168.44C133.363 168.67 133.043 168.998 132.808 169.424C132.573 169.846 132.456 170.347 132.456 170.928C132.456 171.504 132.573 172.006 132.808 172.432C133.043 172.854 133.363 173.182 133.768 173.416C134.179 173.646 134.648 173.76 135.176 173.76ZM140.586 174.848V167.008H142.018V172.64L146.578 167.008H147.842V174.848H146.41V169.152L141.81 174.848H140.586ZM149.743 174.848V167.008H151.031H151.079L154.711 172.176L154.071 172.192L157.543 167.008H158.863V174.848H157.495L157.511 168.808L157.783 168.928L154.807 173.2H153.807L150.711 168.912L150.975 168.792L150.991 174.848H149.743ZM162.927 175.088C162.373 175.088 161.89 174.987 161.479 174.784C161.069 174.582 160.751 174.296 160.527 173.928C160.303 173.555 160.191 173.115 160.191 172.608C160.191 172.192 160.298 171.814 160.511 171.472C160.725 171.126 161.061 170.84 161.519 170.616C161.978 170.387 162.573 170.235 163.303 170.16C164.034 170.08 164.917 170.094 165.951 170.2L165.991 171.28C165.191 171.174 164.511 171.134 163.951 171.16C163.391 171.182 162.938 171.256 162.591 171.384C162.245 171.507 161.989 171.672 161.823 171.88C161.663 172.083 161.583 172.312 161.583 172.568C161.583 172.979 161.73 173.302 162.023 173.536C162.322 173.766 162.73 173.88 163.247 173.88C163.69 173.88 164.085 173.8 164.431 173.64C164.783 173.475 165.061 173.248 165.263 172.96C165.471 172.667 165.575 172.328 165.575 171.944V169.752C165.575 169.384 165.493 169.064 165.327 168.792C165.167 168.52 164.93 168.31 164.615 168.16C164.301 168.011 163.914 167.936 163.455 167.936C163.045 167.936 162.637 167.998 162.231 168.12C161.826 168.243 161.437 168.443 161.063 168.72L160.615 167.584C161.101 167.254 161.602 167.022 162.119 166.888C162.637 166.755 163.133 166.688 163.607 166.688C164.327 166.688 164.941 166.803 165.447 167.032C165.954 167.256 166.341 167.595 166.607 168.048C166.874 168.502 167.007 169.067 167.007 169.744V174.848H165.655V173.888C165.383 174.278 165.007 174.576 164.527 174.784C164.047 174.987 163.514 175.088 162.927 175.088ZM168.807 174.848V167.008H170.279V170.096H174.527V167.008H175.999V174.848H174.527V171.344H170.279V174.848H168.807ZM181.413 175.088C180.603 175.088 179.88 174.899 179.245 174.52C178.611 174.142 178.112 173.638 177.749 173.008C177.387 172.379 177.205 171.686 177.205 170.928C177.205 170.368 177.309 169.838 177.517 169.336C177.725 168.835 178.019 168.392 178.397 168.008C178.776 167.619 179.221 167.315 179.733 167.096C180.245 166.878 180.805 166.768 181.413 166.768C182.229 166.768 182.955 166.958 183.589 167.336C184.224 167.715 184.723 168.219 185.085 168.848C185.448 169.478 185.629 170.171 185.629 170.928C185.629 171.488 185.525 172.019 185.317 172.52C185.109 173.022 184.816 173.464 184.437 173.848C184.059 174.232 183.613 174.536 183.101 174.76C182.589 174.979 182.027 175.088 181.413 175.088ZM181.413 173.76C181.941 173.76 182.408 173.646 182.813 173.416C183.224 173.182 183.547 172.854 183.781 172.432C184.016 172.006 184.133 171.504 184.133 170.928C184.133 170.347 184.016 169.846 183.781 169.424C183.552 168.998 183.232 168.67 182.821 168.44C182.411 168.211 181.941 168.096 181.413 168.096C180.885 168.096 180.416 168.211 180.005 168.44C179.6 168.67 179.28 168.998 179.045 169.424C178.816 169.846 178.701 170.347 178.701 170.928C178.701 171.504 178.816 172.006 179.045 172.432C179.28 172.854 179.603 173.182 180.013 173.416C180.424 173.646 180.891 173.76 181.413 173.76ZM192.791 175.024C192.354 175.024 191.935 174.992 191.535 174.928C191.135 174.87 190.757 174.771 190.399 174.632C190.047 174.494 189.727 174.312 189.439 174.088L190.127 173.048C190.474 173.331 190.877 173.534 191.335 173.656C191.799 173.779 192.269 173.84 192.743 173.84C193.426 173.84 193.967 173.739 194.367 173.536C194.773 173.328 194.975 172.982 194.975 172.496C194.975 172.08 194.762 171.779 194.335 171.592C193.909 171.406 193.29 171.312 192.479 171.312H191.031V170.152H192.447C193.151 170.152 193.701 170.067 194.095 169.896C194.495 169.726 194.695 169.438 194.695 169.032C194.695 168.798 194.613 168.6 194.447 168.44C194.287 168.28 194.061 168.16 193.767 168.08C193.479 167.995 193.141 167.952 192.751 167.952C192.287 167.952 191.842 168.019 191.415 168.152C190.994 168.286 190.623 168.494 190.303 168.776L189.719 167.76C190.103 167.44 190.575 167.192 191.135 167.016C191.701 166.835 192.277 166.744 192.863 166.744C193.519 166.744 194.085 166.827 194.559 166.992C195.039 167.158 195.41 167.398 195.671 167.712C195.933 168.027 196.063 168.406 196.063 168.848C196.063 169.264 195.93 169.622 195.663 169.92C195.397 170.214 195.01 170.427 194.503 170.56C195.111 170.694 195.575 170.931 195.895 171.272C196.215 171.608 196.375 172.027 196.375 172.528C196.375 173.056 196.226 173.507 195.927 173.88C195.629 174.254 195.21 174.539 194.671 174.736C194.138 174.928 193.511 175.024 192.791 175.024ZM199.899 175.088C199.345 175.088 198.862 174.987 198.451 174.784C198.041 174.582 197.723 174.296 197.499 173.928C197.275 173.555 197.163 173.115 197.163 172.608C197.163 172.192 197.27 171.814 197.483 171.472C197.697 171.126 198.033 170.84 198.491 170.616C198.95 170.387 199.545 170.235 200.275 170.16C201.006 170.08 201.889 170.094 202.923 170.2L202.963 171.28C202.163 171.174 201.483 171.134 200.923 171.16C200.363 171.182 199.91 171.256 199.563 171.384C199.217 171.507 198.961 171.672 198.795 171.88C198.635 172.083 198.555 172.312 198.555 172.568C198.555 172.979 198.702 173.302 198.995 173.536C199.294 173.766 199.702 173.88 200.219 173.88C200.662 173.88 201.057 173.8 201.403 173.64C201.755 173.475 202.033 173.248 202.235 172.96C202.443 172.667 202.547 172.328 202.547 171.944V169.752C202.547 169.384 202.465 169.064 202.299 168.792C202.139 168.52 201.902 168.31 201.587 168.16C201.273 168.011 200.886 167.936 200.427 167.936C200.017 167.936 199.609 167.998 199.203 168.12C198.798 168.243 198.409 168.443 198.035 168.72L197.587 167.584C198.073 167.254 198.574 167.022 199.091 166.888C199.609 166.755 200.105 166.688 200.579 166.688C201.299 166.688 201.913 166.803 202.419 167.032C202.926 167.256 203.313 167.595 203.579 168.048C203.846 168.502 203.979 169.067 203.979 169.744V174.848H202.627V173.888C202.355 174.278 201.979 174.576 201.499 174.784C201.019 174.987 200.486 175.088 199.899 175.088ZM205.779 178.208V167.008H207.131V168.184C207.456 167.768 207.864 167.43 208.355 167.168C208.851 166.902 209.475 166.768 210.227 166.768C211.006 166.768 211.691 166.952 212.283 167.32C212.875 167.683 213.336 168.179 213.667 168.808C214.003 169.438 214.171 170.144 214.171 170.928C214.171 171.499 214.075 172.038 213.883 172.544C213.696 173.046 213.427 173.488 213.075 173.872C212.723 174.251 212.304 174.55 211.819 174.768C211.339 174.982 210.803 175.088 210.211 175.088C209.55 175.088 208.971 174.966 208.475 174.72C207.984 174.47 207.574 174.142 207.243 173.736V178.208H205.779ZM209.963 173.76C210.491 173.76 210.958 173.646 211.363 173.416C211.774 173.182 212.094 172.854 212.323 172.432C212.558 172.006 212.675 171.504 212.675 170.928C212.675 170.347 212.558 169.846 212.323 169.424C212.094 168.998 211.774 168.67 211.363 168.44C210.958 168.211 210.491 168.096 209.963 168.096C209.435 168.096 208.966 168.211 208.555 168.44C208.15 168.67 207.83 168.998 207.595 169.424C207.36 169.846 207.243 170.347 207.243 170.928C207.243 171.504 207.36 172.006 207.595 172.432C207.83 172.854 208.15 173.182 208.555 173.416C208.966 173.646 209.435 173.76 209.963 173.76ZM217.541 175.088C216.987 175.088 216.504 174.987 216.093 174.784C215.683 174.582 215.365 174.296 215.141 173.928C214.917 173.555 214.805 173.115 214.805 172.608C214.805 172.192 214.912 171.814 215.125 171.472C215.339 171.126 215.675 170.84 216.133 170.616C216.592 170.387 217.187 170.235 217.917 170.16C218.648 170.08 219.531 170.094 220.565 170.2L220.605 171.28C219.805 171.174 219.125 171.134 218.565 171.16C218.005 171.182 217.552 171.256 217.205 171.384C216.859 171.507 216.603 171.672 216.437 171.88C216.277 172.083 216.197 172.312 216.197 172.568C216.197 172.979 216.344 173.302 216.637 173.536C216.936 173.766 217.344 173.88 217.861 173.88C218.304 173.88 218.699 173.8 219.045 173.64C219.397 173.475 219.675 173.248 219.877 172.96C220.085 172.667 220.189 172.328 220.189 171.944V169.752C220.189 169.384 220.107 169.064 219.941 168.792C219.781 168.52 219.544 168.31 219.229 168.16C218.915 168.011 218.528 167.936 218.069 167.936C217.659 167.936 217.251 167.998 216.845 168.12C216.44 168.243 216.051 168.443 215.677 168.72L215.229 167.584C215.715 167.254 216.216 167.022 216.733 166.888C217.251 166.755 217.747 166.688 218.221 166.688C218.941 166.688 219.555 166.803 220.061 167.032C220.568 167.256 220.955 167.595 221.221 168.048C221.488 168.502 221.621 169.067 221.621 169.744V174.848H220.269V173.888C219.997 174.278 219.621 174.576 219.141 174.784C218.661 174.987 218.128 175.088 217.541 175.088ZM222.413 174.856L225.253 170.88L222.581 167.008H224.437L226.253 169.8L228.005 167.008H229.805L227.213 170.832L230.037 174.848H228.149L226.197 171.904L224.213 174.84L222.413 174.856ZM231.433 178.44C231.177 178.44 230.924 178.408 230.673 178.344C230.422 178.286 230.169 178.179 229.913 178.024L230.257 176.752C230.422 176.859 230.601 176.939 230.793 176.992C230.985 177.046 231.156 177.072 231.305 177.072C231.7 177.072 232.006 176.976 232.225 176.784C232.444 176.592 232.62 176.299 232.753 175.904L233.065 175.008L229.961 167.008H231.577L233.897 173.328L236.161 167.008H237.721L234.289 176.096C234.054 176.715 233.793 177.192 233.505 177.528C233.222 177.87 232.91 178.107 232.569 178.24C232.228 178.374 231.849 178.44 231.433 178.44ZM238.547 174.848V167.008H242.147C243.022 167.008 243.726 167.179 244.259 167.52C244.798 167.862 245.067 168.368 245.067 169.04C245.067 169.339 244.998 169.608 244.859 169.848C244.72 170.088 244.523 170.294 244.267 170.464C244.011 170.63 243.71 170.752 243.363 170.832L243.339 170.512C244.006 170.619 244.515 170.854 244.867 171.216C245.224 171.574 245.403 172.022 245.403 172.56C245.403 173.035 245.278 173.443 245.027 173.784C244.782 174.126 244.43 174.39 243.971 174.576C243.512 174.758 242.966 174.848 242.331 174.848H238.547ZM239.979 173.704H242.131C242.707 173.704 243.152 173.608 243.467 173.416C243.787 173.224 243.947 172.936 243.947 172.552C243.947 172.168 243.79 171.883 243.475 171.696C243.16 171.504 242.712 171.408 242.131 171.408H239.755V170.296H241.947C242.491 170.296 242.912 170.214 243.211 170.048C243.51 169.883 243.659 169.608 243.659 169.224C243.659 168.846 243.51 168.574 243.211 168.408C242.918 168.238 242.496 168.152 241.947 168.152H239.979V173.704ZM249.028 175.088C248.473 175.088 247.991 174.987 247.58 174.784C247.169 174.582 246.852 174.296 246.628 173.928C246.404 173.555 246.292 173.115 246.292 172.608C246.292 172.192 246.399 171.814 246.612 171.472C246.825 171.126 247.161 170.84 247.62 170.616C248.079 170.387 248.673 170.235 249.404 170.16C250.135 170.08 251.017 170.094 252.052 170.2L252.092 171.28C251.292 171.174 250.612 171.134 250.052 171.16C249.492 171.182 249.039 171.256 248.692 171.384C248.345 171.507 248.089 171.672 247.924 171.88C247.764 172.083 247.684 172.312 247.684 172.568C247.684 172.979 247.831 173.302 248.124 173.536C248.423 173.766 248.831 173.88 249.348 173.88C249.791 173.88 250.185 173.8 250.532 173.64C250.884 173.475 251.161 173.248 251.364 172.96C251.572 172.667 251.676 172.328 251.676 171.944V169.752C251.676 169.384 251.593 169.064 251.428 168.792C251.268 168.52 251.031 168.31 250.716 168.16C250.401 168.011 250.015 167.936 249.556 167.936C249.145 167.936 248.737 167.998 248.332 168.12C247.927 168.243 247.537 168.443 247.164 168.72L246.716 167.584C247.201 167.254 247.703 167.022 248.22 166.888C248.737 166.755 249.233 166.688 249.708 166.688C250.428 166.688 251.041 166.803 251.548 167.032C252.055 167.256 252.441 167.595 252.708 168.048C252.975 168.502 253.108 169.067 253.108 169.744V174.848H251.756V173.888C251.484 174.278 251.108 174.576 250.628 174.784C250.148 174.987 249.615 175.088 249.028 175.088ZM254.908 174.848V167.008H256.38V170.096H260.628V167.008H262.1V174.848H260.628V171.344H256.38V174.848H254.908ZM264.002 174.848V167.008H265.474V170.096H269.722V167.008H271.194V174.848H269.722V171.344H265.474V174.848H264.002ZM272.568 174.848L275.68 170.888L275.96 171.864C275.288 171.87 274.726 171.774 274.272 171.576C273.819 171.379 273.475 171.102 273.24 170.744C273.011 170.382 272.896 169.958 272.896 169.472C272.896 168.955 273.03 168.512 273.296 168.144C273.568 167.776 273.947 167.496 274.432 167.304C274.923 167.107 275.494 167.008 276.144 167.008H279.376V174.848H277.944V168.176H276.272C275.648 168.176 275.179 168.28 274.864 168.488C274.55 168.696 274.392 169.014 274.392 169.44C274.392 169.862 274.539 170.184 274.832 170.408C275.126 170.627 275.558 170.736 276.128 170.736H278.168V171.864H276.616L274.288 174.848H272.568Z" fill="#121212"/>
<path d="M117.32 204.208C116.104 204.208 115.048 203.984 114.152 203.536C113.264 203.088 112.576 202.484 112.088 201.724C111.608 200.964 111.368 200.112 111.368 199.168C111.368 198.488 111.488 197.884 111.728 197.356C111.976 196.828 112.332 196.368 112.796 195.976C113.268 195.584 113.832 195.26 114.488 195.004C113.816 194.74 113.224 194.292 112.712 193.66C112.2 193.028 111.944 192.232 111.944 191.272C111.944 190.392 112.176 189.608 112.64 188.92C113.104 188.224 113.744 187.68 114.56 187.288C115.376 186.888 116.308 186.688 117.356 186.688C118.42 186.688 119.364 186.888 120.188 187.288C121.012 187.688 121.656 188.236 122.12 188.932C122.584 189.62 122.816 190.4 122.816 191.272C122.816 191.912 122.696 192.48 122.456 192.976C122.224 193.472 121.912 193.892 121.52 194.236C121.136 194.572 120.716 194.828 120.26 195.004C121.188 195.38 121.932 195.916 122.492 196.612C123.052 197.3 123.332 198.152 123.332 199.168C123.332 200.112 123.084 200.964 122.588 201.724C122.092 202.484 121.392 203.088 120.488 203.536C119.592 203.984 118.536 204.208 117.32 204.208ZM117.356 202.276C118.02 202.276 118.636 202.16 119.204 201.928C119.78 201.688 120.24 201.332 120.584 200.86C120.936 200.388 121.112 199.804 121.112 199.108C121.112 198.42 120.944 197.84 120.608 197.368C120.28 196.896 119.832 196.54 119.264 196.3C118.696 196.052 118.06 195.928 117.356 195.928C116.276 195.928 115.376 196.204 114.656 196.756C113.944 197.3 113.588 198.084 113.588 199.108C113.588 199.804 113.76 200.388 114.104 200.86C114.448 201.332 114.904 201.688 115.472 201.928C116.048 202.16 116.676 202.276 117.356 202.276ZM117.38 194.044C118.028 194.044 118.604 193.936 119.108 193.72C119.612 193.496 120.004 193.184 120.284 192.784C120.564 192.384 120.704 191.908 120.704 191.356C120.704 190.54 120.396 189.856 119.78 189.304C119.172 188.752 118.372 188.476 117.38 188.476C116.716 188.476 116.132 188.604 115.628 188.86C115.132 189.108 114.744 189.452 114.464 189.892C114.184 190.324 114.044 190.812 114.044 191.356C114.044 192.18 114.356 192.836 114.98 193.324C115.612 193.804 116.412 194.044 117.38 194.044ZM131.895 204.208C130.839 204.208 129.887 203.98 129.039 203.524C128.199 203.068 127.483 202.436 126.891 201.628C126.307 200.82 125.859 199.888 125.547 198.832C125.235 197.776 125.079 196.648 125.079 195.448C125.079 194.24 125.235 193.108 125.547 192.052C125.859 190.996 126.307 190.068 126.891 189.268C127.483 188.46 128.199 187.828 129.039 187.372C129.887 186.916 130.839 186.688 131.895 186.688C132.943 186.688 133.887 186.916 134.727 187.372C135.567 187.828 136.283 188.46 136.875 189.268C137.467 190.068 137.919 190.996 138.231 192.052C138.543 193.108 138.699 194.24 138.699 195.448C138.699 196.648 138.543 197.776 138.231 198.832C137.919 199.888 137.467 200.82 136.875 201.628C136.283 202.436 135.567 203.068 134.727 203.524C133.887 203.98 132.943 204.208 131.895 204.208ZM131.895 202.168C132.575 202.168 133.191 202.016 133.743 201.712C134.303 201.4 134.783 200.952 135.183 200.368C135.591 199.784 135.903 199.08 136.119 198.256C136.343 197.424 136.455 196.488 136.455 195.448C136.455 194.064 136.263 192.868 135.879 191.86C135.495 190.852 134.959 190.076 134.271 189.532C133.591 188.988 132.799 188.716 131.895 188.716C131.215 188.716 130.595 188.872 130.035 189.184C129.475 189.496 128.991 189.944 128.583 190.528C128.183 191.112 127.875 191.82 127.659 192.652C127.443 193.476 127.335 194.408 127.335 195.448C127.335 196.832 127.523 198.028 127.899 199.036C128.283 200.044 128.815 200.82 129.495 201.364C130.183 201.9 130.983 202.168 131.895 202.168ZM140.558 207.244L139.706 206.152C140.274 205.864 140.774 205.528 141.206 205.144C141.638 204.76 141.922 204.384 142.058 204.016C141.738 204.032 141.442 203.98 141.17 203.86C140.906 203.748 140.694 203.58 140.534 203.356C140.382 203.124 140.306 202.856 140.306 202.552C140.306 202.096 140.458 201.724 140.762 201.436C141.074 201.14 141.462 200.992 141.926 200.992C142.462 200.992 142.89 201.172 143.21 201.532C143.538 201.884 143.702 202.376 143.702 203.008C143.702 203.48 143.582 203.964 143.342 204.46C143.11 204.964 142.762 205.452 142.298 205.924C141.834 206.396 141.254 206.836 140.558 207.244ZM152.076 204.208C151.02 204.208 150.068 203.98 149.22 203.524C148.38 203.068 147.664 202.436 147.072 201.628C146.488 200.82 146.04 199.888 145.728 198.832C145.416 197.776 145.26 196.648 145.26 195.448C145.26 194.24 145.416 193.108 145.728 192.052C146.04 190.996 146.488 190.068 147.072 189.268C147.664 188.46 148.38 187.828 149.22 187.372C150.068 186.916 151.02 186.688 152.076 186.688C153.124 186.688 154.068 186.916 154.908 187.372C155.748 187.828 156.464 188.46 157.056 189.268C157.648 190.068 158.1 190.996 158.412 192.052C158.724 193.108 158.88 194.24 158.88 195.448C158.88 196.648 158.724 197.776 158.412 198.832C158.1 199.888 157.648 200.82 157.056 201.628C156.464 202.436 155.748 203.068 154.908 203.524C154.068 203.98 153.124 204.208 152.076 204.208ZM152.076 202.168C152.756 202.168 153.372 202.016 153.924 201.712C154.484 201.4 154.964 200.952 155.364 200.368C155.772 199.784 156.084 199.08 156.3 198.256C156.524 197.424 156.636 196.488 156.636 195.448C156.636 194.064 156.444 192.868 156.06 191.86C155.676 190.852 155.14 190.076 154.452 189.532C153.772 188.988 152.98 188.716 152.076 188.716C151.396 188.716 150.776 188.872 150.216 189.184C149.656 189.496 149.172 189.944 148.764 190.528C148.364 191.112 148.056 191.82 147.84 192.652C147.624 193.476 147.516 194.408 147.516 195.448C147.516 196.832 147.704 198.028 148.08 199.036C148.464 200.044 148.996 200.82 149.676 201.364C150.364 201.9 151.164 202.168 152.076 202.168ZM167.382 204.208C166.326 204.208 165.374 203.98 164.526 203.524C163.686 203.068 162.97 202.436 162.378 201.628C161.794 200.82 161.346 199.888 161.034 198.832C160.722 197.776 160.566 196.648 160.566 195.448C160.566 194.24 160.722 193.108 161.034 192.052C161.346 190.996 161.794 190.068 162.378 189.268C162.97 188.46 163.686 187.828 164.526 187.372C165.374 186.916 166.326 186.688 167.382 186.688C168.43 186.688 169.374 186.916 170.214 187.372C171.054 187.828 171.77 188.46 172.362 189.268C172.954 190.068 173.406 190.996 173.718 192.052C174.03 193.108 174.186 194.24 174.186 195.448C174.186 196.648 174.03 197.776 173.718 198.832C173.406 199.888 172.954 200.82 172.362 201.628C171.77 202.436 171.054 203.068 170.214 203.524C169.374 203.98 168.43 204.208 167.382 204.208ZM167.382 202.168C168.062 202.168 168.678 202.016 169.23 201.712C169.79 201.4 170.27 200.952 170.67 200.368C171.078 199.784 171.39 199.08 171.606 198.256C171.83 197.424 171.942 196.488 171.942 195.448C171.942 194.064 171.75 192.868 171.366 191.86C170.982 190.852 170.446 190.076 169.758 189.532C169.078 188.988 168.286 188.716 167.382 188.716C166.702 188.716 166.082 188.872 165.522 189.184C164.962 189.496 164.478 189.944 164.07 190.528C163.67 191.112 163.362 191.82 163.146 192.652C162.93 193.476 162.822 194.408 162.822 195.448C162.822 196.832 163.01 198.028 163.386 199.036C163.77 200.044 164.302 200.82 164.982 201.364C165.67 201.9 166.47 202.168 167.382 202.168ZM182.688 204.208C181.632 204.208 180.68 203.98 179.832 203.524C178.992 203.068 178.276 202.436 177.684 201.628C177.1 200.82 176.652 199.888 176.34 198.832C176.028 197.776 175.872 196.648 175.872 195.448C175.872 194.24 176.028 193.108 176.34 192.052C176.652 190.996 177.1 190.068 177.684 189.268C178.276 188.46 178.992 187.828 179.832 187.372C180.68 186.916 181.632 186.688 182.688 186.688C183.736 186.688 184.68 186.916 185.52 187.372C186.36 187.828 187.076 188.46 187.668 189.268C188.26 190.068 188.712 190.996 189.024 192.052C189.336 193.108 189.492 194.24 189.492 195.448C189.492 196.648 189.336 197.776 189.024 198.832C188.712 199.888 188.26 200.82 187.668 201.628C187.076 202.436 186.36 203.068 185.52 203.524C184.68 203.98 183.736 204.208 182.688 204.208ZM182.688 202.168C183.368 202.168 183.984 202.016 184.536 201.712C185.096 201.4 185.576 200.952 185.976 200.368C186.384 199.784 186.696 199.08 186.912 198.256C187.136 197.424 187.248 196.488 187.248 195.448C187.248 194.064 187.056 192.868 186.672 191.86C186.288 190.852 185.752 190.076 185.064 189.532C184.384 188.988 183.592 188.716 182.688 188.716C182.008 188.716 181.388 188.872 180.828 189.184C180.268 189.496 179.784 189.944 179.376 190.528C178.976 191.112 178.668 191.82 178.452 192.652C178.236 193.476 178.128 194.408 178.128 195.448C178.128 196.832 178.316 198.028 178.692 199.036C179.076 200.044 179.608 200.82 180.288 201.364C180.976 201.9 181.776 202.168 182.688 202.168ZM196.805 203.848V192.088H204.425V193.96H199.013V203.848H196.805ZM206.017 208.888V192.088H208.045V193.852C208.533 193.228 209.145 192.72 209.881 192.328C210.625 191.928 211.561 191.728 212.689 191.728C213.857 191.728 214.885 192.004 215.773 192.556C216.661 193.1 217.353 193.844 217.849 194.788C218.353 195.732 218.605 196.792 218.605 197.968C218.605 198.824 218.461 199.632 218.173 200.392C217.893 201.144 217.489 201.808 216.961 202.384C216.433 202.952 215.805 203.4 215.077 203.728C214.357 204.048 213.553 204.208 212.665 204.208C211.673 204.208 210.805 204.024 210.061 203.656C209.325 203.28 208.709 202.788 208.213 202.18V208.888H206.017ZM212.293 202.216C213.085 202.216 213.785 202.044 214.393 201.7C215.009 201.348 215.489 200.856 215.833 200.224C216.185 199.584 216.361 198.832 216.361 197.968C216.361 197.096 216.185 196.344 215.833 195.712C215.489 195.072 215.009 194.58 214.393 194.236C213.785 193.892 213.085 193.72 212.293 193.72C211.501 193.72 210.797 193.892 210.181 194.236C209.573 194.58 209.093 195.072 208.741 195.712C208.389 196.344 208.213 197.096 208.213 197.968C208.213 198.832 208.389 199.584 208.741 200.224C209.093 200.856 209.573 201.348 210.181 201.7C210.797 202.044 211.501 202.216 212.293 202.216ZM220.409 203.848V192.088H222.617V196.72H228.989V192.088H231.197V203.848H228.989V198.592H222.617V203.848H220.409ZM235.298 204.208C234.834 204.208 234.434 204.06 234.098 203.764C233.77 203.468 233.606 203.08 233.606 202.6C233.606 202.28 233.678 202 233.822 201.76C233.974 201.52 234.178 201.332 234.434 201.196C234.698 201.06 234.986 200.992 235.298 200.992C235.77 200.992 236.17 201.14 236.498 201.436C236.826 201.732 236.99 202.12 236.99 202.6C236.99 202.92 236.914 203.2 236.762 203.44C236.61 203.68 236.406 203.868 236.15 204.004C235.894 204.14 235.61 204.208 235.298 204.208Z" fill="black"/>
<g filter="url(#filter0_d_502_71)">
<rect x="30" y="30" width="280" height="80" rx="16" fill="white"/>
</g>
<path d="M83.2426 66.5834C84.0228 70.4123 83.4668 74.3929 81.6673 77.8614C79.8678 81.33 76.9336 84.0768 73.354 85.6438C69.7744 87.2108 65.7657 87.5033 61.9966 86.4724C58.2275 85.4416 54.9256 83.1498 52.6417 79.9791C50.3578 76.8085 49.2299 72.9507 49.4461 69.0492C49.6623 65.1476 51.2095 61.438 53.8297 58.5391C56.4499 55.6402 59.9847 53.7272 63.8446 53.1191C67.7046 52.5109 71.6563 53.2445 75.0409 55.1973M61.3743 68.2917L66.4993 73.4167L83.5826 56.3334" stroke="#8AC44B" stroke-width="4" stroke-linecap="round" stroke-linejoin="round"/>
<path d="M109.416 56.6116V45.4116H113.424C114.517 45.4116 115.397 45.6516 116.064 46.1316C116.736 46.6062 117.072 47.3102 117.072 48.2436C117.072 48.5902 116.992 48.9182 116.832 49.2276C116.672 49.5369 116.464 49.8089 116.208 50.0436C115.952 50.2729 115.68 50.4489 115.392 50.5716C116 50.7636 116.501 51.1076 116.896 51.6036C117.291 52.0996 117.488 52.7049 117.488 53.4196C117.488 54.0489 117.328 54.6036 117.008 55.0836C116.693 55.5636 116.243 55.9396 115.656 56.2116C115.069 56.4782 114.376 56.6116 113.576 56.6116H109.416ZM111.496 55.0196H113.248C113.947 55.0196 114.469 54.8809 114.816 54.6036C115.163 54.3209 115.336 53.8996 115.336 53.3396C115.336 52.7902 115.163 52.3689 114.816 52.0756C114.475 51.7822 113.955 51.6356 113.256 51.6356H111.496V55.0196ZM111.496 50.1316H113.12C113.509 50.1316 113.848 50.0676 114.136 49.9396C114.424 49.8116 114.648 49.6276 114.808 49.3876C114.968 49.1422 115.048 48.8516 115.048 48.5156C115.048 48.0249 114.877 47.6516 114.536 47.3956C114.2 47.1342 113.717 47.0036 113.088 47.0036H111.496V50.1316ZM121.034 56.8516C120.49 56.8516 120.007 56.7476 119.586 56.5396C119.164 56.3316 118.834 56.0382 118.594 55.6596C118.354 55.2756 118.234 54.8222 118.234 54.2996C118.234 53.8516 118.346 53.4516 118.57 53.0996C118.794 52.7476 119.138 52.4569 119.602 52.2276C120.066 51.9929 120.658 51.8356 121.378 51.7556C122.103 51.6756 122.962 51.6862 123.954 51.7876L123.986 53.1396C123.335 53.0382 122.767 52.9929 122.282 53.0036C121.796 53.0142 121.394 53.0702 121.074 53.1716C120.759 53.2729 120.522 53.4116 120.362 53.5876C120.207 53.7636 120.13 53.9689 120.13 54.2036C120.13 54.5556 120.258 54.8276 120.514 55.0196C120.77 55.2062 121.119 55.2996 121.562 55.2996C121.94 55.2996 122.279 55.2302 122.578 55.0916C122.882 54.9529 123.122 54.7582 123.298 54.5076C123.474 54.2516 123.562 53.9502 123.562 53.6036V51.5796C123.562 51.2436 123.49 50.9529 123.346 50.7076C123.207 50.4569 122.994 50.2649 122.706 50.1316C122.418 49.9929 122.047 49.9236 121.594 49.9236C121.178 49.9236 120.764 49.9876 120.354 50.1156C119.948 50.2382 119.567 50.4302 119.21 50.6916L118.658 49.2276C119.164 48.8916 119.698 48.6516 120.258 48.5076C120.818 48.3636 121.359 48.2916 121.882 48.2916C122.628 48.2916 123.274 48.4089 123.818 48.6436C124.367 48.8782 124.788 49.2382 125.082 49.7236C125.38 50.2036 125.53 50.8142 125.53 51.5556V56.6116H123.722V55.6996C123.455 56.0676 123.087 56.3529 122.618 56.5556C122.148 56.7529 121.62 56.8516 121.034 56.8516ZM127.154 56.6116V48.6116H129.122V54.9476H132.21V48.6116H134.178V54.9476H137.266V48.6116H139.234V56.6116H127.154ZM146.899 56.8116C146.451 56.8116 146.017 56.7769 145.595 56.7076C145.174 56.6436 144.777 56.5396 144.403 56.3956C144.035 56.2462 143.702 56.0516 143.403 55.8116L144.251 54.4676C144.582 54.7449 144.974 54.9476 145.427 55.0756C145.881 55.2036 146.345 55.2676 146.819 55.2676C147.427 55.2676 147.902 55.1822 148.243 55.0116C148.59 54.8356 148.763 54.5502 148.763 54.1556C148.763 53.8089 148.585 53.5636 148.227 53.4196C147.875 53.2756 147.355 53.2036 146.667 53.2036H145.195V51.7156H146.611C147.225 51.7156 147.689 51.6462 148.003 51.5076C148.323 51.3689 148.483 51.1369 148.483 50.8116C148.483 50.6142 148.414 50.4516 148.275 50.3236C148.137 50.1902 147.937 50.0916 147.675 50.0276C147.419 49.9582 147.118 49.9236 146.771 49.9236C146.318 49.9236 145.883 49.9902 145.467 50.1236C145.051 50.2569 144.689 50.4622 144.379 50.7396L143.643 49.3876C144.075 49.0409 144.585 48.7796 145.171 48.6036C145.763 48.4276 146.355 48.3396 146.947 48.3396C147.651 48.3396 148.257 48.4249 148.763 48.5956C149.27 48.7662 149.657 49.0142 149.923 49.3396C150.195 49.6649 150.331 50.0596 150.331 50.5236C150.331 50.9182 150.206 51.2676 149.955 51.5716C149.71 51.8702 149.347 52.0862 148.867 52.2196C149.454 52.3582 149.899 52.5956 150.203 52.9316C150.507 53.2622 150.659 53.6836 150.659 54.1956C150.659 54.7289 150.505 55.1929 150.195 55.5876C149.891 55.9769 149.457 56.2782 148.891 56.4916C148.331 56.7049 147.667 56.8116 146.899 56.8116ZM154.099 56.8516C153.555 56.8516 153.072 56.7476 152.651 56.5396C152.229 56.3316 151.899 56.0382 151.659 55.6596C151.419 55.2756 151.299 54.8222 151.299 54.2996C151.299 53.8516 151.411 53.4516 151.635 53.0996C151.859 52.7476 152.203 52.4569 152.667 52.2276C153.131 51.9929 153.723 51.8356 154.443 51.7556C155.168 51.6756 156.027 51.6862 157.019 51.7876L157.051 53.1396C156.4 53.0382 155.832 52.9929 155.347 53.0036C154.861 53.0142 154.459 53.0702 154.139 53.1716C153.824 53.2729 153.587 53.4116 153.427 53.5876C153.272 53.7636 153.195 53.9689 153.195 54.2036C153.195 54.5556 153.323 54.8276 153.579 55.0196C153.835 55.2062 154.184 55.2996 154.627 55.2996C155.005 55.2996 155.344 55.2302 155.643 55.0916C155.947 54.9529 156.187 54.7582 156.363 54.5076C156.539 54.2516 156.627 53.9502 156.627 53.6036V51.5796C156.627 51.2436 156.555 50.9529 156.411 50.7076C156.272 50.4569 156.059 50.2649 155.771 50.1316C155.483 49.9929 155.112 49.9236 154.659 49.9236C154.243 49.9236 153.829 49.9876 153.419 50.1156C153.013 50.2382 152.632 50.4302 152.275 50.6916L151.723 49.2276C152.229 48.8916 152.763 48.6516 153.323 48.5076C153.883 48.3636 154.424 48.2916 154.947 48.2916C155.693 48.2916 156.339 48.4089 156.883 48.6436C157.432 48.8782 157.853 49.2382 158.147 49.7236C158.445 50.2036 158.595 50.8142 158.595 51.5556V56.6116H156.787V55.6996C156.52 56.0676 156.152 56.3529 155.683 56.5556C155.213 56.7529 154.685 56.8516 154.099 56.8516ZM160.219 56.6116V48.6116H167.995V56.6116H165.947V50.2756H162.267V56.6116H160.219ZM169.72 56.6116V48.6116H171.688V53.6676L175.728 48.6116H177.536V56.6116H175.568V51.4916L171.504 56.6116H169.72ZM180.971 56.6116V50.2756H178.451V48.6116H185.539V50.2756H183.019V56.6116H180.971ZM109.184 74.6116V66.6116H116.96V74.6116H114.912V68.2756H111.232V74.6116H109.184ZM118.685 74.6116V66.6116H120.733V74.6116H118.685ZM119.709 65.2676C119.357 65.2676 119.053 65.1556 118.797 64.9316C118.541 64.7076 118.413 64.4116 118.413 64.0436C118.413 63.6756 118.541 63.3796 118.797 63.1556C119.053 62.9316 119.357 62.8196 119.709 62.8196C120.061 62.8196 120.365 62.9316 120.621 63.1556C120.877 63.3796 121.005 63.6756 121.005 64.0436C121.005 64.4116 120.877 64.7076 120.621 64.9316C120.365 65.1556 120.061 65.2676 119.709 65.2676ZM128.187 74.6116V68.2756H125.275V69.1636C125.275 69.8462 125.227 70.4782 125.131 71.0596C125.04 71.6409 124.878 72.1582 124.643 72.6116C124.408 73.0649 124.083 73.4462 123.667 73.7556C123.251 74.0596 122.72 74.2782 122.075 74.4116L121.619 73.0116C122.115 72.8942 122.488 72.6676 122.739 72.3316C122.995 71.9902 123.166 71.5529 123.251 71.0196C123.342 70.4862 123.387 69.8676 123.387 69.1636V66.6116H130.235V74.6116H128.187ZM121.619 77.0116V73.0116L122.803 73.1156L123.123 72.9476H131.843V77.0116H129.971V74.6116H123.491V77.0116H121.619ZM133.609 74.6116V68.2756H131.089V66.6116H138.177V68.2756H135.657V74.6116H133.609ZM139.093 74.6116V66.6116H143.037C143.959 66.6116 144.69 66.7849 145.229 67.1316C145.773 67.4729 146.045 67.9876 146.045 68.6756C146.045 69.0169 145.959 69.3156 145.789 69.5716C145.618 69.8222 145.386 70.0302 145.093 70.1956C144.799 70.3556 144.466 70.4702 144.093 70.5396L144.061 70.0836C144.791 70.1689 145.362 70.4009 145.773 70.7796C146.183 71.1529 146.389 71.6329 146.389 72.2196C146.389 72.7156 146.261 73.1422 146.005 73.4996C145.754 73.8569 145.389 74.1316 144.909 74.3236C144.429 74.5156 143.85 74.6116 143.173 74.6116H139.093ZM141.061 73.1556H142.901C143.375 73.1556 143.741 73.0756 143.997 72.9156C144.253 72.7502 144.381 72.5102 144.381 72.1956C144.381 71.8862 144.253 71.6516 143.997 71.4916C143.746 71.3316 143.381 71.2516 142.901 71.2516H140.829V69.8596H142.709C143.157 69.8596 143.503 69.7902 143.749 69.6516C143.994 69.5076 144.117 69.2809 144.117 68.9716C144.117 68.6569 143.991 68.4276 143.741 68.2836C143.495 68.1396 143.151 68.0676 142.709 68.0676H141.061V73.1556ZM151.336 74.8516C150.467 74.8516 149.704 74.6756 149.048 74.3236C148.392 73.9662 147.88 73.4702 147.512 72.8356C147.15 72.2009 146.968 71.4622 146.968 70.6196C146.968 70.0009 147.072 69.4329 147.28 68.9156C147.494 68.3982 147.792 67.9502 148.176 67.5716C148.566 67.1876 149.019 66.8916 149.536 66.6836C150.059 66.4756 150.63 66.3716 151.248 66.3716C151.92 66.3716 152.52 66.4916 153.048 66.7316C153.576 66.9662 154.014 67.2996 154.36 67.7316C154.712 68.1582 154.958 68.6596 155.096 69.2356C155.24 69.8062 155.259 70.4302 155.152 71.1076H148.896C148.891 71.5289 148.99 71.8969 149.192 72.2116C149.4 72.5262 149.694 72.7742 150.072 72.9556C150.456 73.1316 150.907 73.2196 151.424 73.2196C151.883 73.2196 152.323 73.1529 152.744 73.0196C153.166 72.8862 153.558 72.6889 153.92 72.4276L154.64 73.8596C154.39 74.0622 154.078 74.2382 153.704 74.3876C153.331 74.5369 152.936 74.6516 152.52 74.7316C152.11 74.8116 151.715 74.8516 151.336 74.8516ZM149.016 69.6516H153.168C153.152 69.1129 152.974 68.6916 152.632 68.3876C152.291 68.0782 151.814 67.9236 151.2 67.9236C150.592 67.9236 150.091 68.0782 149.696 68.3876C149.302 68.6916 149.075 69.1129 149.016 69.6516ZM156.266 77.9716V66.6116H158.074V67.6676C158.383 67.2782 158.781 66.9662 159.266 66.7316C159.751 66.4916 160.338 66.3716 161.026 66.3716C161.799 66.3716 162.487 66.5529 163.09 66.9156C163.693 67.2782 164.165 67.7796 164.506 68.4196C164.853 69.0542 165.026 69.7849 165.026 70.6116C165.026 71.2036 164.927 71.7556 164.73 72.2676C164.533 72.7796 164.255 73.2302 163.898 73.6196C163.541 74.0036 163.114 74.3049 162.618 74.5236C162.127 74.7422 161.586 74.8516 160.994 74.8516C160.418 74.8516 159.906 74.7529 159.458 74.5556C159.015 74.3529 158.631 74.0782 158.306 73.7316V77.9716H156.266ZM160.65 73.0596C161.103 73.0596 161.506 72.9609 161.858 72.7636C162.21 72.5609 162.487 72.2782 162.69 71.9156C162.893 71.5476 162.994 71.1129 162.994 70.6116C162.994 70.1102 162.893 69.6756 162.69 69.3076C162.487 68.9396 162.207 68.6569 161.85 68.4596C161.498 68.2622 161.098 68.1636 160.65 68.1636C160.197 68.1636 159.794 68.2622 159.442 68.4596C159.09 68.6569 158.813 68.9396 158.61 69.3076C158.407 69.6756 158.306 70.1102 158.306 70.6116C158.306 71.1129 158.405 71.5476 158.602 71.9156C158.805 72.2782 159.082 72.5609 159.434 72.7636C159.791 72.9609 160.197 73.0596 160.65 73.0596ZM171.815 74.6116V68.2756H168.903V69.1636C168.903 69.8462 168.855 70.4782 168.759 71.0596C168.668 71.6409 168.506 72.1582 168.271 72.6116C168.036 73.0649 167.711 73.4462 167.295 73.7556C166.879 74.0596 166.348 74.2782 165.703 74.4116L165.247 73.0116C165.743 72.8942 166.116 72.6676 166.367 72.3316C166.623 71.9902 166.794 71.5529 166.879 71.0196C166.97 70.4862 167.015 69.8676 167.015 69.1636V66.6116H173.863V74.6116H171.815ZM165.247 77.0116V73.0116L166.431 73.1156L166.751 72.9476H175.471V77.0116H173.599V74.6116H167.119V77.0116H165.247ZM180.634 74.6116V71.2916H178.426V69.6276H180.634V66.6116H182.682V69.6276H184.874V71.2916H182.682V74.6116H180.634ZM175.442 74.6116L177.93 70.3876L175.666 66.6116H177.898L180.13 70.3876L177.762 74.6116H175.442ZM185.498 74.6116L183.178 70.3876L185.482 66.6116H187.642L185.378 70.2836L187.922 74.6116H185.498ZM192.292 74.8516C191.423 74.8516 190.66 74.6756 190.004 74.3236C189.348 73.9662 188.836 73.4702 188.468 72.8356C188.105 72.2009 187.924 71.4622 187.924 70.6196C187.924 70.0009 188.028 69.4329 188.236 68.9156C188.449 68.3982 188.748 67.9502 189.132 67.5716C189.521 67.1876 189.975 66.8916 190.492 66.6836C191.015 66.4756 191.585 66.3716 192.204 66.3716C192.876 66.3716 193.476 66.4916 194.004 66.7316C194.532 66.9662 194.969 67.2996 195.316 67.7316C195.668 68.1582 195.913 68.6596 196.052 69.2356C196.196 69.8062 196.215 70.4302 196.108 71.1076H189.852C189.847 71.5289 189.945 71.8969 190.148 72.2116C190.356 72.5262 190.649 72.7742 191.028 72.9556C191.412 73.1316 191.863 73.2196 192.38 73.2196C192.839 73.2196 193.279 73.1529 193.7 73.0196C194.121 72.8862 194.513 72.6889 194.876 72.4276L195.596 73.8596C195.345 74.0622 195.033 74.2382 194.66 74.3876C194.287 74.5369 193.892 74.6516 193.476 74.7316C193.065 74.8116 192.671 74.8516 192.292 74.8516ZM189.972 69.6516H194.124C194.108 69.1129 193.929 68.6916 193.588 68.3876C193.247 68.0782 192.769 67.9236 192.156 67.9236C191.548 67.9236 191.047 68.0782 190.652 68.3876C190.257 68.6916 190.031 69.1129 189.972 69.6516ZM197.221 74.6116V66.6116H199.269V69.6276H202.957V66.6116H205.005V74.6116H202.957V71.2916H199.269V74.6116H197.221ZM210.426 74.8516C209.573 74.8516 208.815 74.6596 208.154 74.2756C207.498 73.8862 206.983 73.3716 206.61 72.7316C206.237 72.0862 206.05 71.3796 206.05 70.6116C206.05 70.0462 206.157 69.5076 206.37 68.9956C206.583 68.4836 206.885 68.0329 207.274 67.6436C207.669 67.2489 208.133 66.9396 208.666 66.7156C209.199 66.4862 209.786 66.3716 210.426 66.3716C211.274 66.3716 212.026 66.5636 212.682 66.9476C213.343 67.3316 213.861 67.8462 214.234 68.4916C214.613 69.1369 214.802 69.8436 214.802 70.6116C214.802 71.1769 214.693 71.7156 214.474 72.2276C214.261 72.7342 213.959 73.1849 213.57 73.5796C213.181 73.9742 212.719 74.2862 212.186 74.5156C211.653 74.7396 211.066 74.8516 210.426 74.8516ZM210.418 73.0596C210.871 73.0596 211.274 72.9609 211.626 72.7636C211.983 72.5609 212.263 72.2782 212.466 71.9156C212.669 71.5476 212.77 71.1129 212.77 70.6116C212.77 70.1102 212.669 69.6756 212.466 69.3076C212.263 68.9396 211.986 68.6569 211.634 68.4596C211.282 68.2622 210.879 68.1636 210.426 68.1636C209.973 68.1636 209.567 68.2622 209.21 68.4596C208.858 68.6569 208.581 68.9396 208.378 69.3076C208.181 69.6756 208.082 70.1102 208.082 70.6116C208.082 71.1129 208.183 71.5476 208.386 71.9156C208.589 72.2782 208.866 72.5609 209.218 72.7636C209.57 72.9609 209.97 73.0596 210.418 73.0596ZM216.424 70.7076L216.104 63.4116H218.504L218.184 70.7076H216.424ZM217.304 74.8516C216.93 74.8516 216.608 74.7342 216.336 74.4996C216.064 74.2596 215.928 73.9422 215.928 73.5476C215.928 73.2809 215.989 73.0489 216.112 72.8516C216.24 72.6542 216.408 72.5022 216.616 72.3956C216.824 72.2889 217.053 72.2356 217.304 72.2356C217.682 72.2356 218.005 72.3556 218.272 72.5956C218.544 72.8302 218.68 73.1476 218.68 73.5476C218.68 73.8089 218.618 74.0382 218.496 74.2356C218.373 74.4329 218.205 74.5849 217.992 74.6916C217.784 74.7982 217.554 74.8516 217.304 74.8516Z" fill="#6F7AA0"/>
<path d="M113.81 27.21C113.068 27.21 112.38 27.0817 111.745 26.825C111.115 26.5637 110.567 26.202 110.1 25.74C109.633 25.278 109.272 24.7367 109.015 24.116C108.758 23.4953 108.63 22.8233 108.63 22.1C108.63 21.372 108.758 20.6977 109.015 20.077C109.272 19.4563 109.633 18.915 110.1 18.453C110.567 17.991 111.115 17.6317 111.745 17.375C112.38 17.1183 113.068 16.99 113.81 16.99C114.547 16.99 115.231 17.1207 115.861 17.382C116.491 17.6433 117.039 18.0073 117.506 18.474C117.973 18.9407 118.337 19.4843 118.598 20.105C118.859 20.721 118.99 21.386 118.99 22.1C118.99 22.8233 118.859 23.4953 118.598 24.116C118.337 24.7367 117.973 25.278 117.506 25.74C117.039 26.202 116.491 26.5637 115.861 26.825C115.231 27.0817 114.547 27.21 113.81 27.21ZM113.81 25.495C114.272 25.495 114.701 25.4157 115.098 25.257C115.499 25.0937 115.847 24.865 116.141 24.571C116.44 24.2723 116.671 23.9153 116.834 23.5C117.002 23.08 117.086 22.6133 117.086 22.1C117.086 21.414 116.941 20.8167 116.652 20.308C116.363 19.7993 115.971 19.405 115.476 19.125C114.981 18.845 114.426 18.705 113.81 18.705C113.343 18.705 112.912 18.7843 112.515 18.943C112.118 19.1017 111.771 19.3303 111.472 19.629C111.178 19.9277 110.947 20.2847 110.779 20.7C110.616 21.1153 110.534 21.582 110.534 22.1C110.534 22.786 110.676 23.3833 110.961 23.892C111.25 24.4007 111.642 24.795 112.137 25.075C112.632 25.355 113.189 25.495 113.81 25.495ZM121.588 27V21.456H119.383V20H125.585V21.456H123.38V27H121.588ZM126.387 29.94V20H127.969V20.924C128.239 20.5833 128.587 20.3103 129.012 20.105C129.436 19.895 129.95 19.79 130.552 19.79C131.228 19.79 131.83 19.9487 132.358 20.266C132.885 20.5833 133.298 21.022 133.597 21.582C133.9 22.1373 134.052 22.7767 134.052 23.5C134.052 24.018 133.965 24.501 133.793 24.949C133.62 25.397 133.377 25.7913 133.065 26.132C132.752 26.468 132.379 26.7317 131.945 26.923C131.515 27.1143 131.042 27.21 130.524 27.21C130.02 27.21 129.572 27.1237 129.18 26.951C128.792 26.7737 128.456 26.5333 128.172 26.23V29.94H126.387ZM130.223 25.642C130.619 25.642 130.972 25.5557 131.28 25.383C131.588 25.2057 131.83 24.9583 132.008 24.641C132.185 24.319 132.274 23.9387 132.274 23.5C132.274 23.0613 132.185 22.681 132.008 22.359C131.83 22.037 131.585 21.7897 131.273 21.617C130.965 21.4443 130.615 21.358 130.223 21.358C129.826 21.358 129.474 21.4443 129.166 21.617C128.858 21.7897 128.615 22.037 128.438 22.359C128.26 22.681 128.172 23.0613 128.172 23.5C128.172 23.9387 128.258 24.319 128.431 24.641C128.608 24.9583 128.851 25.2057 129.159 25.383C129.471 25.5557 129.826 25.642 130.223 25.642ZM134.973 27V20H136.695V24.424L140.23 20H141.812V27H140.09V22.52L136.534 27H134.973ZM143.314 27V20H144.854H144.896L147.934 24.466L147.164 24.48L150.041 20H151.616V27H150.013L150.034 22.044L150.377 22.184L148.025 25.677H146.912L144.441 22.177L144.777 22.037L144.805 27H143.314ZM155.063 27.21C154.587 27.21 154.165 27.119 153.796 26.937C153.427 26.755 153.138 26.4983 152.928 26.167C152.718 25.831 152.613 25.4343 152.613 24.977C152.613 24.585 152.711 24.235 152.907 23.927C153.103 23.619 153.404 23.3647 153.81 23.164C154.216 22.9587 154.734 22.821 155.364 22.751C155.999 22.681 156.75 22.6903 157.618 22.779L157.646 23.962C157.077 23.8733 156.58 23.8337 156.155 23.843C155.73 23.8523 155.378 23.9013 155.098 23.99C154.823 24.0787 154.615 24.2 154.475 24.354C154.34 24.508 154.272 24.6877 154.272 24.893C154.272 25.201 154.384 25.439 154.608 25.607C154.832 25.7703 155.138 25.852 155.525 25.852C155.856 25.852 156.153 25.7913 156.414 25.67C156.68 25.5487 156.89 25.3783 157.044 25.159C157.198 24.935 157.275 24.6713 157.275 24.368V22.597C157.275 22.303 157.212 22.0487 157.086 21.834C156.965 21.6147 156.778 21.4467 156.526 21.33C156.274 21.2087 155.95 21.148 155.553 21.148C155.189 21.148 154.827 21.204 154.468 21.316C154.113 21.4233 153.78 21.5913 153.467 21.82L152.984 20.539C153.427 20.245 153.894 20.035 154.384 19.909C154.874 19.783 155.348 19.72 155.805 19.72C156.458 19.72 157.023 19.8227 157.499 20.028C157.98 20.2333 158.348 20.5483 158.605 20.973C158.866 21.393 158.997 21.9273 158.997 22.576V27H157.415V26.202C157.182 26.524 156.86 26.7737 156.449 26.951C156.038 27.1237 155.576 27.21 155.063 27.21ZM160.418 27V20H162.21V22.639H165.437V20H167.229V27H165.437V24.095H162.21V27H160.418ZM171.972 27.21C171.226 27.21 170.563 27.042 169.984 26.706C169.41 26.3653 168.96 25.915 168.633 25.355C168.307 24.7903 168.143 24.172 168.143 23.5C168.143 23.0053 168.237 22.534 168.423 22.086C168.61 21.638 168.874 21.2437 169.214 20.903C169.56 20.5577 169.966 20.287 170.432 20.091C170.899 19.8903 171.412 19.79 171.972 19.79C172.714 19.79 173.372 19.958 173.946 20.294C174.525 20.63 174.978 21.0803 175.304 21.645C175.636 22.2097 175.801 22.828 175.801 23.5C175.801 23.9947 175.706 24.466 175.514 24.914C175.328 25.3573 175.064 25.7517 174.723 26.097C174.383 26.4423 173.979 26.7153 173.512 26.916C173.046 27.112 172.532 27.21 171.972 27.21ZM171.965 25.642C172.362 25.642 172.714 25.5557 173.022 25.383C173.335 25.2057 173.58 24.9583 173.757 24.641C173.935 24.319 174.023 23.9387 174.023 23.5C174.023 23.0613 173.935 22.681 173.757 22.359C173.58 22.037 173.337 21.7897 173.029 21.617C172.721 21.4443 172.369 21.358 171.972 21.358C171.576 21.358 171.221 21.4443 170.908 21.617C170.6 21.7897 170.358 22.037 170.18 22.359C170.008 22.681 169.921 23.0613 169.921 23.5C169.921 23.9387 170.01 24.319 170.187 24.641C170.365 24.9583 170.607 25.2057 170.915 25.383C171.223 25.5557 171.573 25.642 171.965 25.642ZM181.92 27.175C181.528 27.175 181.148 27.1447 180.779 27.084C180.411 27.028 180.063 26.937 179.736 26.811C179.414 26.6803 179.123 26.51 178.861 26.3L179.603 25.124C179.893 25.3667 180.236 25.544 180.632 25.656C181.029 25.768 181.435 25.824 181.85 25.824C182.382 25.824 182.798 25.7493 183.096 25.6C183.4 25.446 183.551 25.1963 183.551 24.851C183.551 24.5477 183.395 24.333 183.082 24.207C182.774 24.081 182.319 24.018 181.717 24.018H180.429V22.716H181.668C182.205 22.716 182.611 22.6553 182.886 22.534C183.166 22.4127 183.306 22.2097 183.306 21.925C183.306 21.7523 183.246 21.61 183.124 21.498C183.003 21.3813 182.828 21.295 182.599 21.239C182.375 21.1783 182.112 21.148 181.808 21.148C181.412 21.148 181.031 21.2063 180.667 21.323C180.303 21.4397 179.986 21.6193 179.715 21.862L179.071 20.679C179.449 20.3757 179.895 20.147 180.408 19.993C180.926 19.839 181.444 19.762 181.962 19.762C182.578 19.762 183.108 19.8367 183.551 19.986C183.995 20.1353 184.333 20.3523 184.566 20.637C184.804 20.9217 184.923 21.267 184.923 21.673C184.923 22.0183 184.814 22.324 184.594 22.59C184.38 22.8513 184.062 23.0403 183.642 23.157C184.156 23.2783 184.545 23.486 184.811 23.78C185.077 24.0693 185.21 24.438 185.21 24.886C185.21 25.3527 185.075 25.7587 184.804 26.104C184.538 26.4447 184.158 26.7083 183.663 26.895C183.173 27.0817 182.592 27.175 181.92 27.175ZM188.22 27.21C187.744 27.21 187.322 27.119 186.953 26.937C186.584 26.755 186.295 26.4983 186.085 26.167C185.875 25.831 185.77 25.4343 185.77 24.977C185.77 24.585 185.868 24.235 186.064 23.927C186.26 23.619 186.561 23.3647 186.967 23.164C187.373 22.9587 187.891 22.821 188.521 22.751C189.156 22.681 189.907 22.6903 190.775 22.779L190.803 23.962C190.234 23.8733 189.737 23.8337 189.312 23.843C188.887 23.8523 188.535 23.9013 188.255 23.99C187.98 24.0787 187.772 24.2 187.632 24.354C187.497 24.508 187.429 24.6877 187.429 24.893C187.429 25.201 187.541 25.439 187.765 25.607C187.989 25.7703 188.295 25.852 188.682 25.852C189.013 25.852 189.31 25.7913 189.571 25.67C189.837 25.5487 190.047 25.3783 190.201 25.159C190.355 24.935 190.432 24.6713 190.432 24.368V22.597C190.432 22.303 190.369 22.0487 190.243 21.834C190.122 21.6147 189.935 21.4467 189.683 21.33C189.431 21.2087 189.107 21.148 188.71 21.148C188.346 21.148 187.984 21.204 187.625 21.316C187.27 21.4233 186.937 21.5913 186.624 21.82L186.141 20.539C186.584 20.245 187.051 20.035 187.541 19.909C188.031 19.783 188.505 19.72 188.962 19.72C189.615 19.72 190.18 19.8227 190.656 20.028C191.137 20.2333 191.505 20.5483 191.762 20.973C192.023 21.393 192.154 21.9273 192.154 22.576V27H190.572V26.202C190.339 26.524 190.017 26.7737 189.606 26.951C189.195 27.1237 188.733 27.21 188.22 27.21ZM193.575 27V20H200.379V27H198.587V21.456H195.367V27H193.575ZM201.888 27V20H203.61V24.424L207.145 20H208.727V27H207.005V22.52L203.449 27H201.888ZM211.734 27V21.456H209.529V20H215.731V21.456H213.526V27H211.734Z" fill="#BCC7EF"/>
<path d="M111.354 94.7916C110.742 94.7916 110.182 94.7096 109.674 94.5456C109.166 94.3816 108.726 94.1476 108.354 93.8436L108.924 92.9256C109.208 93.1896 109.556 93.3956 109.968 93.5436C110.38 93.6916 110.818 93.7656 111.282 93.7656C111.714 93.7656 112.088 93.7036 112.404 93.5796C112.72 93.4516 112.964 93.2736 113.136 93.0456C113.308 92.8176 113.396 92.5496 113.4 92.2416C113.4 91.7536 113.242 91.3836 112.926 91.1316C112.614 90.8796 112.124 90.7536 111.456 90.7536H109.83V89.8116H111.366C111.726 89.8116 112.038 89.7556 112.302 89.6436C112.57 89.5316 112.776 89.3716 112.92 89.1636C113.068 88.9516 113.142 88.6996 113.142 88.4076C113.142 88.1236 113.07 87.8836 112.926 87.6876C112.782 87.4876 112.572 87.3376 112.296 87.2376C112.024 87.1336 111.696 87.0816 111.312 87.0816C110.904 87.0816 110.518 87.1456 110.154 87.2736C109.79 87.4016 109.472 87.5856 109.2 87.8256L108.642 86.9916C108.986 86.6836 109.398 86.4476 109.878 86.2836C110.358 86.1156 110.874 86.0316 111.426 86.0316C112.01 86.0316 112.514 86.1216 112.938 86.3016C113.366 86.4776 113.694 86.7336 113.922 87.0696C114.154 87.4016 114.27 87.7976 114.27 88.2576C114.27 88.5296 114.204 88.7936 114.072 89.0496C113.94 89.3056 113.77 89.5296 113.562 89.7216C113.358 89.9136 113.146 90.0536 112.926 90.1416C113.394 90.2816 113.784 90.5356 114.096 90.9036C114.408 91.2716 114.562 91.7376 114.558 92.3016C114.554 92.7576 114.418 93.1736 114.15 93.5496C113.882 93.9256 113.508 94.2276 113.028 94.4556C112.552 94.6796 111.994 94.7916 111.354 94.7916ZM117.342 94.7916C116.926 94.7916 116.564 94.7156 116.256 94.5636C115.948 94.4116 115.71 94.1976 115.542 93.9216C115.374 93.6416 115.29 93.3116 115.29 92.9316C115.29 92.6196 115.37 92.3356 115.53 92.0796C115.69 91.8196 115.942 91.6056 116.286 91.4376C116.63 91.2656 117.076 91.1516 117.624 91.0956C118.172 91.0356 118.834 91.0456 119.61 91.1256L119.64 91.9356C119.04 91.8556 118.53 91.8256 118.11 91.8456C117.69 91.8616 117.35 91.9176 117.09 92.0136C116.83 92.1056 116.638 92.2296 116.514 92.3856C116.394 92.5376 116.334 92.7096 116.334 92.9016C116.334 93.2096 116.444 93.4516 116.664 93.6276C116.888 93.7996 117.194 93.8856 117.582 93.8856C117.914 93.8856 118.21 93.8256 118.47 93.7056C118.734 93.5816 118.942 93.4116 119.094 93.1956C119.25 92.9756 119.328 92.7216 119.328 92.4336V90.7896C119.328 90.5136 119.266 90.2736 119.142 90.0696C119.022 89.8656 118.844 89.7076 118.608 89.5956C118.372 89.4836 118.082 89.4276 117.738 89.4276C117.43 89.4276 117.124 89.4736 116.82 89.5656C116.516 89.6576 116.224 89.8076 115.944 90.0156L115.608 89.1636C115.972 88.9156 116.348 88.7416 116.736 88.6416C117.124 88.5416 117.496 88.4916 117.852 88.4916C118.392 88.4916 118.852 88.5776 119.232 88.7496C119.612 88.9176 119.902 89.1716 120.102 89.5116C120.302 89.8516 120.402 90.2756 120.402 90.7836V94.6116H119.388V93.8916C119.184 94.1836 118.902 94.4076 118.542 94.5636C118.182 94.7156 117.782 94.7916 117.342 94.7916ZM121.752 97.1316V88.7316H122.766V89.6136C123.01 89.3016 123.316 89.0476 123.684 88.8516C124.056 88.6516 124.524 88.5516 125.088 88.5516C125.672 88.5516 126.186 88.6896 126.63 88.9656C127.074 89.2376 127.42 89.6096 127.668 90.0816C127.92 90.5536 128.046 91.0836 128.046 91.6716C128.046 92.0996 127.974 92.5036 127.83 92.8836C127.69 93.2596 127.488 93.5916 127.224 93.8796C126.96 94.1636 126.646 94.3876 126.282 94.5516C125.922 94.7116 125.52 94.7916 125.076 94.7916C124.58 94.7916 124.146 94.6996 123.774 94.5156C123.406 94.3276 123.098 94.0816 122.85 93.7776V97.1316H121.752ZM124.89 93.7956C125.286 93.7956 125.636 93.7096 125.94 93.5376C126.248 93.3616 126.488 93.1156 126.66 92.7996C126.836 92.4796 126.924 92.1036 126.924 91.6716C126.924 91.2356 126.836 90.8596 126.66 90.5436C126.488 90.2236 126.248 89.9776 125.94 89.8056C125.636 89.6336 125.286 89.5476 124.89 89.5476C124.494 89.5476 124.142 89.6336 123.834 89.8056C123.53 89.9776 123.29 90.2236 123.114 90.5436C122.938 90.8596 122.85 91.2356 122.85 91.6716C122.85 92.1036 122.938 92.4796 123.114 92.7996C123.29 93.1156 123.53 93.3616 123.834 93.5376C124.142 93.7096 124.494 93.7956 124.89 93.7956ZM130.574 94.7916C130.158 94.7916 129.796 94.7156 129.488 94.5636C129.18 94.4116 128.942 94.1976 128.774 93.9216C128.606 93.6416 128.522 93.3116 128.522 92.9316C128.522 92.6196 128.602 92.3356 128.762 92.0796C128.922 91.8196 129.174 91.6056 129.518 91.4376C129.862 91.2656 130.308 91.1516 130.856 91.0956C131.404 91.0356 132.066 91.0456 132.842 91.1256L132.872 91.9356C132.272 91.8556 131.762 91.8256 131.342 91.8456C130.922 91.8616 130.582 91.9176 130.322 92.0136C130.062 92.1056 129.87 92.2296 129.746 92.3856C129.626 92.5376 129.566 92.7096 129.566 92.9016C129.566 93.2096 129.676 93.4516 129.896 93.6276C130.12 93.7996 130.426 93.8856 130.814 93.8856C131.146 93.8856 131.442 93.8256 131.702 93.7056C131.966 93.5816 132.174 93.4116 132.326 93.1956C132.482 92.9756 132.56 92.7216 132.56 92.4336V90.7896C132.56 90.5136 132.498 90.2736 132.374 90.0696C132.254 89.8656 132.076 89.7076 131.84 89.5956C131.604 89.4836 131.314 89.4276 130.97 89.4276C130.662 89.4276 130.356 89.4736 130.052 89.5656C129.748 89.6576 129.456 89.8076 129.176 90.0156L128.84 89.1636C129.204 88.9156 129.58 88.7416 129.968 88.6416C130.356 88.5416 130.728 88.4916 131.084 88.4916C131.624 88.4916 132.084 88.5776 132.464 88.7496C132.844 88.9176 133.134 89.1716 133.334 89.5116C133.534 89.8516 133.634 90.2756 133.634 90.7836V94.6116H132.62V93.8916C132.416 94.1836 132.134 94.4076 131.774 94.5636C131.414 94.7156 131.014 94.7916 130.574 94.7916ZM136.927 94.7436C136.599 94.7436 136.285 94.7196 135.985 94.6716C135.685 94.6276 135.401 94.5536 135.133 94.4496C134.869 94.3456 134.629 94.2096 134.413 94.0416L134.929 93.2616C135.189 93.4736 135.491 93.6256 135.835 93.7176C136.183 93.8096 136.535 93.8556 136.891 93.8556C137.403 93.8556 137.809 93.7796 138.109 93.6276C138.413 93.4716 138.565 93.2116 138.565 92.8476C138.565 92.5356 138.405 92.3096 138.085 92.1696C137.765 92.0296 137.301 91.9596 136.693 91.9596H135.607V91.0896H136.669C137.197 91.0896 137.609 91.0256 137.905 90.8976C138.205 90.7696 138.355 90.5536 138.355 90.2496C138.355 90.0736 138.293 89.9256 138.169 89.8056C138.049 89.6856 137.879 89.5956 137.659 89.5356C137.443 89.4716 137.189 89.4396 136.897 89.4396C136.549 89.4396 136.215 89.4896 135.895 89.5896C135.579 89.6896 135.301 89.8456 135.061 90.0576L134.623 89.2956C134.911 89.0556 135.265 88.8696 135.685 88.7376C136.109 88.6016 136.541 88.5336 136.981 88.5336C137.473 88.5336 137.897 88.5956 138.253 88.7196C138.613 88.8436 138.891 89.0236 139.087 89.2596C139.283 89.4956 139.381 89.7796 139.381 90.1116C139.381 90.4236 139.281 90.6916 139.081 90.9156C138.881 91.1356 138.591 91.2956 138.211 91.3956C138.667 91.4956 139.015 91.6736 139.255 91.9296C139.495 92.1816 139.615 92.4956 139.615 92.8716C139.615 93.2676 139.503 93.6056 139.279 93.8856C139.055 94.1656 138.741 94.3796 138.337 94.5276C137.937 94.6716 137.467 94.7436 136.927 94.7436Z" fill="#6F7AA0" fill-opacity="0.64"/>
<path d="M44.5 208.74H92.5V160.74H44.5V208.74Z" fill="black"/>
<defs>
<filter id="filter0_d_502_71" x="0" y="4" width="340" height="140" filterUnits="userSpaceOnUse" color-interpolation-filters="sRGB">
<feFlood flood-opacity="0" result="BackgroundImageFix"/>
<feColorMatrix in="SourceAlpha" type="matrix" values="0 0 0 0 0 0 0 0 0 0 0 0 0 0 0 0 0 0 127 0" result="hardAlpha"/>
<feOffset dy="4"/>
<feGaussianBlur stdDeviation="15"/>
<feComposite in2="hardAlpha" operator="out"/>
<feColorMatrix type="matrix" values="0 0 0 0 0 0 0 0 0 0 0 0 0 0 0 0 0 0 0.2 0"/>
<feBlend mode="normal" in2="BackgroundImageFix" result="effect1_dropShadow_502_71"/>
<feBlend mode="normal" in="SourceGraphic" in2="effect1_dropShadow_502_71" result="shape"/>
</filter>
</defs>
</svg>
