<svg width="340" height="204" viewBox="0 0 340 204" fill="none" xmlns="http://www.w3.org/2000/svg">
<path d="M30 200.692H78V152.692H30V200.692Z" fill="black"/>
<g filter="url(#filter0_d_502_111)">
<rect x="30" y="26" width="280" height="80" rx="16" fill="#CCE7EA"/>
<rect x="30.5" y="26.5" width="279" height="79" rx="15.5" stroke="#9AA9AB"/>
</g>
<path d="M35.838 14.21C35.1053 14.21 34.4263 14.0817 33.801 13.825C33.1803 13.5637 32.6367 13.202 32.17 12.74C31.708 12.278 31.3487 11.7367 31.092 11.116C30.8353 10.4953 30.707 9.82333 30.707 9.1C30.707 8.372 30.8353 7.69767 31.092 7.077C31.3487 6.45633 31.708 5.915 32.17 5.453C32.6367 4.991 33.1803 4.63167 33.801 4.375C34.4263 4.11833 35.1053 3.99 35.838 3.99C36.566 3.99 37.2403 4.12067 37.861 4.382C38.4817 4.64333 39.0253 5.00733 39.492 5.474C39.9587 5.94067 40.3203 6.48433 40.577 7.105C40.8383 7.721 40.969 8.386 40.969 9.1C40.969 9.82333 40.8383 10.4953 40.577 11.116C40.3203 11.7367 39.9587 12.278 39.492 12.74C39.0253 13.202 38.4817 13.5637 37.861 13.825C37.2403 14.0817 36.566 14.21 35.838 14.21ZM35.838 12.957C36.3653 12.957 36.8553 12.866 37.308 12.684C37.7653 12.502 38.1643 12.243 38.505 11.907C38.8457 11.5663 39.1117 11.158 39.303 10.682C39.499 10.206 39.597 9.67867 39.597 9.1C39.597 8.32067 39.429 7.64167 39.093 7.063C38.7617 6.48433 38.3113 6.03633 37.742 5.719C37.1727 5.397 36.538 5.236 35.838 5.236C35.3107 5.236 34.8183 5.32933 34.361 5.516C33.9083 5.698 33.5093 5.95933 33.164 6.3C32.8233 6.636 32.5573 7.042 32.366 7.518C32.1747 7.98933 32.079 8.51667 32.079 9.1C32.079 9.87467 32.2447 10.5513 32.576 11.13C32.912 11.7087 33.3647 12.159 33.934 12.481C34.5033 12.7983 35.138 12.957 35.838 12.957ZM43.8178 14V8.232H41.4658V7.14H47.4648V8.232H45.1058V14H43.8178ZM48.368 16.94V7.14H49.551V8.169C49.8357 7.805 50.1927 7.50867 50.622 7.28C51.056 7.04667 51.602 6.93 52.26 6.93C52.9413 6.93 53.541 7.091 54.059 7.413C54.577 7.73033 54.9807 8.16433 55.27 8.715C55.564 9.26567 55.711 9.884 55.711 10.57C55.711 11.0693 55.627 11.5407 55.459 11.984C55.2957 12.4227 55.06 12.81 54.752 13.146C54.444 13.4773 54.0777 13.7387 53.653 13.93C53.233 14.1167 52.764 14.21 52.246 14.21C51.6673 14.21 51.161 14.1027 50.727 13.888C50.2977 13.6687 49.9383 13.3817 49.649 13.027V16.94H48.368ZM52.029 13.048C52.491 13.048 52.8993 12.9477 53.254 12.747C53.6133 12.5417 53.8933 12.2547 54.094 11.886C54.2993 11.5127 54.402 11.074 54.402 10.57C54.402 10.0613 54.2993 9.62267 54.094 9.254C53.8933 8.88067 53.6133 8.59367 53.254 8.393C52.8993 8.19233 52.491 8.092 52.029 8.092C51.567 8.092 51.1563 8.19233 50.797 8.393C50.4423 8.59367 50.1623 8.88067 49.957 9.254C49.7517 9.62267 49.649 10.0613 49.649 10.57C49.649 11.074 49.7517 11.5127 49.957 11.886C50.1623 12.2547 50.4423 12.5417 50.797 12.747C51.1563 12.9477 51.567 13.048 52.029 13.048ZM56.7631 14V7.14H58.0161V12.068L62.0061 7.14H63.1121V14H61.8591V9.016L57.8341 14H56.7631ZM64.7753 14V7.14H65.9023H65.9443L69.1223 11.662L68.5623 11.676L71.6003 7.14H72.7553V14H71.5583L71.5723 8.715L71.8103 8.82L69.2063 12.558H68.3313L65.6223 8.806L65.8533 8.701L65.8673 14H64.7753ZM76.3116 14.21C75.8262 14.21 75.4039 14.1213 75.0446 13.944C74.6852 13.7667 74.4076 13.517 74.2116 13.195C74.0156 12.8683 73.9176 12.4833 73.9176 12.04C73.9176 11.676 74.0109 11.3447 74.1976 11.046C74.3842 10.7427 74.6782 10.493 75.0796 10.297C75.4809 10.0963 76.0012 9.96333 76.6406 9.898C77.2799 9.828 78.0522 9.83967 78.9576 9.933L78.9926 10.878C78.2926 10.7847 77.6976 10.7497 77.2076 10.773C76.7176 10.7917 76.3209 10.857 76.0176 10.969C75.7142 11.0763 75.4902 11.221 75.3456 11.403C75.2056 11.5803 75.1356 11.781 75.1356 12.005C75.1356 12.3643 75.2639 12.6467 75.5206 12.852C75.7819 13.0527 76.1389 13.153 76.5916 13.153C76.9789 13.153 77.3242 13.083 77.6276 12.943C77.9356 12.7983 78.1782 12.6 78.3556 12.348C78.5376 12.0913 78.6286 11.795 78.6286 11.459V9.541C78.6286 9.219 78.5562 8.939 78.4116 8.701C78.2716 8.463 78.0639 8.27867 77.7886 8.148C77.5132 8.01733 77.1749 7.952 76.7736 7.952C76.4142 7.952 76.0572 8.00567 75.7026 8.113C75.3479 8.22033 75.0072 8.39533 74.6806 8.638L74.2886 7.644C74.7132 7.35467 75.1519 7.15167 75.6046 7.035C76.0572 6.91833 76.4912 6.86 76.9066 6.86C77.5366 6.86 78.0732 6.96033 78.5166 7.161C78.9599 7.357 79.2982 7.65333 79.5316 8.05C79.7649 8.44667 79.8816 8.94133 79.8816 9.534V14H78.6986V13.16C78.4606 13.5007 78.1316 13.762 77.7116 13.944C77.2916 14.1213 76.8249 14.21 76.3116 14.21ZM81.4561 14V7.14H82.7091V12.068L86.6991 7.14H87.8051V14H86.5521V9.016L82.5271 14H81.4561ZM84.6271 5.88C84.1278 5.88 83.6891 5.77267 83.3111 5.558C82.9331 5.34333 82.6415 5.05167 82.4361 4.683C82.2308 4.30967 82.1351 3.88267 82.1491 3.402H83.2481C83.2295 3.85933 83.3461 4.23033 83.5981 4.515C83.8501 4.795 84.1931 4.935 84.6271 4.935C85.0611 4.935 85.4018 4.795 85.6491 4.515C85.9011 4.23033 86.0155 3.85933 85.9921 3.402H87.0981C87.1075 3.878 87.0071 4.30267 86.7971 4.676C86.5918 5.04933 86.3001 5.34333 85.9221 5.558C85.5441 5.77267 85.1125 5.88 84.6271 5.88ZM91.0574 14V8.232H88.7054V7.14H94.7044V8.232H92.3454V14H91.0574ZM98.6946 14.21C97.9666 14.21 97.3249 14.0583 96.7696 13.755C96.2143 13.4517 95.7803 13.0293 95.4676 12.488C95.1549 11.942 94.9986 11.3073 94.9986 10.584C94.9986 10.0613 95.0873 9.576 95.2646 9.128C95.4466 8.68 95.6986 8.29267 96.0206 7.966C96.3473 7.63933 96.7276 7.385 97.1616 7.203C97.6003 7.021 98.0763 6.93 98.5896 6.93C99.1449 6.93 99.6396 7.028 100.074 7.224C100.512 7.42 100.874 7.69533 101.159 8.05C101.448 8.4 101.656 8.813 101.782 9.289C101.908 9.76033 101.933 10.2737 101.859 10.829H96.2726C96.2586 11.2863 96.3519 11.6877 96.5526 12.033C96.7533 12.3737 97.0426 12.6397 97.4206 12.831C97.8033 13.0223 98.2559 13.118 98.7786 13.118C99.1613 13.118 99.5346 13.0573 99.8986 12.936C100.263 12.8147 100.585 12.635 100.865 12.397L101.411 13.356C101.187 13.538 100.921 13.6943 100.613 13.825C100.309 13.951 99.9919 14.0467 99.6606 14.112C99.3293 14.1773 99.0073 14.21 98.6946 14.21ZM96.3426 9.828H100.571C100.552 9.24933 100.372 8.799 100.032 8.477C99.6909 8.15033 99.2033 7.987 98.5686 7.987C97.9526 7.987 97.4439 8.15033 97.0426 8.477C96.6413 8.799 96.4079 9.24933 96.3426 9.828ZM105.904 14V7.14H112.19V14H110.902V8.232H107.192V14H105.904ZM116.948 14.21C116.22 14.21 115.579 14.0583 115.023 13.755C114.468 13.4517 114.034 13.0293 113.721 12.488C113.409 11.942 113.252 11.3073 113.252 10.584C113.252 10.0613 113.341 9.576 113.518 9.128C113.7 8.68 113.952 8.29267 114.274 7.966C114.601 7.63933 114.981 7.385 115.415 7.203C115.854 7.021 116.33 6.93 116.843 6.93C117.399 6.93 117.893 7.028 118.327 7.224C118.766 7.42 119.128 7.69533 119.412 8.05C119.702 8.4 119.909 8.813 120.035 9.289C120.161 9.76033 120.187 10.2737 120.112 10.829H114.526C114.512 11.2863 114.606 11.6877 114.806 12.033C115.007 12.3737 115.296 12.6397 115.674 12.831C116.057 13.0223 116.51 13.118 117.032 13.118C117.415 13.118 117.788 13.0573 118.152 12.936C118.516 12.8147 118.838 12.635 119.118 12.397L119.664 13.356C119.44 13.538 119.174 13.6943 118.866 13.825C118.563 13.951 118.246 14.0467 117.914 14.112C117.583 14.1773 117.261 14.21 116.948 14.21ZM114.596 9.828H118.824C118.806 9.24933 118.626 8.799 118.285 8.477C117.945 8.15033 117.457 7.987 116.822 7.987C116.206 7.987 115.698 8.15033 115.296 8.477C114.895 8.799 114.662 9.24933 114.596 9.828ZM121.217 16.94V7.14H122.4V8.169C122.685 7.805 123.042 7.50867 123.471 7.28C123.905 7.04667 124.451 6.93 125.109 6.93C125.791 6.93 126.39 7.091 126.908 7.413C127.426 7.73033 127.83 8.16433 128.119 8.715C128.413 9.26567 128.56 9.884 128.56 10.57C128.56 11.0693 128.476 11.5407 128.308 11.984C128.145 12.4227 127.909 12.81 127.601 13.146C127.293 13.4773 126.927 13.7387 126.502 13.93C126.082 14.1167 125.613 14.21 125.095 14.21C124.517 14.21 124.01 14.1027 123.576 13.888C123.147 13.6687 122.788 13.3817 122.498 13.027V16.94H121.217ZM124.878 13.048C125.34 13.048 125.749 12.9477 126.103 12.747C126.463 12.5417 126.743 12.2547 126.943 11.886C127.149 11.5127 127.251 11.074 127.251 10.57C127.251 10.0613 127.149 9.62267 126.943 9.254C126.743 8.88067 126.463 8.59367 126.103 8.393C125.749 8.19233 125.34 8.092 124.878 8.092C124.416 8.092 124.006 8.19233 123.646 8.393C123.292 8.59367 123.012 8.88067 122.806 9.254C122.601 9.62267 122.498 10.0613 122.498 10.57C122.498 11.074 122.601 11.5127 122.806 11.886C123.012 12.2547 123.292 12.5417 123.646 12.747C124.006 12.9477 124.416 13.048 124.878 13.048ZM132.768 14.21C132.04 14.21 131.398 14.0583 130.843 13.755C130.287 13.4517 129.853 13.0293 129.541 12.488C129.228 11.942 129.072 11.3073 129.072 10.584C129.072 10.0613 129.16 9.576 129.338 9.128C129.52 8.68 129.772 8.29267 130.094 7.966C130.42 7.63933 130.801 7.385 131.235 7.203C131.673 7.021 132.149 6.93 132.663 6.93C133.218 6.93 133.713 7.028 134.147 7.224C134.585 7.42 134.947 7.69533 135.232 8.05C135.521 8.4 135.729 8.813 135.855 9.289C135.981 9.76033 136.006 10.2737 135.932 10.829H130.346C130.332 11.2863 130.425 11.6877 130.626 12.033C130.826 12.3737 131.116 12.6397 131.494 12.831C131.876 13.0223 132.329 13.118 132.852 13.118C133.234 13.118 133.608 13.0573 133.972 12.936C134.336 12.8147 134.658 12.635 134.938 12.397L135.484 13.356C135.26 13.538 134.994 13.6943 134.686 13.825C134.382 13.951 134.065 14.0467 133.734 14.112C133.402 14.1773 133.08 14.21 132.768 14.21ZM130.416 9.828H134.644C134.625 9.24933 134.445 8.799 134.105 8.477C133.764 8.15033 133.276 7.987 132.642 7.987C132.026 7.987 131.517 8.15033 131.116 8.477C130.714 8.799 130.481 9.24933 130.416 9.828ZM141.636 14L139.319 10.339L141.398 7.14H142.784L140.712 10.276L143.19 14H141.636ZM137.037 14V7.14H138.325V9.842H140.376V10.934H138.325V14H137.037ZM145.975 14.21C145.49 14.21 145.068 14.1213 144.708 13.944C144.349 13.7667 144.071 13.517 143.875 13.195C143.679 12.8683 143.581 12.4833 143.581 12.04C143.581 11.676 143.675 11.3447 143.861 11.046C144.048 10.7427 144.342 10.493 144.743 10.297C145.145 10.0963 145.665 9.96333 146.304 9.898C146.944 9.828 147.716 9.83967 148.621 9.933L148.656 10.878C147.956 10.7847 147.361 10.7497 146.871 10.773C146.381 10.7917 145.985 10.857 145.681 10.969C145.378 11.0763 145.154 11.221 145.009 11.403C144.869 11.5803 144.799 11.781 144.799 12.005C144.799 12.3643 144.928 12.6467 145.184 12.852C145.446 13.0527 145.803 13.153 146.255 13.153C146.643 13.153 146.988 13.083 147.291 12.943C147.599 12.7983 147.842 12.6 148.019 12.348C148.201 12.0913 148.292 11.795 148.292 11.459V9.541C148.292 9.219 148.22 8.939 148.075 8.701C147.935 8.463 147.728 8.27867 147.452 8.148C147.177 8.01733 146.839 7.952 146.437 7.952C146.078 7.952 145.721 8.00567 145.366 8.113C145.012 8.22033 144.671 8.39533 144.344 8.638L143.952 7.644C144.377 7.35467 144.816 7.15167 145.268 7.035C145.721 6.91833 146.155 6.86 146.57 6.86C147.2 6.86 147.737 6.96033 148.18 7.161C148.624 7.357 148.962 7.65333 149.195 8.05C149.429 8.44667 149.545 8.94133 149.545 9.534V14H148.362V13.16C148.124 13.5007 147.795 13.762 147.375 13.944C146.955 14.1213 146.489 14.21 145.975 14.21ZM153.388 14.154C153.005 14.154 152.639 14.126 152.289 14.07C151.939 14.0187 151.607 13.9323 151.295 13.811C150.987 13.6897 150.707 13.531 150.455 13.335L151.057 12.425C151.36 12.6723 151.712 12.8497 152.114 12.957C152.52 13.0643 152.93 13.118 153.346 13.118C153.943 13.118 154.417 13.0293 154.767 12.852C155.121 12.67 155.299 12.3667 155.299 11.942C155.299 11.578 155.112 11.3143 154.739 11.151C154.365 10.9877 153.824 10.906 153.115 10.906H151.848V9.891H153.087C153.703 9.891 154.183 9.81633 154.529 9.667C154.879 9.51767 155.054 9.26567 155.054 8.911C155.054 8.70567 154.981 8.533 154.837 8.393C154.697 8.253 154.498 8.148 154.242 8.078C153.99 8.00333 153.693 7.966 153.353 7.966C152.947 7.966 152.557 8.02433 152.184 8.141C151.815 8.25767 151.491 8.43967 151.211 8.687L150.7 7.798C151.036 7.518 151.449 7.301 151.939 7.147C152.433 6.98833 152.937 6.909 153.451 6.909C154.025 6.909 154.519 6.98133 154.935 7.126C155.355 7.27067 155.679 7.48067 155.908 7.756C156.136 8.03133 156.251 8.36267 156.251 8.75C156.251 9.114 156.134 9.42667 155.901 9.688C155.667 9.94467 155.329 10.1313 154.886 10.248C155.418 10.3647 155.824 10.5723 156.104 10.871C156.384 11.165 156.524 11.5313 156.524 11.97C156.524 12.432 156.393 12.8263 156.132 13.153C155.87 13.4797 155.504 13.7293 155.033 13.902C154.566 14.07 154.018 14.154 153.388 14.154ZM164.724 14V11.214C164.388 11.3027 164.071 11.368 163.772 11.41C163.474 11.452 163.156 11.473 162.82 11.473C162.19 11.473 161.668 11.3797 161.252 11.193C160.837 11.0017 160.527 10.717 160.321 10.339C160.121 9.961 160.02 9.492 160.02 8.932V7.14H161.308V8.743C161.308 9.26567 161.437 9.66233 161.693 9.933C161.95 10.2037 162.389 10.339 163.009 10.339C163.364 10.339 163.677 10.3227 163.947 10.29C164.218 10.2573 164.477 10.2153 164.724 10.164V7.14H166.012V14H164.724ZM170.765 14.21C170.037 14.21 169.395 14.0583 168.84 13.755C168.285 13.4517 167.851 13.0293 167.538 12.488C167.225 11.942 167.069 11.3073 167.069 10.584C167.069 10.0613 167.158 9.576 167.335 9.128C167.517 8.68 167.769 8.29267 168.091 7.966C168.418 7.63933 168.798 7.385 169.232 7.203C169.671 7.021 170.147 6.93 170.66 6.93C171.215 6.93 171.71 7.028 172.144 7.224C172.583 7.42 172.944 7.69533 173.229 8.05C173.518 8.4 173.726 8.813 173.852 9.289C173.978 9.76033 174.004 10.2737 173.929 10.829H168.343C168.329 11.2863 168.422 11.6877 168.623 12.033C168.824 12.3737 169.113 12.6397 169.491 12.831C169.874 13.0223 170.326 13.118 170.849 13.118C171.232 13.118 171.605 13.0573 171.969 12.936C172.333 12.8147 172.655 12.635 172.935 12.397L173.481 13.356C173.257 13.538 172.991 13.6943 172.683 13.825C172.38 13.951 172.062 14.0467 171.731 14.112C171.4 14.1773 171.078 14.21 170.765 14.21ZM168.413 9.828H172.641C172.622 9.24933 172.443 8.799 172.102 8.477C171.761 8.15033 171.274 7.987 170.639 7.987C170.023 7.987 169.514 8.15033 169.113 8.477C168.712 8.799 168.478 9.24933 168.413 9.828ZM175.034 16.94V7.14H176.217V8.169C176.502 7.805 176.859 7.50867 177.288 7.28C177.722 7.04667 178.268 6.93 178.926 6.93C179.607 6.93 180.207 7.091 180.725 7.413C181.243 7.73033 181.647 8.16433 181.936 8.715C182.23 9.26567 182.377 9.884 182.377 10.57C182.377 11.0693 182.293 11.5407 182.125 11.984C181.962 12.4227 181.726 12.81 181.418 13.146C181.11 13.4773 180.744 13.7387 180.319 13.93C179.899 14.1167 179.43 14.21 178.912 14.21C178.333 14.21 177.827 14.1027 177.393 13.888C176.964 13.6687 176.604 13.3817 176.315 13.027V16.94H175.034ZM178.695 13.048C179.157 13.048 179.565 12.9477 179.92 12.747C180.279 12.5417 180.559 12.2547 180.76 11.886C180.965 11.5127 181.068 11.074 181.068 10.57C181.068 10.0613 180.965 9.62267 180.76 9.254C180.559 8.88067 180.279 8.59367 179.92 8.393C179.565 8.19233 179.157 8.092 178.695 8.092C178.233 8.092 177.822 8.19233 177.463 8.393C177.108 8.59367 176.828 8.88067 176.623 9.254C176.418 9.62267 176.315 10.0613 176.315 10.57C176.315 11.074 176.418 11.5127 176.623 11.886C176.828 12.2547 177.108 12.5417 177.463 12.747C177.822 12.9477 178.233 13.048 178.695 13.048ZM186.585 14.21C185.857 14.21 185.215 14.0583 184.66 13.755C184.104 13.4517 183.67 13.0293 183.358 12.488C183.045 11.942 182.889 11.3073 182.889 10.584C182.889 10.0613 182.977 9.576 183.155 9.128C183.337 8.68 183.589 8.29267 183.911 7.966C184.237 7.63933 184.618 7.385 185.052 7.203C185.49 7.021 185.966 6.93 186.48 6.93C187.035 6.93 187.53 7.028 187.964 7.224C188.402 7.42 188.764 7.69533 189.049 8.05C189.338 8.4 189.546 8.813 189.672 9.289C189.798 9.76033 189.823 10.2737 189.749 10.829H184.163C184.149 11.2863 184.242 11.6877 184.443 12.033C184.643 12.3737 184.933 12.6397 185.311 12.831C185.693 13.0223 186.146 13.118 186.669 13.118C187.051 13.118 187.425 13.0573 187.789 12.936C188.153 12.8147 188.475 12.635 188.755 12.397L189.301 13.356C189.077 13.538 188.811 13.6943 188.503 13.825C188.199 13.951 187.882 14.0467 187.551 14.112C187.219 14.1773 186.897 14.21 186.585 14.21ZM184.233 9.828H188.461C188.442 9.24933 188.262 8.799 187.922 8.477C187.581 8.15033 187.093 7.987 186.459 7.987C185.843 7.987 185.334 8.15033 184.933 8.477C184.531 8.799 184.298 9.24933 184.233 9.828ZM193.122 14.154C192.739 14.154 192.373 14.126 192.023 14.07C191.673 14.0187 191.341 13.9323 191.029 13.811C190.721 13.6897 190.441 13.531 190.189 13.335L190.791 12.425C191.094 12.6723 191.446 12.8497 191.848 12.957C192.254 13.0643 192.664 13.118 193.08 13.118C193.677 13.118 194.151 13.0293 194.501 12.852C194.855 12.67 195.033 12.3667 195.033 11.942C195.033 11.578 194.846 11.3143 194.473 11.151C194.099 10.9877 193.558 10.906 192.849 10.906H191.582V9.891H192.821C193.437 9.891 193.917 9.81633 194.263 9.667C194.613 9.51767 194.788 9.26567 194.788 8.911C194.788 8.70567 194.715 8.533 194.571 8.393C194.431 8.253 194.232 8.148 193.976 8.078C193.724 8.00333 193.427 7.966 193.087 7.966C192.681 7.966 192.291 8.02433 191.918 8.141C191.549 8.25767 191.225 8.43967 190.945 8.687L190.434 7.798C190.77 7.518 191.183 7.301 191.673 7.147C192.167 6.98833 192.671 6.909 193.185 6.909C193.759 6.909 194.253 6.98133 194.669 7.126C195.089 7.27067 195.413 7.48067 195.642 7.756C195.87 8.03133 195.985 8.36267 195.985 8.75C195.985 9.114 195.868 9.42667 195.635 9.688C195.401 9.94467 195.063 10.1313 194.62 10.248C195.152 10.3647 195.558 10.5723 195.838 10.871C196.118 11.165 196.258 11.5313 196.258 11.97C196.258 12.432 196.127 12.8263 195.866 13.153C195.604 13.4797 195.238 13.7293 194.767 13.902C194.3 14.07 193.752 14.154 193.122 14.154ZM198.361 8.729C198.09 8.729 197.857 8.64267 197.661 8.47C197.47 8.29733 197.374 8.071 197.374 7.791C197.374 7.60433 197.416 7.441 197.5 7.301C197.589 7.161 197.708 7.05133 197.857 6.972C198.011 6.89267 198.179 6.853 198.361 6.853C198.636 6.853 198.87 6.93933 199.061 7.112C199.252 7.28467 199.348 7.511 199.348 7.791C199.348 7.97767 199.304 8.141 199.215 8.281C199.126 8.421 199.007 8.53067 198.858 8.61C198.709 8.68933 198.543 8.729 198.361 8.729ZM198.361 14.21C198.09 14.21 197.857 14.1237 197.661 13.951C197.47 13.7783 197.374 13.552 197.374 13.272C197.374 13.0853 197.416 12.922 197.5 12.782C197.589 12.642 197.708 12.5323 197.857 12.453C198.011 12.3737 198.179 12.334 198.361 12.334C198.636 12.334 198.87 12.4203 199.061 12.593C199.252 12.7657 199.348 12.992 199.348 13.272C199.348 13.4587 199.304 13.622 199.215 13.762C199.126 13.902 199.007 14.0117 198.858 14.091C198.709 14.1703 198.543 14.21 198.361 14.21Z" fill="#5A979E"/>
<path d="M65.928 77.48C64.4347 77.48 63.1067 77.176 61.944 76.568C60.7813 75.96 59.7947 75.1173 58.984 74.04C58.184 72.9627 57.5707 71.72 57.144 70.312C56.728 68.904 56.52 67.4 56.52 65.8C56.52 64.1893 56.728 62.68 57.144 61.272C57.5707 59.864 58.184 58.6267 58.984 57.56C59.7947 56.4827 60.7813 55.64 61.944 55.032C63.1067 54.424 64.4347 54.12 65.928 54.12C67.4107 54.12 68.7333 54.424 69.896 55.032C71.0587 55.64 72.04 56.4827 72.84 57.56C73.6507 58.6267 74.2693 59.864 74.696 61.272C75.1227 62.68 75.336 64.1893 75.336 65.8C75.336 67.4 75.1227 68.904 74.696 70.312C74.2693 71.72 73.6507 72.9627 72.84 74.04C72.04 75.1173 71.0587 75.96 69.896 76.568C68.7333 77.176 67.4107 77.48 65.928 77.48ZM65.928 73.384C66.664 73.384 67.3307 73.2187 67.928 72.888C68.5253 72.5467 69.0373 72.056 69.464 71.416C69.9013 70.7653 70.232 69.9707 70.456 69.032C70.6907 68.0827 70.808 67.0053 70.808 65.8C70.808 64.1893 70.6053 62.8187 70.2 61.688C69.7947 60.5467 69.224 59.6827 68.488 59.096C67.7627 58.5093 66.9093 58.216 65.928 58.216C65.192 58.216 64.5253 58.3867 63.928 58.728C63.3307 59.0587 62.8133 59.5493 62.376 60.2C61.9493 60.84 61.6187 61.6293 61.384 62.568C61.16 63.5067 61.048 64.584 61.048 65.8C61.048 67.4107 61.2507 68.7813 61.656 69.912C62.0613 71.0427 62.6267 71.9067 63.352 72.504C64.088 73.0907 64.9467 73.384 65.928 73.384ZM82.951 77V68.92H88.423V70.792H85.287V77H82.951ZM93.0797 77.24C92.2104 77.24 91.4397 77.0453 90.7677 76.656C90.0957 76.2667 89.5677 75.7493 89.1837 75.104C88.8051 74.4533 88.6157 73.7387 88.6157 72.96C88.6157 72.3893 88.7251 71.848 88.9437 71.336C89.1624 70.8187 89.4717 70.3627 89.8717 69.968C90.2717 69.568 90.7437 69.2533 91.2877 69.024C91.8317 68.7947 92.4291 68.68 93.0797 68.68C93.9491 68.68 94.7171 68.8747 95.3837 69.264C96.0557 69.6533 96.5811 70.1733 96.9597 70.824C97.3437 71.4693 97.5357 72.1813 97.5357 72.96C97.5357 73.5253 97.4264 74.0667 97.2077 74.584C96.9891 75.1013 96.6797 75.56 96.2797 75.96C95.8851 76.3547 95.4157 76.6667 94.8717 76.896C94.3277 77.1253 93.7304 77.24 93.0797 77.24ZM93.0797 75.216C93.4904 75.216 93.8584 75.1253 94.1837 74.944C94.5091 74.7573 94.7651 74.496 94.9517 74.16C95.1384 73.8187 95.2317 73.4187 95.2317 72.96C95.2317 72.496 95.1384 72.096 94.9517 71.76C94.7704 71.424 94.5171 71.1653 94.1917 70.984C93.8664 70.7973 93.4957 70.704 93.0797 70.704C92.6637 70.704 92.2904 70.7973 91.9597 70.984C91.6344 71.1653 91.3784 71.424 91.1917 71.76C91.0104 72.096 90.9197 72.496 90.9197 72.96C90.9197 73.424 91.0131 73.824 91.1997 74.16C91.3864 74.496 91.6424 74.7573 91.9677 74.944C92.2931 75.1253 92.6637 75.216 93.0797 75.216ZM104.219 77V70.792H101.595V71.52C101.595 72.1707 101.544 72.7867 101.443 73.368C101.342 73.9493 101.166 74.4747 100.915 74.944C100.664 75.408 100.318 75.8027 99.8751 76.128C99.4378 76.448 98.8778 76.6747 98.1951 76.808L97.7151 75.192C98.2005 75.0853 98.5685 74.8613 98.8191 74.52C99.0698 74.1787 99.2378 73.752 99.3231 73.24C99.4138 72.7227 99.4591 72.1493 99.4591 71.52V68.92H106.555V77H104.219ZM97.7151 79.4V75.192L98.9951 75.296L99.3631 75.128H108.179V79.4H106.043V77H99.8511V79.4H97.7151ZM110.362 77.24C109.956 77.24 109.604 77.112 109.306 76.856C109.012 76.5947 108.866 76.248 108.866 75.816C108.866 75.5227 108.932 75.2693 109.066 75.056C109.204 74.8427 109.386 74.6773 109.61 74.56C109.839 74.4427 110.09 74.384 110.362 74.384C110.772 74.384 111.124 74.5147 111.418 74.776C111.716 75.032 111.866 75.3787 111.866 75.816C111.866 76.1093 111.796 76.3627 111.658 76.576C111.519 76.7893 111.335 76.952 111.106 77.064C110.882 77.1813 110.634 77.24 110.362 77.24Z" fill="#5E7D80"/>
<path d="M143.68 77V73.832L148.464 69.496C149.957 68.1413 151.136 67.0053 152 66.088C152.875 65.16 153.493 64.3387 153.856 63.624C154.229 62.9093 154.416 62.1893 154.416 61.464C154.416 60.3973 154.059 59.5707 153.344 58.984C152.629 58.3973 151.621 58.104 150.32 58.104C149.339 58.104 148.395 58.2907 147.488 58.664C146.592 59.0267 145.803 59.5653 145.12 60.28L143.472 56.856C144.453 55.9707 145.579 55.2933 146.848 54.824C148.128 54.3547 149.44 54.12 150.784 54.12C152.405 54.12 153.819 54.4027 155.024 54.968C156.229 55.5333 157.157 56.328 157.808 57.352C158.469 58.3653 158.8 59.5493 158.8 60.904C158.8 61.832 158.619 62.744 158.256 63.64C157.893 64.5253 157.248 65.5227 156.32 66.632C155.403 67.7413 154.107 69.0853 152.432 70.664L149.824 73.096H159.392V77H143.68ZM164.231 77.48L162.615 73.96C164.034 73.7787 165.303 73.4747 166.423 73.048C167.543 72.6213 168.525 72.0987 169.367 71.48C170.21 70.8613 170.919 70.168 171.495 69.4C172.071 68.632 172.519 67.8213 172.839 66.968C172.338 67.5013 171.725 67.928 170.999 68.248C170.285 68.5573 169.522 68.712 168.711 68.712C167.303 68.712 166.034 68.4027 164.903 67.784C163.783 67.1653 162.898 66.3173 162.247 65.24C161.607 64.152 161.287 62.9093 161.287 61.512C161.287 60.1147 161.639 58.8613 162.343 57.752C163.058 56.632 164.045 55.7467 165.303 55.096C166.562 54.4453 168.013 54.12 169.655 54.12C171.341 54.12 172.834 54.4827 174.135 55.208C175.437 55.9227 176.461 56.952 177.207 58.296C177.954 59.6293 178.327 61.2293 178.327 63.096C178.327 65.016 177.97 66.7867 177.255 68.408C176.541 70.0187 175.538 71.448 174.247 72.696C172.967 73.944 171.474 74.9733 169.767 75.784C168.061 76.5947 166.215 77.16 164.231 77.48ZM169.655 65.064C170.402 65.064 171.069 64.9093 171.655 64.6C172.253 64.2907 172.722 63.8693 173.063 63.336C173.415 62.792 173.591 62.184 173.591 61.512C173.591 60.8187 173.421 60.2053 173.079 59.672C172.738 59.1387 172.274 58.7227 171.687 58.424C171.101 58.1147 170.423 57.96 169.655 57.96C168.898 57.96 168.221 58.1147 167.623 58.424C167.037 58.7227 166.573 59.1387 166.231 59.672C165.901 60.2053 165.735 60.8187 165.735 61.512C165.735 62.184 165.906 62.792 166.247 63.336C166.599 63.8693 167.069 64.2907 167.655 64.6C168.253 64.9093 168.919 65.064 169.655 65.064ZM185.204 77.016L188.116 72.992L185.356 68.92H188.308L189.74 71.376L191.132 68.92H194.012L191.332 72.944L194.22 77H191.228L189.66 74.536L188.068 76.976L185.204 77.016ZM194.922 77V68.92H199.034C199.983 68.92 200.73 69.0933 201.274 69.44C201.818 69.7813 202.09 70.3013 202.09 71C202.09 71.3627 201.996 71.6747 201.81 71.936C201.628 72.192 201.38 72.4 201.066 72.56C200.756 72.72 200.404 72.832 200.01 72.896L199.978 72.376C200.74 72.456 201.34 72.688 201.778 73.072C202.215 73.4507 202.434 73.944 202.434 74.552C202.434 75.0587 202.306 75.496 202.05 75.864C201.794 76.2267 201.42 76.5067 200.93 76.704C200.439 76.9013 199.844 77 199.146 77H194.922ZM197.154 75.384H198.842C199.263 75.384 199.586 75.312 199.81 75.168C200.039 75.0187 200.154 74.8027 200.154 74.52C200.154 74.248 200.042 74.04 199.818 73.896C199.599 73.752 199.274 73.68 198.842 73.68H196.922V72.144H198.642C199.042 72.144 199.351 72.0827 199.57 71.96C199.788 71.832 199.898 71.6293 199.898 71.352C199.898 71.0747 199.786 70.8693 199.562 70.736C199.343 70.5973 199.036 70.528 198.642 70.528H197.154V75.384ZM204.691 77.24C204.285 77.24 203.933 77.112 203.635 76.856C203.341 76.5947 203.195 76.248 203.195 75.816C203.195 75.5227 203.261 75.2693 203.395 75.056C203.533 74.8427 203.715 74.6773 203.939 74.56C204.168 74.4427 204.419 74.384 204.691 74.384C205.101 74.384 205.453 74.5147 205.747 74.776C206.045 75.032 206.195 75.3787 206.195 75.816C206.195 76.1093 206.125 76.3627 205.987 76.576C205.848 76.7893 205.664 76.952 205.435 77.064C205.211 77.1813 204.963 77.24 204.691 77.24Z" fill="#5E7D80"/>
<path d="M242.72 77V59.688L237.408 61.592L236.16 57.912L246.752 54.12H247.072V77H242.72ZM257.638 77.48C256.198 77.48 254.832 77.2773 253.542 76.872C252.262 76.456 251.195 75.896 250.342 75.192L251.75 71.464C252.464 72.1467 253.318 72.6533 254.31 72.984C255.312 73.304 256.336 73.464 257.382 73.464C258.278 73.464 259.051 73.3307 259.702 73.064C260.363 72.7867 260.87 72.3813 261.222 71.848C261.574 71.304 261.75 70.6373 261.75 69.848C261.75 69.1547 261.563 68.5573 261.19 68.056C260.827 67.5547 260.315 67.1707 259.654 66.904C259.003 66.6267 258.24 66.488 257.366 66.488C256.8 66.488 256.208 66.5573 255.59 66.696C254.971 66.8347 254.347 67.0427 253.718 67.32L251.782 65.192L252.95 54.616L265.67 54.632V58.712H256.23L255.67 63.256C256.107 63.1387 256.55 63.048 256.998 62.984C257.446 62.9093 257.894 62.872 258.342 62.872C259.867 62.872 261.222 63.16 262.406 63.736C263.59 64.3013 264.518 65.1227 265.19 66.2C265.862 67.2667 266.198 68.552 266.198 70.056C266.198 71.56 265.84 72.8667 265.126 73.976C264.411 75.0853 263.408 75.9493 262.118 76.568C260.838 77.176 259.344 77.48 257.638 77.48ZM277.869 77.24C277.016 77.24 276.253 77.0533 275.581 76.68C274.909 76.3067 274.379 75.7973 273.989 75.152C273.605 74.5067 273.413 73.776 273.413 72.96C273.413 72.3467 273.528 71.7813 273.757 71.264C273.987 70.7413 274.307 70.288 274.717 69.904C275.133 69.5147 275.619 69.2133 276.173 69C276.728 68.7867 277.328 68.68 277.973 68.68C278.565 68.68 279.112 68.76 279.613 68.92C280.12 69.08 280.579 69.32 280.989 69.64L279.933 71.384C279.677 71.1547 279.392 70.984 279.077 70.872C278.768 70.76 278.44 70.704 278.093 70.704C277.608 70.704 277.189 70.792 276.837 70.968C276.491 71.144 276.221 71.4 276.029 71.736C275.843 72.072 275.749 72.4773 275.749 72.952C275.749 73.6613 275.957 74.216 276.373 74.616C276.795 75.016 277.368 75.216 278.093 75.216C278.483 75.216 278.848 75.144 279.189 75C279.536 74.856 279.843 74.656 280.109 74.4L281.093 76.168C280.651 76.4987 280.147 76.76 279.581 76.952C279.016 77.144 278.445 77.24 277.869 77.24ZM283.018 77.24C282.613 77.24 282.261 77.112 281.962 76.856C281.669 76.5947 281.522 76.248 281.522 75.816C281.522 75.5227 281.589 75.2693 281.722 75.056C281.861 74.8427 282.042 74.6773 282.266 74.56C282.495 74.4427 282.746 74.384 283.018 74.384C283.429 74.384 283.781 74.5147 284.074 74.776C284.373 75.032 284.522 75.3787 284.522 75.816C284.522 76.1093 284.453 76.3627 284.314 76.576C284.175 76.7893 283.991 76.952 283.762 77.064C283.538 77.1813 283.29 77.24 283.018 77.24Z" fill="#5E7D80"/>
<path d="M97.8554 183.042C96.8428 183.042 95.9561 182.832 95.1954 182.412C94.4394 181.987 93.8514 181.392 93.4314 180.627C93.0161 179.857 92.8084 178.959 92.8084 177.932C92.8084 177.19 92.9321 176.509 93.1794 175.888C93.4268 175.263 93.7768 174.721 94.2294 174.264C94.6821 173.807 95.2164 173.452 95.8324 173.2C96.4531 172.948 97.1298 172.822 97.8624 172.822C98.5858 172.822 99.2181 172.913 99.7594 173.095C100.301 173.272 100.767 173.527 101.159 173.858L100.459 174.936C100.142 174.651 99.7734 174.439 99.3534 174.299C98.9334 174.159 98.4691 174.089 97.9604 174.089C97.3864 174.089 96.8661 174.178 96.3994 174.355C95.9328 174.532 95.5338 174.789 95.2024 175.125C94.8758 175.456 94.6238 175.858 94.4464 176.329C94.2691 176.8 94.1804 177.33 94.1804 177.918C94.1804 178.73 94.3368 179.423 94.6494 179.997C94.9668 180.571 95.4148 181.01 95.9934 181.313C96.5721 181.612 97.2558 181.761 98.0444 181.761C98.5531 181.761 99.0408 181.686 99.5074 181.537C99.9788 181.383 100.42 181.133 100.83 180.788L101.446 181.908C100.966 182.286 100.427 182.571 99.8294 182.762C99.2368 182.949 98.5788 183.042 97.8554 183.042ZM103.622 182.832V177.064H101.27V175.972H107.269V177.064H104.91V182.832H103.622ZM110.07 183.042C109.584 183.042 109.162 182.953 108.803 182.776C108.443 182.599 108.166 182.349 107.97 182.027C107.774 181.7 107.676 181.315 107.676 180.872C107.676 180.508 107.769 180.177 107.956 179.878C108.142 179.575 108.436 179.325 108.838 179.129C109.239 178.928 109.759 178.795 110.399 178.73C111.038 178.66 111.81 178.672 112.716 178.765L112.751 179.71C112.051 179.617 111.456 179.582 110.966 179.605C110.476 179.624 110.079 179.689 109.776 179.801C109.472 179.908 109.248 180.053 109.104 180.235C108.964 180.412 108.894 180.613 108.894 180.837C108.894 181.196 109.022 181.479 109.279 181.684C109.54 181.885 109.897 181.985 110.35 181.985C110.737 181.985 111.082 181.915 111.386 181.775C111.694 181.63 111.936 181.432 112.114 181.18C112.296 180.923 112.387 180.627 112.387 180.291V178.373C112.387 178.051 112.314 177.771 112.17 177.533C112.03 177.295 111.822 177.111 111.547 176.98C111.271 176.849 110.933 176.784 110.532 176.784C110.172 176.784 109.815 176.838 109.461 176.945C109.106 177.052 108.765 177.227 108.439 177.47L108.047 176.476C108.471 176.187 108.91 175.984 109.363 175.867C109.815 175.75 110.249 175.692 110.665 175.692C111.295 175.692 111.831 175.792 112.275 175.993C112.718 176.189 113.056 176.485 113.29 176.882C113.523 177.279 113.64 177.773 113.64 178.366V182.832H112.457V181.992C112.219 182.333 111.89 182.594 111.47 182.776C111.05 182.953 110.583 183.042 110.07 183.042ZM115.214 185.772V175.972H116.397V177.001C116.682 176.637 117.039 176.341 117.468 176.112C117.902 175.879 118.448 175.762 119.106 175.762C119.787 175.762 120.387 175.923 120.905 176.245C121.423 176.562 121.827 176.996 122.116 177.547C122.41 178.098 122.557 178.716 122.557 179.402C122.557 179.901 122.473 180.373 122.305 180.816C122.142 181.255 121.906 181.642 121.598 181.978C121.29 182.309 120.924 182.571 120.499 182.762C120.079 182.949 119.61 183.042 119.092 183.042C118.513 183.042 118.007 182.935 117.573 182.72C117.144 182.501 116.784 182.214 116.495 181.859V185.772H115.214ZM118.875 181.88C119.337 181.88 119.745 181.78 120.1 181.579C120.459 181.374 120.739 181.087 120.94 180.718C121.145 180.345 121.248 179.906 121.248 179.402C121.248 178.893 121.145 178.455 120.94 178.086C120.739 177.713 120.459 177.426 120.1 177.225C119.745 177.024 119.337 176.924 118.875 176.924C118.413 176.924 118.002 177.024 117.643 177.225C117.288 177.426 117.008 177.713 116.803 178.086C116.598 178.455 116.495 178.893 116.495 179.402C116.495 179.906 116.598 180.345 116.803 180.718C117.008 181.087 117.288 181.374 117.643 181.579C118.002 181.78 118.413 181.88 118.875 181.88ZM125.198 182.832V177.064H122.846V175.972H128.845V177.064H126.486V182.832H125.198Z" fill="#5E7D80"/>
<path d="M125.906 35.6135V95.6135" stroke="#9AA9AB"/>
<path d="M225.906 35.6135V95.6135" stroke="#9AA9AB"/>
<defs>
<filter id="filter0_d_502_111" x="0" y="0" width="340" height="140" filterUnits="userSpaceOnUse" color-interpolation-filters="sRGB">
<feFlood flood-opacity="0" result="BackgroundImageFix"/>
<feColorMatrix in="SourceAlpha" type="matrix" values="0 0 0 0 0 0 0 0 0 0 0 0 0 0 0 0 0 0 127 0" result="hardAlpha"/>
<feOffset dy="4"/>
<feGaussianBlur stdDeviation="15"/>
<feComposite in2="hardAlpha" operator="out"/>
<feColorMatrix type="matrix" values="0 0 0 0 0 0 0 0 0 0 0 0 0 0 0 0 0 0 0.2 0"/>
<feBlend mode="normal" in2="BackgroundImageFix" result="effect1_dropShadow_502_111"/>
<feBlend mode="normal" in="SourceGraphic" in2="effect1_dropShadow_502_111" result="shape"/>
</filter>
</defs>
</svg>
