<svg width="332" height="264" viewBox="0 0 332 264" fill="none" xmlns="http://www.w3.org/2000/svg">
<g filter="url(#filter0_d_502_85)">
<rect x="31.1406" y="35.5" width="269.938" height="202.545" rx="15.5" stroke="#AEB887" shape-rendering="crispEdges"/>
</g>
<rect x="46.6406" y="144.268" width="60" height="60" rx="20" fill="white" fill-opacity="0.4"/>
<rect x="228.578" y="134.268" width="60" height="60" rx="20" fill="white" fill-opacity="0.4"/>
<path d="M58.6406 191.802L94.6406 191.802L94.6406 155.802L58.6406 155.802L58.6406 191.802Z" fill="white"/>
<path d="M240.578 182.946L276.578 182.946L276.578 146.946L240.578 146.946L240.578 182.946Z" fill="white"/>
<rect x="136.857" y="157.151" width="60" height="60" rx="20" fill="white" fill-opacity="0.4"/>
<path d="M148.857 204.671L184.857 204.671L184.857 168.671L148.857 168.671L148.857 204.671Z" fill="white"/>
<path d="M118.928 239.545V35.6968" stroke="#AEB887"/>
<path d="M213.928 239.545V35.6968" stroke="#AEB887"/>
<line x1="85.3206" y1="71.1045" x2="68.6661" y2="87.7591" stroke="black"/>
<line y1="-0.5" x2="23.5531" y2="-0.5" transform="matrix(0.707107 0.707107 0.707107 -0.707107 68.3127 70.751)" stroke="black"/>
<line x1="175.537" y1="71.1045" x2="158.883" y2="87.7591" stroke="black"/>
<line y1="-0.5" x2="23.5531" y2="-0.5" transform="matrix(0.707107 0.707107 0.707107 -0.707107 158.53 70.751)" stroke="black"/>
<line x1="267.258" y1="71.1045" x2="250.604" y2="87.7591" stroke="black"/>
<line y1="-0.5" x2="23.5531" y2="-0.5" transform="matrix(0.707107 0.707107 0.707107 -0.707107 250.25 70.751)" stroke="black"/>
<defs>
<filter id="filter0_d_502_85" x="0.640625" y="0" width="330.938" height="263.545" filterUnits="userSpaceOnUse" color-interpolation-filters="sRGB">
<feFlood flood-opacity="0" result="BackgroundImageFix"/>
<feColorMatrix in="SourceAlpha" type="matrix" values="0 0 0 0 0 0 0 0 0 0 0 0 0 0 0 0 0 0 127 0" result="hardAlpha"/>
<feOffset dy="-5"/>
<feGaussianBlur stdDeviation="15"/>
<feComposite in2="hardAlpha" operator="out"/>
<feColorMatrix type="matrix" values="0 0 0 0 0 0 0 0 0 0 0 0 0 0 0 0 0 0 1 0"/>
<feBlend mode="normal" in2="BackgroundImageFix" result="effect1_dropShadow_502_85"/>
<feBlend mode="normal" in="SourceGraphic" in2="effect1_dropShadow_502_85" result="shape"/>
</filter>
</defs>
</svg>
